STARTFONT 2.1
COMMENT
COMMENT Converted from OpenType font "montserrat.ttf" by "otf2bdf 3.0".
COMMENT
FONT -FreeType-Montserrat Thin-Medium-R-Normal--50-360-100-100-P-248-ISO10646-1
SIZE 36 100 100
FONTBOUNDINGBOX 84 64 -8 -13
STARTPROPERTIES 19
FOUNDRY "FreeType"
FAMILY_NAME "Montserrat Thin"
WEIGHT_NAME "Medium"
SLANT "R"
SETWIDTH_NAME "Normal"
ADD_STYLE_NAME ""
PIXEL_SIZE 50
POINT_SIZE 360
RESOLUTION_X 100
RESOLUTION_Y 100
SPACING "P"
AVERAGE_WIDTH 248
CHARSET_REGISTRY "ISO10646"
CHARSET_ENCODING "1"
FONT_ASCENT 48
FONT_DESCENT 12
COPYRIGHT "Copyright 2011 The Montserrat Project Authors (https://github.com/JulietaUla/Montserrat)"
_OTF_FONTFILE "montserrat.ttf"
_OTF_PSNAME "Montserrat-Thin"
ENDPROPERTIES
CHARS 969
STARTCHAR 0000
ENCODING 0
SWIDTH 0 0
DWIDTH 0 0
BBX 0 0 0 0
BITMAP
ENDCHAR
STARTCHAR 000D
ENCODING 13
SWIDTH 240 0
DWIDTH 12 0
BBX 0 0 0 0
BITMAP
ENDCHAR
STARTCHAR 0020
ENCODING 32
SWIDTH 240 0
DWIDTH 12 0
BBX 0 0 0 0
BITMAP
ENDCHAR
STARTCHAR 0021
ENCODING 33
SWIDTH 240 0
DWIDTH 12 0
BBX 2 35 5 0
BITMAP
40
40
40
40
40
40
40
40
40
40
40
40
40
40
40
80
80
80
80
80
80
80
80
80
80
00
00
00
00
00
00
00
00
C0
C0
ENDCHAR
STARTCHAR 0022
ENCODING 34
SWIDTH 320 0
DWIDTH 16 0
BBX 9 13 4 22
BITMAP
8080
8080
8080
8080
8080
8080
8080
8080
8080
8080
8080
8080
8080
ENDCHAR
STARTCHAR 0023
ENCODING 35
SWIDTH 680 0
DWIDTH 34 0
BBX 30 35 2 0
BITMAP
00200100
00200100
00200100
00200100
00200100
00200100
00400200
00400200
00400200
00400200
7FFFFFFC
00400200
00400200
00400200
00800400
00800400
00800400
00800400
00800400
00800400
00800400
00800400
01000800
01000800
FFFFFFF8
01000800
01000800
01000800
01000800
01000800
02001000
02001000
02001000
02001000
02001000
ENDCHAR
STARTCHAR 0024
ENCODING 36
SWIDTH 600 0
DWIDTH 30 0
BBX 24 47 3 -6
BITMAP
000800
000800
000800
000800
000800
000800
01FF80
070870
08080C
100800
200800
200800
400800
400800
400800
400800
400800
400800
200800
300800
180800
060800
01C800
003C00
000BC0
000830
000808
000806
000802
000801
000801
000801
000801
000801
000801
000803
C00802
600804
180808
0E0870
01FFC0
000800
000800
000800
000800
000800
000800
ENDCHAR
STARTCHAR 0025
ENCODING 37
SWIDTH 800 0
DWIDTH 40 0
BBX 35 35 2 0
BITMAP
07E0000400
1810000800
3008000800
2004001000
4006002000
4002002000
4002004000
4002008000
C002008000
C002010000
4002020000
4002020000
4002040000
4002080000
2004180000
2004100000
1008201800
0C7060E300
01C0410080
0000820040
0001820040
0001040020
0002040020
0004040020
0004040020
0008040020
0010040020
0010040020
0020040020
0040040020
0040040020
0080020040
01000100C0
0100008180
0200007E00
ENDCHAR
STARTCHAR 0026
ENCODING 38
SWIDTH 620 0
DWIDTH 31 0
BBX 28 35 3 -1
BITMAP
00FF0000
01018000
02004000
04006000
04002000
0C002000
08002000
08002000
04002000
04004000
06008000
02010000
01020000
008C0000
00D80000
00600000
01B00000
03100000
04080000
18040000
30020000
20010040
40008080
80004080
80002080
80003100
80001900
80000D00
80000600
80000600
40000D00
60001880
30002040
0C00C020
03FF0010
ENDCHAR
STARTCHAR 0027
ENCODING 39
SWIDTH 180 0
DWIDTH 9 0
BBX 1 13 4 22
BITMAP
80
80
80
80
80
80
80
80
80
80
80
80
80
ENDCHAR
STARTCHAR 0028
ENCODING 40
SWIDTH 300 0
DWIDTH 15 0
BBX 7 47 6 -10
BITMAP
04
04
08
08
10
10
10
20
20
20
40
40
40
40
40
40
40
80
80
80
80
80
80
80
80
80
80
80
80
80
40
40
40
40
40
40
20
20
20
20
10
10
08
08
08
04
02
ENDCHAR
STARTCHAR 0029
ENCODING 41
SWIDTH 300 0
DWIDTH 15 0
BBX 6 47 3 -10
BITMAP
80
40
40
20
20
20
10
10
10
08
08
08
08
04
04
04
04
04
04
04
04
04
04
04
04
04
04
04
04
04
04
04
04
04
08
08
08
08
10
10
10
20
20
40
40
40
80
ENDCHAR
STARTCHAR 002A
ENCODING 42
SWIDTH 340 0
DWIDTH 17 0
BBX 16 17 1 20
BITMAP
0100
0100
0100
0100
C103
310C
0D30
0740
0180
0760
1918
310C
C102
0100
0100
0100
0100
ENDCHAR
STARTCHAR 002B
ENCODING 43
SWIDTH 560 0
DWIDTH 28 0
BBX 20 21 4 7
BITMAP
006000
006000
006000
006000
006000
006000
006000
006000
006000
006000
FFFFF0
006000
006000
006000
006000
006000
006000
006000
006000
006000
006000
ENDCHAR
STARTCHAR 002C
ENCODING 44
SWIDTH 180 0
DWIDTH 9 0
BBX 3 9 3 -7
BITMAP
E0
E0
60
40
40
40
40
80
80
ENDCHAR
STARTCHAR 002D
ENCODING 45
SWIDTH 380 0
DWIDTH 19 0
BBX 13 1 3 13
BITMAP
FFF8
ENDCHAR
STARTCHAR 002E
ENCODING 46
SWIDTH 180 0
DWIDTH 9 0
BBX 3 2 3 0
BITMAP
E0
E0
ENDCHAR
STARTCHAR 002F
ENCODING 47
SWIDTH 300 0
DWIDTH 15 0
BBX 17 47 -1 -5
BITMAP
000080
000080
000080
000100
000100
000100
000200
000200
000600
000400
000400
000800
000800
000800
001000
001000
001000
002000
002000
002000
004000
004000
004000
008000
008000
008000
010000
010000
030000
020000
020000
040000
040000
040000
080000
080000
080000
100000
100000
100000
200000
200000
200000
400000
400000
400000
800000
ENDCHAR
STARTCHAR 0030
ENCODING 48
SWIDTH 640 0
DWIDTH 32 0
BBX 27 35 3 0
BITMAP
007F8000
01807000
02001800
04000400
08000200
10000300
30000100
20000080
60000080
40000080
40000040
40000040
80000040
80000040
80000040
80000020
80000020
80000020
80000020
80000020
80000060
80000040
80000040
40000040
40000040
40000080
60000080
20000080
30000100
10000300
08000200
04000400
02001800
01807000
007F8000
ENDCHAR
STARTCHAR 0031
ENCODING 49
SWIDTH 340 0
DWIDTH 17 0
BBX 10 35 0 0
BITMAP
FFC0
0040
0040
0040
0040
0040
0040
0040
0040
0040
0040
0040
0040
0040
0040
0040
0040
0040
0040
0040
0040
0040
0040
0040
0040
0040
0040
0040
0040
0040
0040
0040
0040
0040
0040
ENDCHAR
STARTCHAR 0032
ENCODING 50
SWIDTH 540 0
DWIDTH 27 0
BBX 24 35 2 0
BITMAP
03FF00
1C00C0
600020
C00010
800018
000008
000008
000004
000004
000004
000004
000008
000008
000008
000010
000020
000060
000040
000080
000100
000200
000400
000800
001000
002000
004000
008000
010000
020000
040000
080000
100000
200000
400000
FFFFFF
ENDCHAR
STARTCHAR 0033
ENCODING 51
SWIDTH 540 0
DWIDTH 27 0
BBX 24 35 1 0
BITMAP
7FFFFC
00000C
000008
000010
000020
000060
000040
000080
000100
000300
000200
000400
000800
001800
001000
002000
007F80
000060
000018
00000C
000004
000002
000002
000002
000002
000003
000002
000002
000002
000002
800004
600008
300010
0E0060
01FF80
ENDCHAR
STARTCHAR 0034
ENCODING 52
SWIDTH 640 0
DWIDTH 32 0
BBX 29 35 2 0
BITMAP
00000800
00001000
00002000
00004000
0000C000
00018000
00010000
00020000
00040000
00080000
00180000
00300000
00200000
00400000
00800400
01000400
03000400
02000400
04000400
08000400
10000400
20000400
60000400
40000400
FFFFFFF8
00000400
00000400
00000400
00000400
00000400
00000400
00000400
00000400
00000400
00000400
ENDCHAR
STARTCHAR 0035
ENCODING 53
SWIDTH 540 0
DWIDTH 27 0
BBX 23 35 2 0
BITMAP
0FFFF8
100000
100000
100000
100000
100000
100000
100000
100000
100000
200000
200000
200000
200000
200000
3FFC00
000380
000060
000018
00000C
000004
000006
000002
000002
000002
000002
000002
000002
000002
000004
800004
400008
300030
0C00E0
01FF00
ENDCHAR
STARTCHAR 0036
ENCODING 54
SWIDTH 580 0
DWIDTH 29 0
BBX 25 35 3 0
BITMAP
003FF000
00C00C00
03000000
04000000
08000000
10000000
30000000
20000000
40000000
40000000
40000000
40000000
80000000
80000000
80000000
80FFC000
83803000
86000C00
88000600
90000200
90000100
A0000100
A0000100
E0000080
60000080
60000080
60000080
20000100
20000100
10000100
18000200
0C000400
06000800
01803000
007FC000
ENDCHAR
STARTCHAR 0037
ENCODING 55
SWIDTH 560 0
DWIDTH 28 0
BBX 24 35 2 0
BITMAP
FFFFFF
800001
800002
800002
800004
800004
800008
800008
000018
000010
000010
000020
000020
000040
000040
000080
000080
000100
000100
000300
000200
000600
000400
000400
000800
000800
001000
001000
002000
002000
006000
004000
00C000
008000
008000
ENDCHAR
STARTCHAR 0038
ENCODING 56
SWIDTH 620 0
DWIDTH 31 0
BBX 25 35 3 0
BITMAP
00FFC000
07007000
08000800
10000400
20000200
20000100
40000100
40000100
40000100
40000100
40000100
60000100
20000200
10000600
08000800
06003000
01FFC000
0380F000
0C000C00
30000600
60000300
40000100
80000080
80000080
80000080
80000080
80000080
80000080
80000080
40000180
40000100
20000200
18000C00
06003800
01FFC000
ENDCHAR
STARTCHAR 0039
ENCODING 57
SWIDTH 580 0
DWIDTH 29 0
BBX 25 35 2 0
BITMAP
01FF0000
0600C000
18002000
30001000
60000800
40000400
80000400
80000200
80000200
80000300
80000300
80000300
80000300
80000500
40000580
40000880
20001880
18003080
0C00C080
03FF0080
00000080
00000100
00000100
00000100
00000100
00000200
00000200
00000200
00000400
00000800
00001800
00003000
00006000
38038000
0FFC0000
ENDCHAR
STARTCHAR 003A
ENCODING 58
SWIDTH 180 0
DWIDTH 9 0
BBX 3 26 3 0
BITMAP
60
E0
40
00
00
00
00
00
00
00
00
00
00
00
00
00
00
00
00
00
00
00
00
00
E0
E0
ENDCHAR
STARTCHAR 003B
ENCODING 59
SWIDTH 180 0
DWIDTH 9 0
BBX 3 33 3 -7
BITMAP
60
E0
40
00
00
00
00
00
00
00
00
00
00
00
00
00
00
00
00
00
00
00
00
00
E0
E0
60
40
40
40
40
80
80
ENDCHAR
STARTCHAR 003C
ENCODING 60
SWIDTH 560 0
DWIDTH 28 0
BBX 20 17 4 9
BITMAP
000030
0001C0
000600
003800
00E000
030000
1C0000
600000
800000
600000
1C0000
030000
00E000
003800
000600
0001C0
000030
ENDCHAR
STARTCHAR 003D
ENCODING 61
SWIDTH 560 0
DWIDTH 28 0
BBX 20 11 4 12
BITMAP
FFFFF0
000000
000000
000000
000000
000000
000000
000000
000000
000000
FFFFF0
ENDCHAR
STARTCHAR 003E
ENCODING 62
SWIDTH 560 0
DWIDTH 28 0
BBX 20 17 4 9
BITMAP
C00000
380000
060000
01C000
007000
000C00
000380
000060
000010
000060
000380
000C00
007000
01C000
060000
380000
C00000
ENDCHAR
STARTCHAR 003F
ENCODING 63
SWIDTH 540 0
DWIDTH 27 0
BBX 22 35 1 0
BITMAP
03FF00
0C00C0
300030
400018
800008
000004
000004
000004
000004
000004
000004
000004
000008
000008
000010
000020
000040
000180
000300
000600
000400
000800
000800
000800
000800
001800
000000
000000
000000
000000
000000
000000
000000
001800
001800
ENDCHAR
STARTCHAR 0040
ENCODING 64
SWIDTH 1020 0
DWIDTH 51 0
BBX 46 45 3 -10
BITMAP
00007FF80000
000380070000
001C0000C000
003000003000
00C000000C00
010000000600
020000000300
040000000180
0C0000000080
18001FC02040
1000E0382020
2001800C2020
200200022010
600400012010
40080000A018
40180000A008
401000006008
801000006008
802000002008
802000002004
802000002004
802000002004
802000002004
802000002004
802000002004
802000002008
801000006008
801000006008
40180000E008
40080000A008
400400012010
200200022010
200100043020
1000C0181040
10003FE00F80
080000000000
0C0000000000
060000000000
030000000000
018000000000
004000000000
003000000000
000C00030000
0003E03C0000
00001FC00000
ENDCHAR
STARTCHAR 0041
ENCODING 65
SWIDTH 680 0
DWIDTH 34 0
BBX 33 35 1 0
BITMAP
0001800000
0001800000
0001400000
0002400000
0002200000
0004200000
0004100000
0008100000
0008080000
0010080000
00100C0000
0030040000
0020060000
0060020000
0040020000
00C0010000
0080010000
0080008000
0100008000
0100004000
0200004000
0200002000
0400002000
07FFFFF000
0800001000
0800001800
1800000800
1000000800
3000000400
2000000400
2000000200
4000000200
4000000100
8000000100
8000000080
ENDCHAR
STARTCHAR 0042
ENCODING 66
SWIDTH 740 0
DWIDTH 37 0
BBX 27 35 7 0
BITMAP
FFFFC000
80003800
80000400
80000200
80000100
80000080
80000080
80000080
80000080
80000080
80000080
80000080
80000180
80000100
80000200
80000C00
80007000
FFFFF800
80000600
80000180
80000080
80000040
80000020
80000020
80000020
80000020
80000020
80000020
80000020
80000040
80000040
80000080
80000100
80000E00
FFFFF000
ENDCHAR
STARTCHAR 0043
ENCODING 67
SWIDTH 700 0
DWIDTH 35 0
BBX 30 35 3 0
BITMAP
0007FE00
003801C0
00C00030
01000018
06000004
0C000000
08000000
10000000
20000000
20000000
40000000
40000000
40000000
80000000
80000000
80000000
80000000
80000000
80000000
80000000
80000000
80000000
40000000
40000000
40000000
20000000
20000000
10000000
08000000
0C000000
06000004
01000018
00C00030
003801C0
0007FE00
ENDCHAR
STARTCHAR 0044
ENCODING 68
SWIDTH 820 0
DWIDTH 41 0
BBX 31 35 7 0
BITMAP
FFFFC000
80003800
80000600
80000180
800000C0
80000060
80000030
80000010
80000008
8000000C
80000004
80000004
80000002
80000002
80000002
80000002
80000002
80000002
80000002
80000002
80000002
80000002
80000002
80000004
80000004
8000000C
80000008
80000010
80000030
80000060
800000C0
80000180
80000600
80003800
FFFFC000
ENDCHAR
STARTCHAR 0045
ENCODING 69
SWIDTH 660 0
DWIDTH 33 0
BBX 23 35 7 0
BITMAP
FFFFFC
800000
800000
800000
800000
800000
800000
800000
800000
800000
800000
800000
800000
800000
800000
800000
800000
FFFFF0
800000
800000
800000
800000
800000
800000
800000
800000
800000
800000
800000
800000
800000
800000
800000
800000
FFFFFE
ENDCHAR
STARTCHAR 0046
ENCODING 70
SWIDTH 620 0
DWIDTH 31 0
BBX 22 35 7 0
BITMAP
FFFFFC
800000
800000
800000
800000
800000
800000
800000
800000
800000
800000
800000
800000
800000
800000
800000
800000
800000
FFFFF0
800000
800000
800000
800000
800000
800000
800000
800000
800000
800000
800000
800000
800000
800000
800000
800000
ENDCHAR
STARTCHAR 0047
ENCODING 71
SWIDTH 760 0
DWIDTH 38 0
BBX 30 35 3 0
BITMAP
0007FE00
003801C0
00C00030
01800008
02000004
04000000
08000000
10000000
20000000
20000000
40000000
40000000
40000000
80000000
80000000
80000000
80000000
80000000
80000004
80000004
80000004
80000004
40000004
40000004
40000004
20000004
20000004
10000004
08000004
0C000004
06000004
01800008
00C00030
003801C0
0007FE00
ENDCHAR
STARTCHAR 0048
ENCODING 72
SWIDTH 800 0
DWIDTH 40 0
BBX 27 35 7 0
BITMAP
80000020
80000020
80000020
80000020
80000020
80000020
80000020
80000020
80000020
80000020
80000020
80000020
80000020
80000020
80000020
80000020
80000020
FFFFFFE0
80000020
80000020
80000020
80000020
80000020
80000020
80000020
80000020
80000020
80000020
80000020
80000020
80000020
80000020
80000020
80000020
80000020
ENDCHAR
STARTCHAR 0049
ENCODING 73
SWIDTH 280 0
DWIDTH 14 0
BBX 1 35 7 0
BITMAP
80
80
80
80
80
80
80
80
80
80
80
80
80
80
80
80
80
80
80
80
80
80
80
80
80
80
80
80
80
80
80
80
80
80
80
ENDCHAR
STARTCHAR 004A
ENCODING 74
SWIDTH 460 0
DWIDTH 23 0
BBX 18 35 0 0
BITMAP
1FFFC0
0000C0
0000C0
0000C0
0000C0
0000C0
0000C0
0000C0
0000C0
0000C0
0000C0
0000C0
0000C0
0000C0
0000C0
0000C0
0000C0
0000C0
0000C0
0000C0
0000C0
0000C0
0000C0
0000C0
0000C0
0000C0
000080
000080
000080
000080
C00180
400100
300300
180400
07F800
ENDCHAR
STARTCHAR 004B
ENCODING 75
SWIDTH 680 0
DWIDTH 34 0
BBX 26 35 7 0
BITMAP
80000080
80000100
80000200
80000400
80000800
80001000
80002000
80004000
80008000
80010000
80030000
80060000
800C0000
80180000
80300000
80600000
80C00000
81A00000
83100000
86080000
8C040000
98020000
B0030000
E0018000
C000C000
80004000
80002000
80001000
80000800
80000400
80000200
80000300
80000180
800000C0
80000040
ENDCHAR
STARTCHAR 004C
ENCODING 76
SWIDTH 580 0
DWIDTH 29 0
BBX 22 35 7 0
BITMAP
800000
800000
800000
800000
800000
800000
800000
800000
800000
800000
800000
800000
800000
800000
800000
800000
800000
800000
800000
800000
800000
800000
800000
800000
800000
800000
800000
800000
800000
800000
800000
800000
800000
800000
FFFFFC
ENDCHAR
STARTCHAR 004D
ENCODING 77
SWIDTH 940 0
DWIDTH 47 0
BBX 34 35 7 0
BITMAP
8000000040
80000000C0
C0000000C0
C000000140
A000000140
9000000240
9000000240
8800000440
8800000C40
8400000840
8600001040
8200001040
8100002040
8100002040
8080004040
808000C040
8040008040
8060010040
8020010040
8010020040
8010020040
8008040040
80080C0040
8004080040
8006100040
8002100040
8001200040
8001200040
8000C00040
8000C00040
8000000040
8000000040
8000000040
8000000040
8000000040
ENDCHAR
STARTCHAR 004E
ENCODING 78
SWIDTH 800 0
DWIDTH 40 0
BBX 27 35 7 0
BITMAP
80000020
C0000020
C0000020
A0000020
90000020
98000020
8C000020
84000020
82000020
81000020
81800020
80800020
80400020
80200020
80300020
80180020
80080020
80040020
80020020
80030020
80010020
80008020
80004020
80006020
80002020
80001020
80000820
80000C20
80000620
80000220
80000120
800000A0
800000E0
80000060
80000020
ENDCHAR
STARTCHAR 004F
ENCODING 79
SWIDTH 820 0
DWIDTH 41 0
BBX 36 35 3 0
BITMAP
0007FE0000
003801C000
00C0003000
0100001800
0600000400
0C00000200
0800000100
1000000080
2000000080
2000000040
4000000060
4000000020
4000000020
8000000020
8000000010
8000000010
8000000010
8000000010
8000000010
8000000010
8000000010
8000000020
4000000020
4000000020
4000000060
2000000040
2000000080
1000000080
0800000100
0C00000200
0600000400
0100001800
00C0003000
003801C000
0007FE0000
ENDCHAR
STARTCHAR 0050
ENCODING 80
SWIDTH 700 0
DWIDTH 35 0
BBX 25 35 7 0
BITMAP
FFFF0000
8000E000
80001800
80000400
80000200
80000100
80000100
80000080
80000080
80000080
80000080
80000080
80000080
80000080
80000080
80000080
80000100
80000100
80000200
80000400
80001800
8000E000
FFFF0000
80000000
80000000
80000000
80000000
80000000
80000000
80000000
80000000
80000000
80000000
80000000
80000000
ENDCHAR
STARTCHAR 0051
ENCODING 81
SWIDTH 820 0
DWIDTH 41 0
BBX 37 41 3 -6
BITMAP
0007FE0000
003801C000
00C0003000
0100001800
0600000400
0C00000200
0800000100
1000000080
2000000080
2000000040
4000000060
4000000020
4000000020
8000000020
8000000010
8000000010
8000000010
8000000010
8000000010
8000000010
8000000010
8000000020
4000000020
4000000020
4000000060
2000000040
2000000080
1000000080
0800000100
0C00000200
0600000400
0100001800
00C0003000
003801C000
0007FE0000
0000100000
0000080000
0000060008
0000030010
000000C060
0000003F80
ENDCHAR
STARTCHAR 0052
ENCODING 82
SWIDTH 700 0
DWIDTH 35 0
BBX 25 35 7 0
BITMAP
FFFF0000
8000E000
80001800
80000400
80000200
80000100
80000100
80000080
80000080
80000080
80000080
80000080
80000080
80000080
80000080
80000080
80000100
80000100
80000200
80000400
80001800
8000E000
FFFF8000
80008000
80004000
80002000
80003000
80001000
80000800
80000400
80000600
80000200
80000100
80000180
80000080
ENDCHAR
STARTCHAR 0053
ENCODING 83
SWIDTH 600 0
DWIDTH 30 0
BBX 24 35 3 0
BITMAP
01FF80
070070
08000C
100000
200000
200000
400000
400000
400000
400000
400000
400000
200000
300000
180000
060000
01C000
003C00
0003C0
000030
000008
000006
000002
000001
000001
000001
000001
000001
000001
000003
C00002
600004
180008
0E0070
01FFC0
ENDCHAR
STARTCHAR 0054
ENCODING 84
SWIDTH 540 0
DWIDTH 27 0
BBX 27 35 0 0
BITMAP
FFFFFFE0
00040000
00040000
00040000
00040000
00040000
00040000
00040000
00040000
00040000
00040000
00040000
00040000
00040000
00040000
00040000
00040000
00040000
00040000
00040000
00040000
00040000
00040000
00040000
00040000
00040000
00040000
00040000
00040000
00040000
00040000
00040000
00040000
00040000
00040000
ENDCHAR
STARTCHAR 0055
ENCODING 85
SWIDTH 780 0
DWIDTH 39 0
BBX 27 35 6 0
BITMAP
80000020
80000020
80000020
80000020
80000020
80000020
80000020
80000020
80000020
80000020
80000020
80000020
80000020
80000020
80000020
80000020
80000020
80000020
80000020
80000020
80000020
80000020
80000020
40000020
40000020
40000020
40000060
60000040
20000040
30000080
10000180
08000300
06000600
01801800
007FE000
ENDCHAR
STARTCHAR 0056
ENCODING 86
SWIDTH 660 0
DWIDTH 33 0
BBX 32 35 1 0
BITMAP
80000001
80000002
40000002
40000004
20000004
2000000C
30000008
10000018
10000010
08000010
08000020
04000020
04000040
02000040
02000080
03000080
01000180
01800100
00800100
00800200
00400200
00400400
00200400
00200800
00100800
00101800
00181000
00083000
00082000
00042000
00044000
00024000
00028000
00018000
00010000
ENDCHAR
STARTCHAR 0057
ENCODING 87
SWIDTH 1080 0
DWIDTH 54 0
BBX 50 35 2 0
BITMAP
C00000C0000040
400000C0000080
400000C0000080
60000120000180
20000120000100
20000120000100
30000210000300
10000210000200
10000210000200
08000408000600
08000408000400
08000804000400
04000804000800
04000804000800
04001002000800
02001002001000
02001002001000
02002001001000
01002001002000
01002001002000
01004000802000
00804000804000
00804000804000
00808000404000
00408000408000
00408000408000
00410000208000
00210000210000
00230000310000
00220000110000
00120000120000
001400000A0000
001400000A0000
000C00000C0000
00080000040000
ENDCHAR
STARTCHAR 0058
ENCODING 88
SWIDTH 620 0
DWIDTH 31 0
BBX 27 35 2 0
BITMAP
40000040
600000C0
20000080
10000100
08000200
0C000600
04000400
02000800
01001000
01803000
00802000
00404000
00208000
00308000
00110000
000A0000
00040000
000E0000
000A0000
00110000
00208000
0060C000
00404000
00802000
01001000
03001800
02000800
04000400
08000200
18000300
10000100
20000080
40000040
C0000060
80000020
ENDCHAR
STARTCHAR 0059
ENCODING 89
SWIDTH 600 0
DWIDTH 30 0
BBX 29 35 1 0
BITMAP
80000008
C0000010
40000020
20000020
20000040
100000C0
08000080
08000100
04000100
06000200
02000600
01000400
01000800
00801800
00C01000
00402000
00202000
00204000
0010C000
00088000
00090000
00050000
00060000
00020000
00020000
00020000
00020000
00020000
00020000
00020000
00020000
00020000
00020000
00020000
00020000
ENDCHAR
STARTCHAR 005A
ENCODING 90
SWIDTH 620 0
DWIDTH 31 0
BBX 28 35 2 0
BITMAP
7FFFFFF0
00000020
00000040
00000080
00000180
00000100
00000200
00000400
00000C00
00001800
00001000
00002000
00004000
0000C000
00008000
00010000
00020000
00060000
00040000
00080000
00100000
00300000
00200000
00400000
00800000
01800000
03000000
02000000
04000000
08000000
18000000
10000000
20000000
40000000
FFFFFFF0
ENDCHAR
STARTCHAR 005B
ENCODING 91
SWIDTH 280 0
DWIDTH 14 0
BBX 6 47 7 -10
BITMAP
FC
80
80
80
80
80
80
80
80
80
80
80
80
80
80
80
80
80
80
80
80
80
80
80
80
80
80
80
80
80
80
80
80
80
80
80
80
80
80
80
80
80
80
80
80
80
FC
ENDCHAR
STARTCHAR 005C
ENCODING 92
SWIDTH 300 0
DWIDTH 15 0
BBX 17 47 -1 -5
BITMAP
800000
800000
800000
400000
400000
400000
200000
200000
100000
100000
100000
080000
080000
080000
040000
040000
040000
020000
020000
020000
010000
010000
010000
008000
008000
008000
004000
004000
002000
002000
002000
001000
001000
001000
000800
000800
000800
000400
000400
000400
000200
000200
000200
000100
000100
000100
000080
ENDCHAR
STARTCHAR 005D
ENCODING 93
SWIDTH 280 0
DWIDTH 14 0
BBX 7 47 1 -10
BITMAP
FE
02
02
02
02
02
02
02
02
02
02
02
02
02
02
02
02
02
02
02
02
02
02
02
02
02
02
02
02
02
02
02
02
02
02
02
02
02
02
02
02
02
02
02
02
02
FE
ENDCHAR
STARTCHAR 005E
ENCODING 94
SWIDTH 560 0
DWIDTH 28 0
BBX 18 21 5 7
BITMAP
00C000
00C000
00E000
012000
012000
021000
021000
060800
040800
040800
080400
080400
100200
100200
100300
200100
200100
400080
400080
C00040
800040
ENDCHAR
STARTCHAR 005F
ENCODING 95
SWIDTH 500 0
DWIDTH 25 0
BBX 25 1 0 -1
BITMAP
FFFFFF80
ENDCHAR
STARTCHAR 0060
ENCODING 96
SWIDTH 600 0
DWIDTH 30 0
BBX 8 6 9 30
BITMAP
C0
60
30
0C
06
01
ENDCHAR
STARTCHAR 0061
ENCODING 97
SWIDTH 560 0
DWIDTH 28 0
BBX 20 26 3 0
BITMAP
01FE00
0E0180
180040
600020
000020
000010
000010
000010
000010
000010
000010
000010
07FFF0
180010
200010
400010
400010
800010
800010
800010
800030
400030
400050
200090
180310
07FC10
ENDCHAR
STARTCHAR 0062
ENCODING 98
SWIDTH 660 0
DWIDTH 33 0
BBX 25 37 6 0
BITMAP
80000000
80000000
80000000
80000000
80000000
80000000
80000000
80000000
80000000
80000000
80000000
807F0000
8380C000
84003000
88000800
90000400
A0000200
C0000200
C0000100
80000100
80000100
80000080
80000080
80000080
80000080
80000080
80000080
80000100
80000100
C0000100
C0000200
A0000200
90000400
98000800
84003000
8300E000
80FF0000
ENDCHAR
STARTCHAR 0063
ENCODING 99
SWIDTH 540 0
DWIDTH 27 0
BBX 21 26 3 0
BITMAP
007F00
0380E0
040030
180008
100000
200000
400000
400000
800000
800000
800000
800000
800000
800000
800000
800000
800000
800000
400000
400000
200000
300000
180008
0C0010
0300E0
00FF80
ENDCHAR
STARTCHAR 0064
ENCODING 100
SWIDTH 660 0
DWIDTH 33 0
BBX 25 37 3 0
BITMAP
00000080
00000080
00000080
00000080
00000080
00000080
00000080
00000080
00000080
00000080
00000080
007F0080
0380C080
04003080
18000880
10000480
20000680
40000280
40000180
80000180
80000180
80000080
80000080
80000080
80000080
80000080
80000080
80000180
80000180
40000180
40000280
20000280
30000480
18000880
0C003080
0300E080
00FF0080
ENDCHAR
STARTCHAR 0065
ENCODING 101
SWIDTH 580 0
DWIDTH 29 0
BBX 24 26 3 0
BITMAP
00FE00
0301C0
0C0060
180010
300008
20000C
400004
400002
800002
800002
800002
800001
FFFFFF
800000
800000
800000
800000
800000
400000
400000
200000
300004
18000C
0C0010
030060
00FF80
ENDCHAR
STARTCHAR 0066
ENCODING 102
SWIDTH 300 0
DWIDTH 15 0
BBX 16 37 1 0
BITMAP
00FE
0101
0200
0200
0400
0400
0400
0400
0400
0400
0400
FFFE
0400
0400
0400
0400
0400
0400
0400
0400
0400
0400
0400
0400
0400
0400
0400
0400
0400
0400
0400
0400
0400
0400
0400
0400
0400
ENDCHAR
STARTCHAR 0067
ENCODING 103
SWIDTH 660 0
DWIDTH 33 0
BBX 25 36 3 -10
BITMAP
007F0080
0380E080
04003080
18000880
30000480
20000280
40000180
40000180
80000180
80000080
80000080
80000080
80000080
80000080
80000080
80000080
80000180
40000180
40000180
20000280
30000480
18000880
0C001080
03006080
00FF8080
00000080
00000080
00000080
00000180
00000100
00000100
20000200
10000400
0C000800
03807000
007F8000
ENDCHAR
STARTCHAR 0068
ENCODING 104
SWIDTH 660 0
DWIDTH 33 0
BBX 22 37 6 0
BITMAP
800000
800000
800000
800000
800000
800000
800000
800000
800000
800000
800000
80FE00
8701C0
8C0060
900010
A00010
C00008
C00008
800004
800004
800004
800004
800004
800004
800004
800004
800004
800004
800004
800004
800004
800004
800004
800004
800004
800004
800004
ENDCHAR
STARTCHAR 0069
ENCODING 105
SWIDTH 240 0
DWIDTH 12 0
BBX 3 35 5 1
BITMAP
E0
C0
00
00
00
00
00
00
00
40
40
40
40
40
40
40
40
40
40
40
40
40
40
40
40
40
40
40
40
40
40
40
40
40
40
ENDCHAR
STARTCHAR 006A
ENCODING 106
SWIDTH 240 0
DWIDTH 12 0
BBX 12 46 -4 -10
BITMAP
0020
0070
0030
0000
0000
0000
0000
0000
0000
0000
0020
0020
0020
0020
0020
0020
0020
0020
0020
0020
0020
0020
0020
0020
0020
0020
0020
0020
0020
0020
0020
0020
0020
0020
0020
0020
0020
0020
0020
0020
0020
0020
0040
8040
C180
1E00
ENDCHAR
STARTCHAR 006B
ENCODING 107
SWIDTH 560 0
DWIDTH 28 0
BBX 21 37 6 0
BITMAP
800000
800000
800000
800000
800000
800000
800000
800000
800000
800000
800000
800010
800020
8000C0
800180
800300
800600
800C00
801000
802000
804000
808000
814000
862000
8C3000
981000
B00800
C00400
800200
800300
800100
800080
800040
800060
800030
800010
800008
ENDCHAR
STARTCHAR 006C
ENCODING 108
SWIDTH 240 0
DWIDTH 12 0
BBX 1 37 6 0
BITMAP
80
80
80
80
80
80
80
80
80
80
80
80
80
80
80
80
80
80
80
80
80
80
80
80
80
80
80
80
80
80
80
80
80
80
80
80
80
ENDCHAR
STARTCHAR 006D
ENCODING 109
SWIDTH 1060 0
DWIDTH 53 0
BBX 42 26 6 0
BITMAP
80FE000FE000
870180301C00
880040C00600
900021800100
A00011000180
C00012000080
C0000C000080
80000C000040
80000C000040
80000C000040
800008000040
800008000040
800008000040
800008000040
800008000040
800008000040
800008000040
800008000040
800008000040
800008000040
800008000040
800008000040
800008000040
800008000040
800008000040
800008000040
ENDCHAR
STARTCHAR 006E
ENCODING 110
SWIDTH 660 0
DWIDTH 33 0
BBX 22 26 6 0
BITMAP
80FE00
8701C0
8C0060
900010
A00010
C00008
C00008
800004
800004
800004
800004
800004
800004
800004
800004
800004
800004
800004
800004
800004
800004
800004
800004
800004
800004
800004
ENDCHAR
STARTCHAR 006F
ENCODING 111
SWIDTH 600 0
DWIDTH 30 0
BBX 25 26 3 0
BITMAP
007F0000
0380C000
04003000
18000800
10000400
20000600
40000200
40000100
80000100
80000100
80000080
80000080
80000080
80000080
80000080
80000080
80000100
80000100
40000100
40000200
20000200
30000400
18000800
0C003000
0300E000
00FF8000
ENDCHAR
STARTCHAR 0070
ENCODING 112
SWIDTH 660 0
DWIDTH 33 0
BBX 25 36 6 -10
BITMAP
807F0000
8380C000
84003000
88000800
90000400
A0000200
C0000200
C0000100
C0000100
80000100
80000080
80000080
80000080
80000080
80000080
80000080
80000100
80000100
C0000100
C0000200
A0000200
90000400
98000800
84001000
8300E000
80FF0000
80000000
80000000
80000000
80000000
80000000
80000000
80000000
80000000
80000000
80000000
ENDCHAR
STARTCHAR 0071
ENCODING 113
SWIDTH 660 0
DWIDTH 33 0
BBX 25 36 3 -10
BITMAP
007F0080
0380C080
04003080
18000880
10000480
20000680
40000280
40000180
80000180
80000180
80000080
80000080
80000080
80000080
80000080
80000080
80000180
80000180
40000180
40000280
20000280
30000480
18000880
0C003080
0300E080
00FF0080
00000080
00000080
00000080
00000080
00000080
00000080
00000080
00000080
00000080
00000080
ENDCHAR
STARTCHAR 0072
ENCODING 114
SWIDTH 380 0
DWIDTH 19 0
BBX 11 26 6 0
BITMAP
81E0
8600
8800
9000
A000
C000
C000
8000
8000
8000
8000
8000
8000
8000
8000
8000
8000
8000
8000
8000
8000
8000
8000
8000
8000
8000
ENDCHAR
STARTCHAR 0073
ENCODING 115
SWIDTH 460 0
DWIDTH 23 0
BBX 19 26 2 0
BITMAP
03FC00
0C0300
3000C0
600000
400000
400000
400000
400000
400000
400000
300000
180000
078000
007C00
000300
0000C0
000060
000020
000020
000020
000020
000020
800060
6000C0
380180
07FC00
ENDCHAR
STARTCHAR 0074
ENCODING 116
SWIDTH 380 0
DWIDTH 19 0
BBX 16 32 1 0
BITMAP
0400
0400
0400
0400
0400
0400
FFFE
0400
0400
0400
0400
0400
0400
0400
0400
0400
0400
0400
0400
0400
0400
0400
0400
0400
0400
0400
0400
0400
0200
0200
0183
00FE
ENDCHAR
STARTCHAR 0075
ENCODING 117
SWIDTH 660 0
DWIDTH 33 0
BBX 22 26 5 0
BITMAP
800004
800004
800004
800004
800004
800004
800004
800004
800004
800004
800004
800004
800004
800004
800004
800004
800004
400004
400004
40000C
40000C
200014
300034
180064
060184
01FE04
ENDCHAR
STARTCHAR 0076
ENCODING 118
SWIDTH 500 0
DWIDTH 25 0
BBX 25 26 0 0
BITMAP
C0000080
40000100
60000100
20000300
20000200
10000600
10000400
08000400
08000800
04000800
04001000
02001000
02002000
03002000
01006000
01004000
0080C000
00808000
00408000
00410000
00210000
00220000
00120000
00140000
000C0000
00080000
ENDCHAR
STARTCHAR 0077
ENCODING 119
SWIDTH 820 0
DWIDTH 41 0
BBX 40 26 1 0
BITMAP
8000180001
8000180001
8000180002
4000240002
4000240002
2000440004
2000420004
2000420008
1000810008
1000810008
0801010010
0801008010
0801008010
0402004020
0402004020
0402004040
0204002040
0204002040
0108002080
0108001080
0108001100
0090000900
0090000900
00A0000A00
0060000600
0060000600
ENDCHAR
STARTCHAR 0078
ENCODING 120
SWIDTH 480 0
DWIDTH 24 0
BBX 21 26 2 0
BITMAP
C00010
400030
200020
100040
180080
080180
040100
020200
010400
018800
009800
005000
002000
005000
00D800
008800
010400
020200
040300
0C0100
080080
100040
200060
600030
400010
800008
ENDCHAR
STARTCHAR 0079
ENCODING 121
SWIDTH 500 0
DWIDTH 25 0
BBX 27 36 -2 -10
BITMAP
30000020
10000040
18000040
080000C0
08000080
04000180
04000100
02000100
02000200
01000200
01000400
00800400
00800800
00C00800
00401800
00401000
00203000
00202000
00102000
00104000
00084000
00088000
00048000
00050000
00030000
00020000
00020000
00060000
00040000
000C0000
00080000
00180000
00100000
C0200000
70C00000
0F000000
ENDCHAR
STARTCHAR 007A
ENCODING 122
SWIDTH 480 0
DWIDTH 24 0
BBX 20 26 2 0
BITMAP
7FFFF0
000020
000060
000040
000080
000100
000300
000200
000400
000800
001800
001000
002000
004000
00C000
008000
010000
020000
060000
040000
080000
100000
300000
200000
400000
FFFFF0
ENDCHAR
STARTCHAR 007B
ENCODING 123
SWIDTH 300 0
DWIDTH 15 0
BBX 11 47 3 -10
BITMAP
01E0
0600
0400
0800
0800
0800
0800
0800
0800
0800
0800
0800
0800
0800
0800
0800
0800
0800
0800
0800
0800
0800
1800
F000
0800
0800
0800
0800
0800
0800
0800
0800
0800
0800
0800
0800
0800
0800
0800
0800
0800
0800
0800
0C00
0400
0300
00E0
ENDCHAR
STARTCHAR 007C
ENCODING 124
SWIDTH 280 0
DWIDTH 14 0
BBX 1 47 7 -10
BITMAP
80
80
80
80
80
80
80
80
80
80
80
80
80
80
80
80
80
80
80
80
80
80
80
80
80
80
80
80
80
80
80
80
80
80
80
80
80
80
80
80
80
80
80
80
80
80
80
ENDCHAR
STARTCHAR 007D
ENCODING 125
SWIDTH 300 0
DWIDTH 15 0
BBX 11 47 1 -10
BITMAP
F800
0C00
0400
0200
0200
0200
0200
0200
0200
0200
0200
0200
0200
0200
0200
0200
0200
0200
0200
0200
0200
0200
0300
01E0
0200
0200
0200
0200
0200
0200
0200
0200
0200
0200
0200
0200
0200
0200
0200
0200
0200
0200
0200
0600
0400
1800
E000
ENDCHAR
STARTCHAR 007E
ENCODING 126
SWIDTH 560 0
DWIDTH 28 0
BBX 22 7 3 14
BITMAP
0F0004
108008
206008
403008
401810
800C20
800380
ENDCHAR
STARTCHAR 00A0
ENCODING 160
SWIDTH 240 0
DWIDTH 12 0
BBX 0 0 0 0
BITMAP
ENDCHAR
STARTCHAR 00A1
ENCODING 161
SWIDTH 240 0
DWIDTH 12 0
BBX 2 34 5 -8
BITMAP
C0
C0
00
00
00
00
00
00
00
00
80
80
80
80
80
80
80
80
80
80
80
80
80
40
40
40
40
40
40
40
40
40
C0
C0
ENDCHAR
STARTCHAR 00A2
ENCODING 162
SWIDTH 540 0
DWIDTH 27 0
BBX 21 38 3 -6
BITMAP
000800
000800
000800
000800
000800
000800
007F00
0388E0
040830
180808
100800
200800
400800
400800
800800
800800
800800
800800
800800
800800
800800
800800
800800
800800
400800
400800
200800
300800
180808
0C0810
0308E0
00FF80
000800
000800
000800
000800
000800
000800
ENDCHAR
STARTCHAR 00A3
ENCODING 163
SWIDTH 600 0
DWIDTH 30 0
BBX 29 35 1 0
BITMAP
0003FF00
001C00E0
00200030
00400008
00800000
00800000
01000000
01000000
01000000
01000000
03000000
03000000
03000000
03000000
03000000
03000000
03000000
FFFFFC00
03000000
03000000
03000000
03000000
03000000
03000000
03000000
03000000
03000000
03000000
03000000
03000000
03000000
03000000
03000000
03000000
FFFFFFF8
ENDCHAR
STARTCHAR 00A4
ENCODING 164
SWIDTH 700 0
DWIDTH 35 0
BBX 31 31 2 0
BITMAP
C0000006
6000000C
303FF818
18E00E30
0D800360
060000C0
04000040
08000020
10000010
10000010
20000008
20000008
20000008
20000004
20000004
60000004
20000004
20000008
20000008
20000008
10000018
10000010
08000020
0C000060
060000C0
0F0001E0
18C00630
303C7818
6007C00C
C0000006
80000002
ENDCHAR
STARTCHAR 00A5
ENCODING 165
SWIDTH 660 0
DWIDTH 33 0
BBX 32 35 1 0
BITMAP
80000003
40000002
60000004
20000008
10000018
08000010
04000020
06000040
02000080
01000180
00800100
00C00200
00400400
00200C00
00101800
00081000
000C2000
00044000
0002C000
1FFFFFF0
00010000
00010000
00010000
00010000
00010000
00010000
1FFFFFF0
00010000
00010000
00010000
00010000
00010000
00010000
00010000
00010000
ENDCHAR
STARTCHAR 00A6
ENCODING 166
SWIDTH 280 0
DWIDTH 14 0
BBX 1 47 7 -10
BITMAP
80
80
80
80
80
80
80
80
80
80
80
80
80
80
80
80
80
00
00
00
00
00
00
00
00
00
00
00
00
80
80
80
80
80
80
80
80
80
80
80
80
80
80
80
80
80
80
ENDCHAR
STARTCHAR 00A7
ENCODING 167
SWIDTH 460 0
DWIDTH 23 0
BBX 20 40 2 -5
BITMAP
03FF00
0C00C0
100030
300000
200000
200000
600000
200000
200000
200000
100000
180000
070000
0CE000
301E00
600380
4000C0
800060
800020
800020
800020
400020
400020
200020
180040
0700C0
00F300
000E00
000100
000080
000040
000040
000040
000040
000040
000040
800080
600180
380300
07FC00
ENDCHAR
STARTCHAR 00A8
ENCODING 168
SWIDTH 600 0
DWIDTH 30 0
BBX 10 3 10 32
BITMAP
4000
C0C0
C0C0
ENDCHAR
STARTCHAR 00A9
ENCODING 169
SWIDTH 820 0
DWIDTH 41 0
BBX 35 35 3 0
BITMAP
0007FE0000
0038018000
00C0006000
0100001800
0200000C00
0400000600
0800000300
1003F80100
200C060080
2018018080
4020008040
4060000040
4040000020
8080000020
8080000020
8080000020
8080000020
8080000020
8080000020
8080000020
8080000020
8080000020
4040000020
4040000040
4020008040
2018018080
200C070080
1003F80100
0800000200
0C00000600
0600000C00
0100001000
00C0006000
0038038000
0007FC0000
ENDCHAR
STARTCHAR 00AA
ENCODING 170
SWIDTH 380 0
DWIDTH 19 0
BBX 14 15 2 22
BITMAP
0FE0
3010
4008
0008
0004
0004
0004
1FFC
6004
4004
8004
800C
4014
6034
3FC4
ENDCHAR
STARTCHAR 00AB
ENCODING 171
SWIDTH 420 0
DWIDTH 21 0
BBX 15 18 3 4
BITMAP
0102
0206
0404
0808
0810
1020
2060
4040
C080
8080
4040
2060
1020
1810
0808
0404
0206
0102
ENDCHAR
STARTCHAR 00AC
ENCODING 172
SWIDTH 560 0
DWIDTH 28 0
BBX 20 10 4 8
BITMAP
FFFFF0
000010
000010
000010
000010
000010
000010
000010
000010
000010
ENDCHAR
STARTCHAR 00AD
ENCODING 173
SWIDTH 380 0
DWIDTH 19 0
BBX 13 1 3 13
BITMAP
FFF8
ENDCHAR
STARTCHAR 00AE
ENCODING 174
SWIDTH 820 0
DWIDTH 41 0
BBX 35 35 3 0
BITMAP
0007FE0000
0038018000
00C0006000
0100001800
0200000C00
0400000600
0800000300
101FFC0100
2010030080
2010018080
401000C040
4010004040
4010004020
8010004020
8010004020
8010004020
8010004020
8010008020
8010010020
801FFE0020
80100C0020
8010040020
4010020020
4010020040
4010010040
2010008080
2010008080
1010004100
0800000200
0C00000600
0600000C00
0100001000
00C0006000
0038038000
0007FC0000
ENDCHAR
STARTCHAR 00AF
ENCODING 175
SWIDTH 600 0
DWIDTH 30 0
BBX 14 1 8 33
BITMAP
FFFC
ENDCHAR
STARTCHAR 00B0
ENCODING 176
SWIDTH 420 0
DWIDTH 21 0
BBX 15 15 3 20
BITMAP
0FE0
1010
2008
4004
4004
8002
8002
8002
8002
8002
4004
4004
2008
1830
07C0
ENDCHAR
STARTCHAR 00B1
ENCODING 177
SWIDTH 560 0
DWIDTH 28 0
BBX 20 28 4 0
BITMAP
006000
006000
006000
006000
006000
006000
006000
006000
006000
006000
FFFFF0
006000
006000
006000
006000
006000
006000
006000
006000
006000
006000
000000
000000
000000
000000
000000
000000
FFFFF0
ENDCHAR
STARTCHAR 00B2
ENCODING 178
SWIDTH 420 0
DWIDTH 21 0
BBX 16 21 2 16
BITMAP
1FF0
600C
8004
0002
0002
0002
0002
0002
0004
0008
0010
0020
0040
0080
0100
0200
0C00
1800
3000
4000
7FFF
ENDCHAR
STARTCHAR 00B3
ENCODING 179
SWIDTH 420 0
DWIDTH 21 0
BBX 16 21 2 16
BITMAP
FFFE
0004
000C
0008
0010
0020
0040
0080
0100
03F0
000C
0002
0003
0001
0001
0001
0001
8002
4006
3818
07E0
ENDCHAR
STARTCHAR 00B4
ENCODING 180
SWIDTH 600 0
DWIDTH 30 0
BBX 8 6 13 30
BITMAP
03
06
0C
30
60
80
ENDCHAR
STARTCHAR 00B5
ENCODING 181
SWIDTH 660 0
DWIDTH 33 0
BBX 22 36 6 -10
BITMAP
800004
800004
800004
800004
800004
800004
800004
800004
800004
800004
800004
800004
800004
800004
800004
800004
800004
80000C
80000C
80000C
C00014
C00014
A00024
9000C4
8C0384
83FC04
800000
800000
800000
800000
800000
800000
800000
800000
800000
800000
ENDCHAR
STARTCHAR 00B6
ENCODING 182
SWIDTH 600 0
DWIDTH 30 0
BBX 22 42 1 -5
BITMAP
03FFFC
0FE004
3FE004
3FE004
7FE004
7FE004
FFE004
FFE004
FFE004
FFE004
7FE004
7FE004
3FE004
1FE004
0FE004
03E004
002004
002004
002004
002004
002004
002004
002004
002004
002004
002004
002004
002004
002004
002004
002004
002004
002004
002004
002004
002004
002004
002004
002004
002004
002004
002004
ENDCHAR
STARTCHAR 00B7
ENCODING 183
SWIDTH 220 0
DWIDTH 11 0
BBX 3 2 4 13
BITMAP
E0
60
ENDCHAR
STARTCHAR 00B8
ENCODING 184
SWIDTH 600 0
DWIDTH 30 0
BBX 8 11 11 -11
BITMAP
10
10
10
3C
02
03
01
01
02
C6
30
ENDCHAR
STARTCHAR 00B9
ENCODING 185
SWIDTH 420 0
DWIDTH 21 0
BBX 14 21 4 16
BITMAP
7F00
0100
0100
0100
0100
0100
0100
0100
0100
0100
0100
0100
0100
0100
0100
0100
0100
0100
0100
0100
FFFC
ENDCHAR
STARTCHAR 00BA
ENCODING 186
SWIDTH 400 0
DWIDTH 20 0
BBX 16 15 2 22
BITMAP
07F0
1808
2004
4002
4001
8001
8001
8001
8001
8001
C001
4002
2006
100C
0FF0
ENDCHAR
STARTCHAR 00BB
ENCODING 187
SWIDTH 420 0
DWIDTH 21 0
BBX 15 18 3 4
BITMAP
8100
4080
6040
2020
1030
0810
0408
0604
0202
0202
0604
0408
0818
1010
2020
6040
4080
8180
ENDCHAR
STARTCHAR 00BC
ENCODING 188
SWIDTH 1020 0
DWIDTH 51 0
BBX 45 35 4 0
BITMAP
7F0000004000
010000008000
010000010000
010000010000
010000020000
010000040000
0100000C0000
010000080000
010000100000
010000300000
010000200000
010000400000
010000800000
010000800000
010001000200
010002000400
010002000C00
010004000800
010008001000
010008002000
FFFC10004000
000020004000
000020008000
000040010100
000080020100
000180060100
000100040100
000200080100
0006001FFFF8
000400000100
000800000100
001000000100
001000000100
002000000100
004000000100
ENDCHAR
STARTCHAR 00BD
ENCODING 189
SWIDTH 1020 0
DWIDTH 51 0
BBX 44 35 4 0
BITMAP
7F0000004000
010000008000
010000010000
010000010000
010000020000
010000040000
0100000C0000
010000080000
010000100000
010000300000
010000200000
010000400000
010000800000
010000800000
01000100FC00
010002070380
0100020800C0
010004000040
010008000020
010008000020
FFFC10000020
000020000040
000020000040
000040000080
000080000100
000180000200
000100000400
000200000800
000600001000
000400006000
00080000C000
001000018000
001000020000
002000040000
0040000FFFF0
ENDCHAR
STARTCHAR 00BE
ENCODING 190
SWIDTH 1020 0
DWIDTH 51 0
BBX 47 35 2 0
BITMAP
FFFE00001000
000600002000
000C00004000
000800004000
001000008000
002000010000
004000030000
008000020000
010000040000
03E0000C0000
001C00080000
000600100000
000200200000
000100200000
000100400080
000100800100
000100800300
800201000200
C00602000400
300C02000800
0FF004001000
000008001000
000008002000
000010004040
000020008040
000060018040
000040010040
000080020040
00018007FFFE
000100000040
000200000040
000400000040
000400000040
000800000040
001000000040
ENDCHAR
STARTCHAR 00BF
ENCODING 191
SWIDTH 540 0
DWIDTH 27 0
BBX 23 34 4 -8
BITMAP
003000
007000
002000
000000
000000
000000
000000
000000
000000
000000
002000
002000
002000
004000
00C000
008000
010000
060000
0C0000
180000
300000
200000
400000
400000
400000
800000
800000
400000
400000
600006
300008
180030
0701C0
00FE00
ENDCHAR
STARTCHAR 00C0
ENCODING 192
SWIDTH 680 0
DWIDTH 34 0
BBX 33 43 1 0
BITMAP
0038000000
000C000000
0006000000
0001000000
0000C00000
0000000000
0000000000
0000000000
0001800000
0001800000
0001400000
0002400000
0002200000
0004200000
0004100000
0008100000
0008080000
0010080000
00100C0000
0030040000
0020060000
0060020000
0040020000
00C0010000
0080010000
0080008000
0100008000
0100004000
0200004000
0200002000
0400002000
07FFFFF000
0800001000
0800001800
1800000800
1000000800
3000000400
2000000400
2000000200
4000000200
4000000100
8000000100
8000000080
ENDCHAR
STARTCHAR 00C1
ENCODING 193
SWIDTH 680 0
DWIDTH 34 0
BBX 33 43 1 0
BITMAP
00000C0000
0000100000
0000600000
0000C00000
0001000000
0000000000
0000000000
0000000000
0001800000
0001800000
0001400000
0002400000
0002200000
0004200000
0004100000
0008100000
0008080000
0010080000
00100C0000
0030040000
0020060000
0060020000
0040020000
00C0010000
0080010000
0080008000
0100008000
0100004000
0200004000
0200002000
0400002000
07FFFFF000
0800001000
0800001800
1800000800
1000000800
3000000400
2000000400
2000000200
4000000200
4000000100
8000000100
8000000080
ENDCHAR
STARTCHAR 00C2
ENCODING 194
SWIDTH 680 0
DWIDTH 34 0
BBX 33 43 1 0
BITMAP
0003C00000
0006600000
000C100000
0018080000
0020040000
0000020000
0000000000
0000000000
0001800000
0001800000
0001400000
0002400000
0002200000
0004200000
0004100000
0008100000
0008080000
0010080000
00100C0000
0030040000
0020060000
0060020000
0040020000
00C0010000
0080010000
0080008000
0100008000
0100004000
0200004000
0200002000
0400002000
07FFFFF000
0800001000
0800001800
1800000800
1000000800
3000000400
2000000400
2000000200
4000000200
4000000100
8000000100
8000000080
ENDCHAR
STARTCHAR 00C3
ENCODING 195
SWIDTH 680 0
DWIDTH 34 0
BBX 33 43 1 0
BITMAP
000E020000
0033020000
0020860000
00406C0000
0000100000
0000000000
0000000000
0000000000
0001800000
0001800000
0001400000
0002400000
0002200000
0004200000
0004100000
0008100000
0008080000
0010080000
00100C0000
0030040000
0020060000
0060020000
0040020000
00C0010000
0080010000
0080008000
0100008000
0100004000
0200004000
0200002000
0400002000
07FFFFF000
0800001000
0800001800
1800000800
1000000800
3000000400
2000000400
2000000200
4000000200
4000000100
8000000100
8000000080
ENDCHAR
STARTCHAR 00C4
ENCODING 196
SWIDTH 680 0
DWIDTH 34 0
BBX 33 42 1 0
BITMAP
0018180000
00181C0000
0000000000
0000000000
0000000000
0000000000
0000000000
0001800000
0001800000
0001400000
0002400000
0002200000
0004200000
0004100000
0008100000
0008080000
0010080000
00100C0000
0030040000
0020060000
0060020000
0040020000
00C0010000
0080010000
0080008000
0100008000
0100004000
0200004000
0200002000
0400002000
07FFFFF000
0800001000
0800001800
1800000800
1000000800
3000000400
2000000400
2000000200
4000000200
4000000100
8000000100
8000000080
ENDCHAR
STARTCHAR 00C5
ENCODING 197
SWIDTH 680 0
DWIDTH 34 0
BBX 33 48 1 0
BITMAP
0003E00000
0004300000
0008100000
0008080000
0008080000
0008080000
0008100000
0004300000
0003C00000
0000000000
0000000000
0000000000
0000000000
0001800000
0001800000
0001400000
0002400000
0002200000
0004200000
0004100000
0008100000
0008080000
0010080000
00100C0000
0030040000
0020060000
0060020000
0040020000
00C0010000
0080010000
0080008000
0100008000
0100004000
0200004000
0200002000
0400002000
07FFFFF000
0800001000
0800001800
1800000800
1000000800
3000000400
2000000400
2000000200
4000000200
4000000100
8000000100
8000000080
ENDCHAR
STARTCHAR 00C6
ENCODING 198
SWIDTH 1000 0
DWIDTH 50 0
BBX 46 35 1 0
BITMAP
000007FFFFF8
000007000000
00000B000000
00001B000000
000013000000
000023000000
000023000000
000043000000
000083000000
000083000000
000103000000
000303000000
000203000000
000403000000
000C03000000
000803000000
001003000000
001003FFFFE0
002003000000
004003000000
004003000000
008003000000
018003000000
01FFFF000000
020003000000
060003000000
040003000000
080003000000
080003000000
100003000000
200003000000
200003000000
400003000000
C00003000000
800003FFFFFC
ENDCHAR
STARTCHAR 00C7
ENCODING 199
SWIDTH 700 0
DWIDTH 35 0
BBX 30 46 3 -11
BITMAP
0007FE00
003801C0
00C00030
01000018
06000004
0C000000
08000000
10000000
20000000
20000000
40000000
40000000
40000000
80000000
80000000
80000000
80000000
80000000
80000000
80000000
80000000
80000000
40000000
40000000
40000000
20000000
20000000
10000000
08000000
0C000000
06000004
01000018
00C00030
003801C0
0007FE00
00004000
00008000
00008000
0000E000
00001800
00000800
00000800
00000800
00000800
00063000
0000C000
ENDCHAR
STARTCHAR 00C8
ENCODING 200
SWIDTH 660 0
DWIDTH 33 0
BBX 23 43 7 0
BITMAP
060000
018000
00C000
006000
001000
000800
000000
000000
FFFFFC
800000
800000
800000
800000
800000
800000
800000
800000
800000
800000
800000
800000
800000
800000
800000
800000
FFFFF0
800000
800000
800000
800000
800000
800000
800000
800000
800000
800000
800000
800000
800000
800000
800000
800000
FFFFFE
ENDCHAR
STARTCHAR 00C9
ENCODING 201
SWIDTH 660 0
DWIDTH 33 0
BBX 23 43 7 0
BITMAP
000180
000600
000C00
001000
002000
004000
000000
000000
FFFFFC
800000
800000
800000
800000
800000
800000
800000
800000
800000
800000
800000
800000
800000
800000
800000
800000
FFFFF0
800000
800000
800000
800000
800000
800000
800000
800000
800000
800000
800000
800000
800000
800000
800000
800000
FFFFFE
ENDCHAR
STARTCHAR 00CA
ENCODING 202
SWIDTH 660 0
DWIDTH 33 0
BBX 23 43 7 0
BITMAP
007800
00CC00
018600
020100
040080
000000
000000
000000
FFFFFC
800000
800000
800000
800000
800000
800000
800000
800000
800000
800000
800000
800000
800000
800000
800000
800000
FFFFF0
800000
800000
800000
800000
800000
800000
800000
800000
800000
800000
800000
800000
800000
800000
800000
800000
FFFFFE
ENDCHAR
STARTCHAR 00CB
ENCODING 203
SWIDTH 660 0
DWIDTH 33 0
BBX 23 42 7 0
BITMAP
030300
030300
000000
000000
000000
000000
000000
FFFFFC
800000
800000
800000
800000
800000
800000
800000
800000
800000
800000
800000
800000
800000
800000
800000
800000
FFFFF0
800000
800000
800000
800000
800000
800000
800000
800000
800000
800000
800000
800000
800000
800000
800000
800000
FFFFFE
ENDCHAR
STARTCHAR 00CC
ENCODING 204
SWIDTH 280 0
DWIDTH 14 0
BBX 8 43 1 0
BITMAP
C0
30
18
04
03
00
00
00
02
02
02
02
02
02
02
02
02
02
02
02
02
02
02
02
02
02
02
02
02
02
02
02
02
02
02
02
02
02
02
02
02
02
02
ENDCHAR
STARTCHAR 00CD
ENCODING 205
SWIDTH 280 0
DWIDTH 14 0
BBX 7 43 6 0
BITMAP
06
08
30
60
80
00
00
00
40
40
40
40
40
40
40
40
40
40
40
40
40
40
40
40
40
40
40
40
40
40
40
40
40
40
40
40
40
40
40
40
40
40
40
ENDCHAR
STARTCHAR 00CE
ENCODING 206
SWIDTH 280 0
DWIDTH 14 0
BBX 13 43 1 0
BITMAP
0F00
1980
3040
6020
8010
0008
0000
0000
0200
0200
0200
0200
0200
0200
0200
0200
0200
0200
0200
0200
0200
0200
0200
0200
0200
0200
0200
0200
0200
0200
0200
0200
0200
0200
0200
0200
0200
0200
0200
0200
0200
0200
0200
ENDCHAR
STARTCHAR 00CF
ENCODING 207
SWIDTH 280 0
DWIDTH 14 0
BBX 11 42 2 0
BITMAP
C0C0
C0E0
0000
0000
0000
0000
0000
0400
0400
0400
0400
0400
0400
0400
0400
0400
0400
0400
0400
0400
0400
0400
0400
0400
0400
0400
0400
0400
0400
0400
0400
0400
0400
0400
0400
0400
0400
0400
0400
0400
0400
0400
ENDCHAR
STARTCHAR 00D0
ENCODING 208
SWIDTH 820 0
DWIDTH 41 0
BBX 37 35 1 0
BITMAP
03FFFF0000
020000E000
0200001800
0200000600
0200000300
0200000180
02000000C0
0200000040
0200000020
0200000030
0200000010
0200000010
0200000008
0200000008
0200000008
0200000008
0200000008
FFFFC00008
0200000008
0200000008
0200000008
0200000008
0200000008
0200000010
0200000010
0200000030
0200000020
0200000040
02000000C0
0200000180
0200000300
0200000600
0200001800
020000E000
03FFFF0000
ENDCHAR
STARTCHAR 00D1
ENCODING 209
SWIDTH 800 0
DWIDTH 40 0
BBX 27 43 7 0
BITMAP
00701000
00881000
01041000
01036000
00008000
00000000
00000000
00000000
80000020
C0000020
C0000020
A0000020
90000020
98000020
8C000020
84000020
82000020
81000020
81800020
80800020
80400020
80200020
80300020
80180020
80080020
80040020
80020020
80030020
80010020
80008020
80004020
80006020
80002020
80001020
80000820
80000C20
80000620
80000220
80000120
800000A0
800000E0
80000060
80000020
ENDCHAR
STARTCHAR 00D2
ENCODING 210
SWIDTH 820 0
DWIDTH 41 0
BBX 36 43 3 0
BITMAP
000C000000
0003000000
0001800000
0000C00000
0000200000
0000100000
0000000000
0000000000
0007FE0000
003801C000
00C0003000
0100001800
0600000400
0C00000200
0800000100
1000000080
2000000080
2000000040
4000000060
4000000020
4000000020
8000000020
8000000010
8000000010
8000000010
8000000010
8000000010
8000000010
8000000010
8000000020
4000000020
4000000020
4000000060
2000000040
2000000080
1000000080
0800000100
0C00000200
0600000400
0100001800
00C0003000
003801C000
0007FE0000
ENDCHAR
STARTCHAR 00D3
ENCODING 211
SWIDTH 820 0
DWIDTH 41 0
BBX 36 43 3 0
BITMAP
0000030000
00000C0000
0000180000
0000200000
0000C00000
0000000000
0000000000
0000000000
0007FE0000
003801C000
00C0003000
0100001800
0600000400
0C00000200
0800000100
1000000080
2000000080
2000000040
4000000060
4000000020
4000000020
8000000020
8000000010
8000000010
8000000010
8000000010
8000000010
8000000010
8000000010
8000000020
4000000020
4000000020
4000000060
2000000040
2000000080
1000000080
0800000100
0C00000200
0600000400
0100001800
00C0003000
003801C000
0007FE0000
ENDCHAR
STARTCHAR 00D4
ENCODING 212
SWIDTH 820 0
DWIDTH 41 0
BBX 36 43 3 0
BITMAP
0000F00000
0001980000
00030C0000
0004060000
0008010000
0000000000
0000000000
0000000000
0007FE0000
003801C000
00C0003000
0100001800
0600000400
0C00000200
0800000100
1000000080
2000000080
2000000040
4000000060
4000000020
4000000020
8000000020
8000000010
8000000010
8000000010
8000000010
8000000010
8000000010
8000000010
8000000020
4000000020
4000000020
4000000060
2000000040
2000000080
1000000080
0800000100
0C00000200
0600000400
0100001800
00C0003000
003801C000
0007FE0000
ENDCHAR
STARTCHAR 00D5
ENCODING 213
SWIDTH 820 0
DWIDTH 41 0
BBX 36 43 3 0
BITMAP
0007008000
0008C08000
0018610000
00103B0000
0000000000
0000000000
0000000000
0000000000
0007FE0000
003801C000
00C0003000
0100001800
0600000400
0C00000200
0800000100
1000000080
2000000080
2000000040
4000000060
4000000020
4000000020
8000000020
8000000010
8000000010
8000000010
8000000010
8000000010
8000000010
8000000010
8000000020
4000000020
4000000020
4000000060
2000000040
2000000080
1000000080
0800000100
0C00000200
0600000400
0100001800
00C0003000
003801C000
0007FE0000
ENDCHAR
STARTCHAR 00D6
ENCODING 214
SWIDTH 820 0
DWIDTH 41 0
BBX 36 42 3 0
BITMAP
0006060000
0006060000
0000000000
0000000000
0000000000
0000000000
0000000000
0007FE0000
003801C000
00C0003000
0100001800
0600000400
0C00000200
0800000100
1000000080
2000000080
2000000040
4000000060
4000000020
4000000020
8000000020
8000000010
8000000010
8000000010
8000000010
8000000010
8000000010
8000000010
8000000020
4000000020
4000000020
4000000060
2000000040
2000000080
1000000080
0800000100
0C00000200
0600000400
0100001800
00C0003000
003801C000
0007FE0000
ENDCHAR
STARTCHAR 00D7
ENCODING 215
SWIDTH 560 0
DWIDTH 28 0
BBX 16 15 6 10
BITMAP
C003
6006
300C
1818
0C30
0660
03C0
0180
03C0
0660
0C30
1818
300C
6006
C003
ENDCHAR
STARTCHAR 00D8
ENCODING 216
SWIDTH 820 0
DWIDTH 41 0
BBX 36 43 3 -4
BITMAP
0000000040
0000000080
0000000100
0000000300
0007FE0200
003801C400
00C0003800
0100001800
0600001400
0C00002200
0800006100
1000004080
2000008080
2000010040
4000030060
4000020020
4000040020
8000080020
8000080010
8000100010
8000200010
8000400010
8000400010
8000800010
8001000010
8003000020
4002000020
4004000020
4008000060
2018000040
2010000080
1020000080
0840000100
0C40000200
0680000400
0100001800
03C0003000
023801C000
0407FE0000
0800000000
1800000000
1000000000
2000000000
ENDCHAR
STARTCHAR 00D9
ENCODING 217
SWIDTH 780 0
DWIDTH 39 0
BBX 27 43 6 0
BITMAP
00C00000
00200000
00180000
000C0000
00020000
00000000
00000000
00000000
80000020
80000020
80000020
80000020
80000020
80000020
80000020
80000020
80000020
80000020
80000020
80000020
80000020
80000020
80000020
80000020
80000020
80000020
80000020
80000020
80000020
80000020
80000020
40000020
40000020
40000020
40000060
60000040
20000040
30000080
10000180
08000300
06000600
01801800
007FE000
ENDCHAR
STARTCHAR 00DA
ENCODING 218
SWIDTH 780 0
DWIDTH 39 0
BBX 27 43 6 0
BITMAP
00007000
0000C000
00018000
00020000
000C0000
00000000
00000000
00000000
80000020
80000020
80000020
80000020
80000020
80000020
80000020
80000020
80000020
80000020
80000020
80000020
80000020
80000020
80000020
80000020
80000020
80000020
80000020
80000020
80000020
80000020
80000020
40000020
40000020
40000020
40000060
60000040
20000040
30000080
10000180
08000300
06000600
01801800
007FE000
ENDCHAR
STARTCHAR 00DB
ENCODING 219
SWIDTH 780 0
DWIDTH 39 0
BBX 27 43 6 0
BITMAP
000F0000
00198000
0020C000
00406000
00801000
01000000
00000000
00000000
80000020
80000020
80000020
80000020
80000020
80000020
80000020
80000020
80000020
80000020
80000020
80000020
80000020
80000020
80000020
80000020
80000020
80000020
80000020
80000020
80000020
80000020
80000020
40000020
40000020
40000020
40000060
60000040
20000040
30000080
10000180
08000300
06000600
01801800
007FE000
ENDCHAR
STARTCHAR 00DC
ENCODING 220
SWIDTH 780 0
DWIDTH 39 0
BBX 27 42 6 0
BITMAP
00606000
00606000
00000000
00000000
00000000
00000000
00000000
80000020
80000020
80000020
80000020
80000020
80000020
80000020
80000020
80000020
80000020
80000020
80000020
80000020
80000020
80000020
80000020
80000020
80000020
80000020
80000020
80000020
80000020
80000020
40000020
40000020
40000020
40000060
60000040
20000040
30000080
10000180
08000300
06000600
01801800
007FE000
ENDCHAR
STARTCHAR 00DD
ENCODING 221
SWIDTH 600 0
DWIDTH 30 0
BBX 29 43 1 0
BITMAP
00003000
00004000
00018000
00030000
00040000
00000000
00000000
00000000
80000008
C0000010
40000020
20000020
20000040
100000C0
08000080
08000100
04000100
06000200
02000600
01000400
01000800
00801800
00C01000
00402000
00202000
00204000
0010C000
00088000
00090000
00050000
00060000
00020000
00020000
00020000
00020000
00020000
00020000
00020000
00020000
00020000
00020000
00020000
00020000
ENDCHAR
STARTCHAR 00DE
ENCODING 222
SWIDTH 700 0
DWIDTH 35 0
BBX 25 35 7 0
BITMAP
80000000
80000000
80000000
80000000
80000000
FFFF0000
8000E000
80001800
80000400
80000200
80000100
80000100
80000080
80000080
80000080
80000080
80000080
80000080
80000080
80000080
80000080
80000100
80000100
80000200
80000400
80001800
80006000
FFFF8000
80000000
80000000
80000000
80000000
80000000
80000000
80000000
ENDCHAR
STARTCHAR 00DF
ENCODING 223
SWIDTH 640 0
DWIDTH 32 0
BBX 24 37 6 0
BITMAP
03FE00
0C0180
180060
200020
600010
400018
C00008
800008
800008
800008
800008
800008
800010
800010
800020
800040
800180
803E00
8007C0
800030
800008
800004
800002
800002
800001
800001
800001
800001
800001
800001
800002
800002
800004
80000C
800018
810060
81FF80
ENDCHAR
STARTCHAR 00E0
ENCODING 224
SWIDTH 560 0
DWIDTH 28 0
BBX 20 36 3 0
BITMAP
0C0000
030000
018000
00C000
002000
001800
000000
000000
000000
000000
01FE00
0E0180
180040
600020
000020
000010
000010
000010
000010
000010
000010
000010
07FFF0
180010
200010
400010
400010
800010
800010
800010
800030
400030
400050
200090
180310
07FC10
ENDCHAR
STARTCHAR 00E1
ENCODING 225
SWIDTH 560 0
DWIDTH 28 0
BBX 20 36 3 0
BITMAP
000180
000300
000C00
001800
002000
004000
000000
000000
000000
000000
01FE00
0E0180
180040
600020
000020
000010
000010
000010
000010
000010
000010
000010
07FFF0
180010
200010
400010
400010
800010
800010
800010
800030
400030
400050
200090
180310
07FC10
ENDCHAR
STARTCHAR 00E2
ENCODING 226
SWIDTH 560 0
DWIDTH 28 0
BBX 20 36 3 0
BITMAP
007000
00D800
018C00
030200
040100
080080
000000
000000
000000
000000
01FE00
0E0180
180040
600020
000020
000010
000010
000010
000010
000010
000010
000010
07FFF0
180010
200010
400010
400010
800010
800010
800010
800030
400030
400050
200090
180310
07FC10
ENDCHAR
STARTCHAR 00E3
ENCODING 227
SWIDTH 560 0
DWIDTH 28 0
BBX 20 35 3 0
BITMAP
07C080
0C6080
081180
080F00
000000
000000
000000
000000
000000
01FE00
0E0180
180040
600020
000020
000010
000010
000010
000010
000010
000010
000010
07FFF0
180010
200010
400010
400010
800010
800010
800010
800030
400030
400050
200090
180310
07FC10
ENDCHAR
STARTCHAR 00E4
ENCODING 228
SWIDTH 560 0
DWIDTH 28 0
BBX 20 35 3 0
BITMAP
020200
070700
030300
000000
000000
000000
000000
000000
000000
01FE00
0E0180
180040
600020
000020
000010
000010
000010
000010
000010
000010
000010
07FFF0
180010
200010
400010
400010
800010
800010
800010
800030
400030
400050
200090
180310
07FC10
ENDCHAR
STARTCHAR 00E5
ENCODING 229
SWIDTH 560 0
DWIDTH 28 0
BBX 20 39 3 0
BITMAP
007800
018C00
010200
020200
020200
020200
020200
010400
00F800
000000
000000
000000
000000
01FE00
0E0180
180040
600020
000020
000010
000010
000010
000010
000010
000010
000010
07FFF0
180010
200010
400010
400010
800010
800010
800010
800030
400030
400050
200090
180310
07FC10
ENDCHAR
STARTCHAR 00E6
ENCODING 230
SWIDTH 960 0
DWIDTH 48 0
BBX 43 26 3 0
BITMAP
01FE000FE000
0E0180701800
180040C00600
600021000300
000022000180
000014000080
000014000040
000018000040
000018000020
000018000020
000010000020
000010000020
07FFFFFFFFE0
180010000000
200010000000
400010000000
400018000000
800018000000
800018000000
800014000000
800026000000
400022000000
400041000080
200080C00300
180300300E00
07FC000FF000
ENDCHAR
STARTCHAR 00E7
ENCODING 231
SWIDTH 540 0
DWIDTH 27 0
BBX 21 37 3 -11
BITMAP
007F00
0380E0
040030
180008
100000
200000
400000
400000
800000
800000
800000
800000
800000
800000
800000
800000
800000
800000
400000
400000
200000
300000
180008
0C0010
0300E0
00FF80
001000
001000
002000
003C00
000600
000200
000200
000200
000200
01CC00
003000
ENDCHAR
STARTCHAR 00E8
ENCODING 232
SWIDTH 580 0
DWIDTH 29 0
BBX 24 36 3 0
BITMAP
060000
018000
00C000
006000
001000
000C00
000000
000000
000000
000000
00FE00
0301C0
0C0060
180010
300008
20000C
400004
400002
800002
800002
800002
800001
FFFFFF
800000
800000
800000
800000
800000
400000
400000
200000
300004
18000C
0C0010
030060
00FF80
ENDCHAR
STARTCHAR 00E9
ENCODING 233
SWIDTH 580 0
DWIDTH 29 0
BBX 24 36 3 0
BITMAP
0000C0
000180
000600
000C00
001800
002000
000000
000000
000000
000000
00FE00
0301C0
0C0060
180010
300008
20000C
400004
400002
800002
800002
800002
800001
FFFFFF
800000
800000
800000
800000
800000
400000
400000
200000
300004
18000C
0C0010
030060
00FF80
ENDCHAR
STARTCHAR 00EA
ENCODING 234
SWIDTH 580 0
DWIDTH 29 0
BBX 24 36 3 0
BITMAP
001800
006C00
00C200
018100
030080
040040
000000
000000
000000
000000
00FE00
0301C0
0C0060
180010
300008
20000C
400004
400002
800002
800002
800002
800001
FFFFFF
800000
800000
800000
800000
800000
400000
400000
200000
300004
18000C
0C0010
030060
00FF80
ENDCHAR
STARTCHAR 00EB
ENCODING 235
SWIDTH 580 0
DWIDTH 29 0
BBX 24 35 3 0
BITMAP
010100
038380
018180
000000
000000
000000
000000
000000
000000
00FE00
0301C0
0C0060
180010
300008
20000C
400004
400002
800002
800002
800002
800001
FFFFFF
800000
800000
800000
800000
800000
400000
400000
200000
300004
18000C
0C0010
030060
00FF80
ENDCHAR
STARTCHAR 00EC
ENCODING 236
SWIDTH 240 0
DWIDTH 12 0
BBX 8 36 0 0
BITMAP
C0
60
18
0C
06
01
00
00
00
00
02
02
02
02
02
02
02
02
02
02
02
02
02
02
02
02
02
02
02
02
02
02
02
02
02
02
ENDCHAR
STARTCHAR 00ED
ENCODING 237
SWIDTH 240 0
DWIDTH 12 0
BBX 9 36 4 0
BITMAP
0180
0600
0C00
1000
6000
C000
0000
0000
0000
0000
2000
2000
2000
2000
2000
2000
2000
2000
2000
2000
2000
2000
2000
2000
2000
2000
2000
2000
2000
2000
2000
2000
2000
2000
2000
2000
ENDCHAR
STARTCHAR 00EE
ENCODING 238
SWIDTH 240 0
DWIDTH 12 0
BBX 11 36 1 0
BITMAP
0C00
1A00
3100
2080
40C0
8060
0000
0000
0000
0000
0400
0400
0400
0400
0400
0400
0400
0400
0400
0400
0400
0400
0400
0400
0400
0400
0400
0400
0400
0400
0400
0400
0400
0400
0400
0400
ENDCHAR
STARTCHAR 00EF
ENCODING 239
SWIDTH 240 0
DWIDTH 12 0
BBX 8 35 2 0
BITMAP
42
E3
43
00
00
00
00
00
00
08
08
08
08
08
08
08
08
08
08
08
08
08
08
08
08
08
08
08
08
08
08
08
08
08
08
ENDCHAR
STARTCHAR 00F0
ENCODING 240
SWIDTH 600 0
DWIDTH 30 0
BBX 25 35 3 0
BITMAP
0FFE0600
30019800
0000E000
00039000
000C0800
00300400
01C00600
07000200
08000100
00000100
00000100
00000080
00000080
00000080
03FF8080
0C006080
10001080
20000880
40000480
40000480
80000280
80000280
80000280
80000180
80000100
80000100
80000300
80000200
C0000200
40000400
60000C00
30001800
18003000
0600C000
01FF0000
ENDCHAR
STARTCHAR 00F1
ENCODING 241
SWIDTH 660 0
DWIDTH 33 0
BBX 22 35 6 0
BITMAP
07C080
042080
081080
080F00
000000
000000
000000
000000
000000
80FE00
8701C0
8C0060
900010
A00010
C00008
C00008
800004
800004
800004
800004
800004
800004
800004
800004
800004
800004
800004
800004
800004
800004
800004
800004
800004
800004
800004
ENDCHAR
STARTCHAR 00F2
ENCODING 242
SWIDTH 600 0
DWIDTH 30 0
BBX 25 36 3 0
BITMAP
03000000
01800000
00600000
00300000
00180000
00040000
00000000
00000000
00000000
00000000
007F0000
0380C000
04003000
18000800
10000400
20000600
40000200
40000100
80000100
80000100
80000080
80000080
80000080
80000080
80000080
80000080
80000100
80000100
40000100
40000200
20000200
30000400
18000800
0C003000
0300E000
00FF8000
ENDCHAR
STARTCHAR 00F3
ENCODING 243
SWIDTH 600 0
DWIDTH 30 0
BBX 25 36 3 0
BITMAP
00006000
00018000
00030000
00040000
00180000
00300000
00000000
00000000
00000000
00000000
007F0000
0380C000
04003000
18000800
10000400
20000600
40000200
40000100
80000100
80000100
80000080
80000080
80000080
80000080
80000080
80000080
80000100
80000100
40000100
40000200
20000200
30000400
18000800
0C003000
0300E000
00FF8000
ENDCHAR
STARTCHAR 00F4
ENCODING 244
SWIDTH 600 0
DWIDTH 30 0
BBX 25 36 3 0
BITMAP
00180000
00360000
00430000
00818000
0100C000
02002000
00000000
00000000
00000000
00000000
007F0000
0380C000
04003000
18000800
10000400
20000600
40000200
40000100
80000100
80000100
80000080
80000080
80000080
80000080
80000080
80000080
80000100
80000100
40000100
40000200
20000200
30000400
18000800
0C003000
0300E000
00FF8000
ENDCHAR
STARTCHAR 00F5
ENCODING 245
SWIDTH 600 0
DWIDTH 30 0
BBX 25 35 3 0
BITMAP
01E02000
02182000
020C4000
04078000
00000000
00000000
00000000
00000000
00000000
007F0000
0380C000
04003000
18000800
10000400
20000600
40000200
40000100
80000100
80000100
80000080
80000080
80000080
80000080
80000080
80000080
80000100
80000100
40000100
40000200
20000200
30000400
18000800
0C003000
0300E000
00FF8000
ENDCHAR
STARTCHAR 00F6
ENCODING 246
SWIDTH 600 0
DWIDTH 30 0
BBX 25 35 3 0
BITMAP
00808000
0181C000
01818000
00000000
00000000
00000000
00000000
00000000
00000000
007F0000
0380C000
04003000
18000800
10000400
20000600
40000200
40000100
80000100
80000100
80000080
80000080
80000080
80000080
80000080
80000080
80000100
80000100
40000100
40000200
20000200
30000400
18000800
0C003000
0300E000
00FF8000
ENDCHAR
STARTCHAR 00F7
ENCODING 247
SWIDTH 560 0
DWIDTH 28 0
BBX 20 21 4 7
BITMAP
006000
006000
006000
000000
000000
000000
000000
000000
000000
000000
FFFFF0
000000
000000
000000
000000
000000
000000
000000
006000
006000
006000
ENDCHAR
STARTCHAR 00F8
ENCODING 248
SWIDTH 600 0
DWIDTH 30 0
BBX 25 33 3 -4
BITMAP
00000200
00000200
00000400
007F0800
0380D800
04003000
18002800
10006400
20004600
40008200
40018100
80010100
80020100
80060080
80040080
80080080
80180080
80100080
80200080
80400100
80400100
40800100
41000200
21000200
32000400
1C000800
0C003000
0B00E000
10FF8000
10000000
20000000
40000000
C0000000
ENDCHAR
STARTCHAR 00F9
ENCODING 249
SWIDTH 660 0
DWIDTH 33 0
BBX 22 36 5 0
BITMAP
060000
010000
00C000
006000
001000
000C00
000000
000000
000000
000000
800004
800004
800004
800004
800004
800004
800004
800004
800004
800004
800004
800004
800004
800004
800004
800004
800004
400004
400004
40000C
40000C
200014
300034
180064
060184
01FE04
ENDCHAR
STARTCHAR 00FA
ENCODING 250
SWIDTH 660 0
DWIDTH 33 0
BBX 22 36 5 0
BITMAP
0000C0
000300
000600
000C00
001000
006000
000000
000000
000000
000000
800004
800004
800004
800004
800004
800004
800004
800004
800004
800004
800004
800004
800004
800004
800004
800004
800004
400004
400004
40000C
40000C
200014
300034
180064
060184
01FE04
ENDCHAR
STARTCHAR 00FB
ENCODING 251
SWIDTH 660 0
DWIDTH 33 0
BBX 22 36 5 0
BITMAP
003800
006C00
00C600
010300
020080
040040
000000
000000
000000
000000
800004
800004
800004
800004
800004
800004
800004
800004
800004
800004
800004
800004
800004
800004
800004
800004
800004
400004
400004
40000C
40000C
200014
300034
180064
060184
01FE04
ENDCHAR
STARTCHAR 00FC
ENCODING 252
SWIDTH 660 0
DWIDTH 33 0
BBX 22 35 5 0
BITMAP
010100
038380
030180
000000
000000
000000
000000
000000
000000
800004
800004
800004
800004
800004
800004
800004
800004
800004
800004
800004
800004
800004
800004
800004
800004
800004
400004
400004
40000C
40000C
200014
300034
180064
060184
01FE04
ENDCHAR
STARTCHAR 00FD
ENCODING 253
SWIDTH 500 0
DWIDTH 25 0
BBX 27 46 -2 -10
BITMAP
00003000
00006000
0000C000
00030000
00060000
00080000
00000000
00000000
00000000
00000000
30000020
10000040
18000040
080000C0
08000080
04000180
04000100
02000100
02000200
01000200
01000400
00800400
00800800
00C00800
00401800
00401000
00203000
00202000
00102000
00104000
00084000
00088000
00048000
00050000
00030000
00020000
00020000
00060000
00040000
000C0000
00080000
00180000
00100000
C0200000
70C00000
0F000000
ENDCHAR
STARTCHAR 00FE
ENCODING 254
SWIDTH 660 0
DWIDTH 33 0
BBX 25 47 6 -10
BITMAP
80000000
80000000
80000000
80000000
80000000
80000000
80000000
80000000
80000000
80000000
80000000
807F0000
8380C000
84003000
88000800
90000400
A0000200
C0000200
C0000100
C0000100
80000100
80000080
80000080
80000080
80000080
80000080
80000080
80000100
80000100
C0000100
C0000200
A0000200
90000400
98000800
84001000
8300E000
80FF0000
80000000
80000000
80000000
80000000
80000000
80000000
80000000
80000000
80000000
80000000
ENDCHAR
STARTCHAR 00FF
ENCODING 255
SWIDTH 500 0
DWIDTH 25 0
BBX 27 45 -2 -10
BITMAP
00400000
00606000
00606000
00000000
00000000
00000000
00000000
00000000
00000000
30000020
10000040
18000040
080000C0
08000080
04000180
04000100
02000100
02000200
01000200
01000400
00800400
00800800
00C00800
00401800
00401000
00203000
00202000
00102000
00104000
00084000
00088000
00048000
00050000
00030000
00020000
00020000
00060000
00040000
000C0000
00080000
00180000
00100000
C0200000
70C00000
0F000000
ENDCHAR
STARTCHAR 0100
ENCODING 256
SWIDTH 680 0
DWIDTH 34 0
BBX 33 41 1 0
BITMAP
007FFE0000
0000000000
0000000000
0000000000
0000000000
0000000000
0001800000
0001800000
0001400000
0002400000
0002200000
0004200000
0004100000
0008100000
0008080000
0010080000
00100C0000
0030040000
0020060000
0060020000
0040020000
00C0010000
0080010000
0080008000
0100008000
0100004000
0200004000
0200002000
0400002000
07FFFFF000
0800001000
0800001800
1800000800
1000000800
3000000400
2000000400
2000000200
4000000200
4000000100
8000000100
8000000080
ENDCHAR
STARTCHAR 0101
ENCODING 257
SWIDTH 560 0
DWIDTH 28 0
BBX 20 34 3 0
BITMAP
0FFF80
000000
000000
000000
000000
000000
000000
000000
01FE00
0E0180
180040
600020
000020
000010
000010
000010
000010
000010
000010
000010
07FFF0
180010
200010
400010
400010
800010
800010
800010
800030
400030
400050
200090
180310
07FC10
ENDCHAR
STARTCHAR 0102
ENCODING 258
SWIDTH 680 0
DWIDTH 34 0
BBX 33 43 1 0
BITMAP
0020020000
0020040000
0030040000
0018080000
0007F00000
0000000000
0000000000
0000000000
0001800000
0001800000
0001400000
0002400000
0002200000
0004200000
0004100000
0008100000
0008080000
0010080000
00100C0000
0030040000
0020060000
0060020000
0040020000
00C0010000
0080010000
0080008000
0100008000
0100004000
0200004000
0200002000
0400002000
07FFFFF000
0800001000
0800001800
1800000800
1000000800
3000000400
2000000400
2000000200
4000000200
4000000100
8000000100
8000000080
ENDCHAR
STARTCHAR 0103
ENCODING 259
SWIDTH 560 0
DWIDTH 28 0
BBX 20 36 3 0
BITMAP
080080
080080
040080
060100
030600
007800
000000
000000
000000
000000
01FE00
0E0180
180040
600020
000020
000010
000010
000010
000010
000010
000010
000010
07FFF0
180010
200010
400010
400010
800010
800010
800010
800030
400030
400050
200090
180310
07FC10
ENDCHAR
STARTCHAR 0104
ENCODING 260
SWIDTH 680 0
DWIDTH 34 0
BBX 34 46 1 -11
BITMAP
0001800000
0001800000
0001400000
0002400000
0002200000
0004200000
0004100000
0008100000
0008080000
0010080000
00100C0000
0030040000
0020060000
0060020000
0040020000
00C0010000
0080010000
0080008000
0100008000
0100004000
0200004000
0200002000
0400002000
07FFFFF000
0800001000
0800001800
1800000800
1000000800
3000000400
2000000400
2000000200
4000000200
4000000100
8000000100
8000000080
0000000300
0000000C00
0000001800
0000001000
0000002000
0000002000
0000002000
0000002000
0000002000
00000019C0
0000000600
ENDCHAR
STARTCHAR 0105
ENCODING 261
SWIDTH 560 0
DWIDTH 28 0
BBX 21 37 3 -11
BITMAP
01FE00
0E0180
180040
600020
000020
000010
000010
000010
000010
000010
000010
000010
07FFF0
180010
200010
400010
400010
800010
800010
800010
800030
400030
400050
200090
180310
07FC10
000060
000080
000100
000200
000400
000400
000400
000400
000600
000318
0000C0
ENDCHAR
STARTCHAR 0106
ENCODING 262
SWIDTH 700 0
DWIDTH 35 0
BBX 30 43 3 0
BITMAP
00000600
00000C00
00001000
00006000
0000C000
00000000
00000000
00000000
0007FE00
003801C0
00C00030
01000018
06000004
0C000000
08000000
10000000
20000000
20000000
40000000
40000000
40000000
80000000
80000000
80000000
80000000
80000000
80000000
80000000
80000000
80000000
40000000
40000000
40000000
20000000
20000000
10000000
08000000
0C000000
06000004
01000018
00C00030
003801C0
0007FE00
ENDCHAR
STARTCHAR 0107
ENCODING 263
SWIDTH 540 0
DWIDTH 27 0
BBX 21 36 3 0
BITMAP
0000C0
000100
000600
000C00
001000
006000
000000
000000
000000
000000
007F00
0380E0
040030
180008
100000
200000
400000
400000
800000
800000
800000
800000
800000
800000
800000
800000
800000
800000
400000
400000
200000
300000
180008
0C0010
0300E0
00FF80
ENDCHAR
STARTCHAR 0108
ENCODING 264
SWIDTH 700 0
DWIDTH 35 0
BBX 30 43 3 0
BITMAP
0000E000
00011000
00060800
000C0400
00180300
00000000
00000000
00000000
0007FE00
003801C0
00C00030
01000018
06000004
0C000000
08000000
10000000
20000000
20000000
40000000
40000000
40000000
80000000
80000000
80000000
80000000
80000000
80000000
80000000
80000000
80000000
40000000
40000000
40000000
20000000
20000000
10000000
08000000
0C000000
06000004
01000018
00C00030
003801C0
0007FE00
ENDCHAR
STARTCHAR 0109
ENCODING 265
SWIDTH 540 0
DWIDTH 27 0
BBX 21 36 3 0
BITMAP
003800
006C00
00C600
018100
020080
040040
000000
000000
000000
000000
007F00
0380E0
040030
180008
100000
200000
400000
400000
800000
800000
800000
800000
800000
800000
800000
800000
800000
800000
400000
400000
200000
300000
180008
0C0010
0300E0
00FF80
ENDCHAR
STARTCHAR 010A
ENCODING 266
SWIDTH 700 0
DWIDTH 35 0
BBX 30 42 3 0
BITMAP
0000E000
0000E000
00000000
00000000
00000000
00000000
00000000
0007FE00
003801C0
00C00030
01000018
06000004
0C000000
08000000
10000000
20000000
20000000
40000000
40000000
40000000
80000000
80000000
80000000
80000000
80000000
80000000
80000000
80000000
80000000
40000000
40000000
40000000
20000000
20000000
10000000
08000000
0C000000
06000004
01000018
00C00030
003801C0
0007FE00
ENDCHAR
STARTCHAR 010B
ENCODING 267
SWIDTH 540 0
DWIDTH 27 0
BBX 21 35 3 0
BITMAP
001000
003800
001800
000000
000000
000000
000000
000000
000000
007F00
0380E0
040030
180008
100000
200000
400000
400000
800000
800000
800000
800000
800000
800000
800000
800000
800000
800000
400000
400000
200000
300000
180008
0C0010
0300E0
00FF80
ENDCHAR
STARTCHAR 010C
ENCODING 268
SWIDTH 700 0
DWIDTH 35 0
BBX 30 43 3 0
BITMAP
00180300
00040400
00020800
00013000
0000E000
00000000
00000000
00000000
0007FE00
003801C0
00C00030
01000018
06000004
0C000000
08000000
10000000
20000000
20000000
40000000
40000000
40000000
80000000
80000000
80000000
80000000
80000000
80000000
80000000
80000000
80000000
40000000
40000000
40000000
20000000
20000000
10000000
08000000
0C000000
06000004
01000018
00C00030
003801C0
0007FE00
ENDCHAR
STARTCHAR 010D
ENCODING 269
SWIDTH 540 0
DWIDTH 27 0
BBX 21 36 3 0
BITMAP
040040
030180
018300
00C600
006C00
001800
000000
000000
000000
000000
007F00
0380E0
040030
180008
100000
200000
400000
400000
800000
800000
800000
800000
800000
800000
800000
800000
800000
800000
400000
400000
200000
300000
180008
0C0010
0300E0
00FF80
ENDCHAR
STARTCHAR 010E
ENCODING 270
SWIDTH 820 0
DWIDTH 41 0
BBX 31 43 7 0
BITMAP
03006000
00808000
00410000
00320000
001C0000
00000000
00000000
00000000
FFFFC000
80003800
80000600
80000180
800000C0
80000060
80000030
80000010
80000008
8000000C
80000004
80000004
80000002
80000002
80000002
80000002
80000002
80000002
80000002
80000002
80000002
80000002
80000002
80000004
80000004
8000000C
80000008
80000010
80000030
80000060
800000C0
80000180
80000600
80003800
FFFFC000
ENDCHAR
STARTCHAR 010F
ENCODING 271
SWIDTH 660 0
DWIDTH 33 0
BBX 31 38 3 0
BITMAP
00000002
00000082
00000082
00000082
00000082
00000082
00000082
00000082
00000082
00000080
00000080
00000080
007F0080
0380C080
04003080
18000880
10000480
20000680
40000280
40000180
80000180
80000180
80000080
80000080
80000080
80000080
80000080
80000080
80000180
80000180
40000180
40000280
20000280
30000480
18000880
0C003080
0300E080
00FF0080
ENDCHAR
STARTCHAR 0110
ENCODING 272
SWIDTH 820 0
DWIDTH 41 0
BBX 37 35 1 0
BITMAP
03FFFF0000
020000E000
0200001800
0200000600
0200000300
0200000180
02000000C0
0200000040
0200000020
0200000030
0200000010
0200000010
0200000008
0200000008
0200000008
0200000008
0200000008
FFFFC00008
0200000008
0200000008
0200000008
0200000008
0200000008
0200000010
0200000010
0200000030
0200000020
0200000040
02000000C0
0200000180
0200000300
0200000600
0200001800
020000E000
03FFFF0000
ENDCHAR
STARTCHAR 0111
ENCODING 273
SWIDTH 660 0
DWIDTH 33 0
BBX 31 37 3 0
BITMAP
00000080
00000080
00000080
00000080
00000080
000FFFFE
00000080
00000080
00000080
00000080
00000080
007F0080
0380C080
04003080
18000880
10000480
20000680
40000280
40000180
80000180
80000180
80000080
80000080
80000080
80000080
80000080
80000080
80000180
80000180
40000180
40000280
20000280
30000480
18000880
0C003080
0300E080
00FF0080
ENDCHAR
STARTCHAR 0112
ENCODING 274
SWIDTH 660 0
DWIDTH 33 0
BBX 23 41 7 0
BITMAP
0FFFC0
000000
000000
000000
000000
000000
FFFFFC
800000
800000
800000
800000
800000
800000
800000
800000
800000
800000
800000
800000
800000
800000
800000
800000
FFFFF0
800000
800000
800000
800000
800000
800000
800000
800000
800000
800000
800000
800000
800000
800000
800000
800000
FFFFFE
ENDCHAR
STARTCHAR 0113
ENCODING 275
SWIDTH 580 0
DWIDTH 29 0
BBX 24 34 3 0
BITMAP
07FFE0
000000
000000
000000
000000
000000
000000
000000
00FE00
0301C0
0C0060
180010
300008
20000C
400004
400002
800002
800002
800002
800001
FFFFFF
800000
800000
800000
800000
800000
400000
400000
200000
300004
18000C
0C0010
030060
00FF80
ENDCHAR
STARTCHAR 0114
ENCODING 276
SWIDTH 660 0
DWIDTH 33 0
BBX 23 43 7 0
BITMAP
080080
040080
040080
030300
01FC00
000000
000000
000000
FFFFFC
800000
800000
800000
800000
800000
800000
800000
800000
800000
800000
800000
800000
800000
800000
800000
800000
FFFFF0
800000
800000
800000
800000
800000
800000
800000
800000
800000
800000
800000
800000
800000
800000
800000
800000
FFFFFE
ENDCHAR
STARTCHAR 0115
ENCODING 277
SWIDTH 580 0
DWIDTH 29 0
BBX 24 36 3 0
BITMAP
040040
040040
020040
030080
01C300
003C00
000000
000000
000000
000000
00FE00
0301C0
0C0060
180010
300008
20000C
400004
400002
800002
800002
800002
800001
FFFFFF
800000
800000
800000
800000
800000
400000
400000
200000
300004
18000C
0C0010
030060
00FF80
ENDCHAR
STARTCHAR 0116
ENCODING 278
SWIDTH 660 0
DWIDTH 33 0
BBX 23 42 7 0
BITMAP
003000
003000
000000
000000
000000
000000
000000
FFFFFC
800000
800000
800000
800000
800000
800000
800000
800000
800000
800000
800000
800000
800000
800000
800000
800000
FFFFF0
800000
800000
800000
800000
800000
800000
800000
800000
800000
800000
800000
800000
800000
800000
800000
800000
FFFFFE
ENDCHAR
STARTCHAR 0117
ENCODING 279
SWIDTH 580 0
DWIDTH 29 0
BBX 24 35 3 0
BITMAP
001000
003800
001800
000000
000000
000000
000000
000000
000000
00FE00
0301C0
0C0060
180010
300008
20000C
400004
400002
800002
800002
800002
800001
FFFFFF
800000
800000
800000
800000
800000
400000
400000
200000
300004
18000C
0C0010
030060
00FF80
ENDCHAR
STARTCHAR 0118
ENCODING 280
SWIDTH 660 0
DWIDTH 33 0
BBX 24 46 7 -11
BITMAP
FFFFFC
800000
800000
800000
800000
800000
800000
800000
800000
800000
800000
800000
800000
800000
800000
800000
800000
FFFFF0
800000
800000
800000
800000
800000
800000
800000
800000
800000
800000
800000
800000
800000
800000
800000
800000
FFFFFE
00000C
000030
000060
000040
000080
000080
000080
000080
000080
000067
000018
ENDCHAR
STARTCHAR 0119
ENCODING 281
SWIDTH 580 0
DWIDTH 29 0
BBX 24 37 3 -11
BITMAP
00FE00
0301C0
0C0060
180010
300008
20000C
400004
400002
800002
800002
800002
800001
FFFFFF
800000
800000
800000
800000
800000
400000
400000
200000
300004
18000C
0C0010
030060
00FFC0
000080
000180
000100
000200
000200
000400
000400
000200
000200
000198
0000E0
ENDCHAR
STARTCHAR 011A
ENCODING 282
SWIDTH 660 0
DWIDTH 33 0
BBX 23 43 7 0
BITMAP
040180
030300
018600
00CC00
007000
000000
000000
000000
FFFFFC
800000
800000
800000
800000
800000
800000
800000
800000
800000
800000
800000
800000
800000
800000
800000
800000
FFFFF0
800000
800000
800000
800000
800000
800000
800000
800000
800000
800000
800000
800000
800000
800000
800000
800000
FFFFFE
ENDCHAR
STARTCHAR 011B
ENCODING 283
SWIDTH 580 0
DWIDTH 29 0
BBX 24 36 3 0
BITMAP
060040
030080
018300
00C600
002C00
001800
000000
000000
000000
000000
00FE00
0301C0
0C0060
180010
300008
20000C
400004
400002
800002
800002
800002
800001
FFFFFF
800000
800000
800000
800000
800000
400000
400000
200000
300004
18000C
0C0010
030060
00FF80
ENDCHAR
STARTCHAR 011C
ENCODING 284
SWIDTH 760 0
DWIDTH 38 0
BBX 30 43 3 0
BITMAP
0001E000
00033000
00061800
000C0400
00100200
00000000
00000000
00000000
0007FE00
003801C0
00C00030
01800008
02000004
04000000
08000000
10000000
20000000
20000000
40000000
40000000
40000000
80000000
80000000
80000000
80000000
80000000
80000004
80000004
80000004
80000004
40000004
40000004
40000004
20000004
20000004
10000004
08000004
0C000004
06000004
01800008
00C00030
003801C0
0007FE00
ENDCHAR
STARTCHAR 011D
ENCODING 285
SWIDTH 660 0
DWIDTH 33 0
BBX 25 46 3 -10
BITMAP
000C0000
00360000
00610000
00C08000
01804000
02002000
00000000
00000000
00000000
00000000
007F0080
0380E080
04003080
18000880
30000480
20000280
40000180
40000180
80000180
80000080
80000080
80000080
80000080
80000080
80000080
80000080
80000180
40000180
40000180
20000280
30000480
18000880
0C001080
03006080
00FF8080
00000080
00000080
00000080
00000180
00000100
00000100
20000200
10000400
0C000800
03807000
007F8000
ENDCHAR
STARTCHAR 011E
ENCODING 286
SWIDTH 760 0
DWIDTH 38 0
BBX 30 43 3 0
BITMAP
00100100
00100200
00180200
000C0400
0007F800
00000000
00000000
00000000
0007FE00
003801C0
00C00030
01800008
02000004
04000000
08000000
10000000
20000000
20000000
40000000
40000000
40000000
80000000
80000000
80000000
80000000
80000000
80000004
80000004
80000004
80000004
40000004
40000004
40000004
20000004
20000004
10000004
08000004
0C000004
06000004
01800008
00C00030
003801C0
0007FE00
ENDCHAR
STARTCHAR 011F
ENCODING 287
SWIDTH 660 0
DWIDTH 33 0
BBX 25 46 3 -10
BITMAP
02002000
02002000
01002000
01804000
00E18000
001E0000
00000000
00000000
00000000
00000000
007F0080
0380E080
04003080
18000880
30000480
20000280
40000180
40000180
80000180
80000080
80000080
80000080
80000080
80000080
80000080
80000080
80000180
40000180
40000180
20000280
30000480
18000880
0C001080
03006080
00FF8080
00000080
00000080
00000080
00000180
00000100
00000100
20000200
10000400
0C000800
03807000
007F8000
ENDCHAR
STARTCHAR 0120
ENCODING 288
SWIDTH 760 0
DWIDTH 38 0
BBX 30 42 3 0
BITMAP
0000C000
0000C000
00000000
00000000
00000000
00000000
00000000
0007FE00
003801C0
00C00030
01800008
02000004
04000000
08000000
10000000
20000000
20000000
40000000
40000000
40000000
80000000
80000000
80000000
80000000
80000000
80000004
80000004
80000004
80000004
40000004
40000004
40000004
20000004
20000004
10000004
08000004
0C000004
06000004
01800008
00C00030
003801C0
0007FE00
ENDCHAR
STARTCHAR 0121
ENCODING 289
SWIDTH 660 0
DWIDTH 33 0
BBX 25 45 3 -10
BITMAP
00080000
001C0000
000C0000
00000000
00000000
00000000
00000000
00000000
00000000
007F0080
0380E080
04003080
18000880
30000480
20000280
40000180
40000180
80000180
80000080
80000080
80000080
80000080
80000080
80000080
80000080
80000180
40000180
40000180
20000280
30000480
18000880
0C001080
03006080
00FF8080
00000080
00000080
00000080
00000180
00000100
00000100
20000200
10000400
0C000800
03807000
007F8000
ENDCHAR
STARTCHAR 0122
ENCODING 290
SWIDTH 760 0
DWIDTH 38 0
BBX 30 48 3 -13
BITMAP
0007FE00
003801C0
00C00030
01800008
02000004
04000000
08000000
10000000
20000000
20000000
40000000
40000000
40000000
80000000
80000000
80000000
80000000
80000000
80000004
80000004
80000004
80000004
40000004
40000004
40000004
20000004
20000004
10000004
08000004
0C000004
06000004
01800008
00C00030
003801C0
0007FE00
00000000
00000000
00000000
00000000
00000000
00000000
0000C000
0000C000
0000C000
00004000
00004000
00008000
00008000
ENDCHAR
STARTCHAR 0123
ENCODING 291
SWIDTH 660 0
DWIDTH 33 0
BBX 25 48 3 -10
BITMAP
00040000
00040000
00080000
00080000
00080000
00080000
001C0000
00080000
00000000
00000000
00000000
00000000
007F0080
0380E080
04003080
18000880
30000480
20000280
40000180
40000180
80000180
80000080
80000080
80000080
80000080
80000080
80000080
80000080
80000180
40000180
40000180
20000280
30000480
18000880
0C001080
03006080
00FF8080
00000080
00000080
00000080
00000180
00000100
00000100
20000200
10000400
0C000800
03807000
007F8000
ENDCHAR
STARTCHAR 0124
ENCODING 292
SWIDTH 800 0
DWIDTH 40 0
BBX 27 43 7 0
BITMAP
000E0000
00110000
00608000
00C04000
01803000
00000000
00000000
00000000
80000020
80000020
80000020
80000020
80000020
80000020
80000020
80000020
80000020
80000020
80000020
80000020
80000020
80000020
80000020
80000020
80000020
FFFFFFE0
80000020
80000020
80000020
80000020
80000020
80000020
80000020
80000020
80000020
80000020
80000020
80000020
80000020
80000020
80000020
80000020
80000020
ENDCHAR
STARTCHAR 0125
ENCODING 293
SWIDTH 660 0
DWIDTH 33 0
BBX 28 45 0 0
BITMAP
0F000000
18800000
30400000
60200000
80180000
00000000
00000000
00000000
02000000
02000000
02000000
02000000
02000000
02000000
02000000
02000000
02000000
02000000
02000000
0203F800
021C0700
02300180
02400040
02800040
03000020
03000020
02000010
02000010
02000010
02000010
02000010
02000010
02000010
02000010
02000010
02000010
02000010
02000010
02000010
02000010
02000010
02000010
02000010
02000010
02000010
ENDCHAR
STARTCHAR 0126
ENCODING 294
SWIDTH 800 0
DWIDTH 40 0
BBX 39 35 1 0
BITMAP
0200000080
0200000080
0200000080
0200000080
0200000080
0200000080
0200000080
0200000080
FFFFFFFFFE
0200000080
0200000080
0200000080
0200000080
0200000080
0200000080
0200000080
0200000080
03FFFFFF80
0200000080
0200000080
0200000080
0200000080
0200000080
0200000080
0200000080
0200000080
0200000080
0200000080
0200000080
0200000080
0200000080
0200000080
0200000080
0200000080
0200000080
ENDCHAR
STARTCHAR 0127
ENCODING 295
SWIDTH 660 0
DWIDTH 33 0
BBX 28 37 0 0
BITMAP
02000000
02000000
02000000
02000000
02000000
FFFFE000
02000000
02000000
02000000
02000000
02000000
0203F800
021C0700
02300180
02400040
02800040
03000020
03000020
02000010
02000010
02000010
02000010
02000010
02000010
02000010
02000010
02000010
02000010
02000010
02000010
02000010
02000010
02000010
02000010
02000010
02000010
02000010
ENDCHAR
STARTCHAR 0128
ENCODING 296
SWIDTH 280 0
DWIDTH 14 0
BBX 14 43 0 0
BITMAP
3804
6604
4108
80D8
0020
0000
0000
0000
0100
0100
0100
0100
0100
0100
0100
0100
0100
0100
0100
0100
0100
0100
0100
0100
0100
0100
0100
0100
0100
0100
0100
0100
0100
0100
0100
0100
0100
0100
0100
0100
0100
0100
0100
ENDCHAR
STARTCHAR 0129
ENCODING 297
SWIDTH 240 0
DWIDTH 12 0
BBX 11 35 1 0
BITMAP
7820
8C20
8640
8380
0000
0000
0000
0000
0000
0400
0400
0400
0400
0400
0400
0400
0400
0400
0400
0400
0400
0400
0400
0400
0400
0400
0400
0400
0400
0400
0400
0400
0400
0400
0400
ENDCHAR
STARTCHAR 012A
ENCODING 298
SWIDTH 280 0
DWIDTH 14 0
BBX 11 41 2 0
BITMAP
FFE0
0000
0000
0000
0000
0000
0400
0400
0400
0400
0400
0400
0400
0400
0400
0400
0400
0400
0400
0400
0400
0400
0400
0400
0400
0400
0400
0400
0400
0400
0400
0400
0400
0400
0400
0400
0400
0400
0400
0400
0400
ENDCHAR
STARTCHAR 012B
ENCODING 299
SWIDTH 240 0
DWIDTH 12 0
BBX 11 34 1 0
BITMAP
FFE0
0000
0000
0000
0000
0000
0000
0000
0400
0400
0400
0400
0400
0400
0400
0400
0400
0400
0400
0400
0400
0400
0400
0400
0400
0400
0400
0400
0400
0400
0400
0400
0400
0400
ENDCHAR
STARTCHAR 012C
ENCODING 300
SWIDTH 280 0
DWIDTH 14 0
BBX 13 43 1 0
BITMAP
8008
8010
C010
6060
1FC0
0000
0000
0000
0200
0200
0200
0200
0200
0200
0200
0200
0200
0200
0200
0200
0200
0200
0200
0200
0200
0200
0200
0200
0200
0200
0200
0200
0200
0200
0200
0200
0200
0200
0200
0200
0200
0200
0200
ENDCHAR
STARTCHAR 012D
ENCODING 301
SWIDTH 240 0
DWIDTH 12 0
BBX 11 36 1 0
BITMAP
8020
8040
8040
40C0
2180
0E00
0000
0000
0000
0000
0400
0400
0400
0400
0400
0400
0400
0400
0400
0400
0400
0400
0400
0400
0400
0400
0400
0400
0400
0400
0400
0400
0400
0400
0400
0400
ENDCHAR
STARTCHAR 012E
ENCODING 302
SWIDTH 280 0
DWIDTH 14 0
BBX 6 46 4 -11
BITMAP
10
10
10
10
10
10
10
10
10
10
10
10
10
10
10
10
10
10
10
10
10
10
10
10
10
10
10
10
10
10
10
10
10
10
10
20
40
40
80
80
80
80
80
80
4C
30
ENDCHAR
STARTCHAR 012F
ENCODING 303
SWIDTH 240 0
DWIDTH 12 0
BBX 6 46 3 -10
BITMAP
38
30
00
00
00
00
00
00
00
10
10
10
10
10
10
10
10
10
10
10
10
10
10
10
10
10
10
10
10
10
10
10
10
10
10
20
60
40
80
80
80
80
80
80
4C
10
ENDCHAR
STARTCHAR 0130
ENCODING 304
SWIDTH 280 0
DWIDTH 14 0
BBX 2 42 6 0
BITMAP
C0
C0
00
00
00
00
00
40
40
40
40
40
40
40
40
40
40
40
40
40
40
40
40
40
40
40
40
40
40
40
40
40
40
40
40
40
40
40
40
40
40
40
ENDCHAR
STARTCHAR 0131
ENCODING 305
SWIDTH 240 0
DWIDTH 12 0
BBX 1 26 6 0
BITMAP
80
80
80
80
80
80
80
80
80
80
80
80
80
80
80
80
80
80
80
80
80
80
80
80
80
80
ENDCHAR
STARTCHAR 0132
ENCODING 306
SWIDTH 700 0
DWIDTH 35 0
BBX 23 35 6 0
BITMAP
800002
800002
800002
800002
800002
800002
800002
800002
800002
800002
800002
800002
800002
800002
800002
800002
800002
800002
800002
800002
800002
000002
000002
000002
000002
000002
000006
000004
000004
000008
000018
800030
600060
1C0180
03FE00
ENDCHAR
STARTCHAR 0133
ENCODING 307
SWIDTH 500 0
DWIDTH 25 0
BBX 15 46 5 -10
BITMAP
0002
E006
C006
0000
0000
0000
0000
0000
0000
0000
4006
4006
4006
4006
4006
4006
4006
4006
4006
4006
4006
4006
4006
4006
4006
4006
4006
4006
4006
4006
4006
4006
4006
4006
4006
4006
0006
0006
0006
0006
0004
0004
0004
0008
0C10
03C0
ENDCHAR
STARTCHAR 0134
ENCODING 308
SWIDTH 460 0
DWIDTH 23 0
BBX 18 43 0 0
BITMAP
007000
008800
030400
060300
0C0180
000000
000000
000000
1FFFC0
0000C0
0000C0
0000C0
0000C0
0000C0
0000C0
0000C0
0000C0
0000C0
0000C0
0000C0
0000C0
0000C0
0000C0
0000C0
0000C0
0000C0
0000C0
0000C0
0000C0
0000C0
0000C0
0000C0
0000C0
0000C0
000080
000080
000080
000080
C00180
400100
300300
180400
07F800
ENDCHAR
STARTCHAR 0135
ENCODING 309
SWIDTH 240 0
DWIDTH 12 0
BBX 16 46 -4 -10
BITMAP
0070
0050
0088
0104
0202
0401
0000
0000
0000
0000
0020
0020
0020
0020
0020
0020
0020
0020
0020
0020
0020
0020
0020
0020
0020
0020
0020
0020
0020
0020
0020
0020
0020
0020
0020
0020
0020
0020
0020
0020
0020
0020
0040
8040
C180
1E00
ENDCHAR
STARTCHAR 0136
ENCODING 310
SWIDTH 680 0
DWIDTH 34 0
BBX 26 47 7 -13
BITMAP
80000080
80000100
80000200
80000400
80000800
80001000
80002000
80004000
80008000
80010000
80030000
80060000
800C0000
80180000
80300000
80600000
80C00000
81A00000
83100000
86080000
8C040000
98020000
B0030000
E0018000
C000C000
80004000
80002000
80001000
80000800
80000400
80000200
80000300
80000180
800000C0
80000040
00000000
00000000
00000000
00000000
00000000
00000000
00100000
00380000
00180000
00100000
00100000
00100000
ENDCHAR
STARTCHAR 0137
ENCODING 311
SWIDTH 560 0
DWIDTH 28 0
BBX 21 50 6 -13
BITMAP
800000
800000
800000
800000
800000
800000
800000
800000
800000
800000
800000
800010
800020
8000C0
800180
800300
800600
800C00
801000
802000
804000
808000
814000
862000
8C3000
981000
B00800
C00400
800200
800300
800100
800080
800040
800060
800030
800010
800008
000000
000000
000000
000000
000000
000000
004000
00E000
006000
004000
004000
004000
008000
ENDCHAR
STARTCHAR 0138
ENCODING 312
SWIDTH 540 0
DWIDTH 27 0
BBX 21 26 6 0
BITMAP
800010
800020
8000C0
800180
800300
800600
800C00
801000
802000
804000
808000
814000
862000
8C3000
981000
B00800
C00400
800200
800300
800100
800080
800040
800060
800030
800010
800008
ENDCHAR
STARTCHAR 0139
ENCODING 313
SWIDTH 580 0
DWIDTH 29 0
BBX 23 43 6 0
BITMAP
060000
080000
300000
600000
800000
000000
000000
000000
400000
400000
400000
400000
400000
400000
400000
400000
400000
400000
400000
400000
400000
400000
400000
400000
400000
400000
400000
400000
400000
400000
400000
400000
400000
400000
400000
400000
400000
400000
400000
400000
400000
400000
7FFFFE
ENDCHAR
STARTCHAR 013A
ENCODING 314
SWIDTH 240 0
DWIDTH 12 0
BBX 7 47 5 0
BITMAP
06
0C
10
60
C0
00
00
00
00
00
40
40
40
40
40
40
40
40
40
40
40
40
40
40
40
40
40
40
40
40
40
40
40
40
40
40
40
40
40
40
40
40
40
40
40
40
40
ENDCHAR
STARTCHAR 013B
ENCODING 315
SWIDTH 580 0
DWIDTH 29 0
BBX 22 48 7 -13
BITMAP
800000
800000
800000
800000
800000
800000
800000
800000
800000
800000
800000
800000
800000
800000
800000
800000
800000
800000
800000
800000
800000
800000
800000
800000
800000
800000
800000
800000
800000
800000
800000
800000
800000
800000
FFFFFC
000000
000000
000000
000000
000000
000000
003000
003000
003000
001000
001000
002000
002000
ENDCHAR
STARTCHAR 013C
ENCODING 316
SWIDTH 240 0
DWIDTH 12 0
BBX 3 50 5 -13
BITMAP
40
40
40
40
40
40
40
40
40
40
40
40
40
40
40
40
40
40
40
40
40
40
40
40
40
40
40
40
40
40
40
40
40
40
40
40
40
00
00
00
00
00
00
40
E0
40
40
40
C0
80
ENDCHAR
STARTCHAR 013D
ENCODING 317
SWIDTH 580 0
DWIDTH 29 0
BBX 22 36 7 0
BITMAP
000100
800100
800100
800100
800100
800100
800100
800100
800100
800000
800000
800000
800000
800000
800000
800000
800000
800000
800000
800000
800000
800000
800000
800000
800000
800000
800000
800000
800000
800000
800000
800000
800000
800000
800000
FFFFFC
ENDCHAR
STARTCHAR 013E
ENCODING 318
SWIDTH 240 0
DWIDTH 12 0
BBX 7 38 6 0
BITMAP
02
82
82
82
82
82
82
82
82
80
80
80
80
80
80
80
80
80
80
80
80
80
80
80
80
80
80
80
80
80
80
80
80
80
80
80
80
80
ENDCHAR
STARTCHAR 013F
ENCODING 319
SWIDTH 580 0
DWIDTH 29 0
BBX 22 35 7 0
BITMAP
800000
800000
800000
800000
800000
800000
800000
800000
800000
800000
800000
800000
800000
800000
800000
800000
800700
800700
800000
800000
800000
800000
800000
800000
800000
800000
800000
800000
800000
800000
800000
800000
800000
800000
FFFFFC
ENDCHAR
STARTCHAR 0140
ENCODING 320
SWIDTH 240 0
DWIDTH 12 0
BBX 8 37 6 0
BITMAP
80
80
80
80
80
80
80
80
80
80
80
80
80
80
80
80
80
80
82
87
82
80
80
80
80
80
80
80
80
80
80
80
80
80
80
80
80
ENDCHAR
STARTCHAR 0141
ENCODING 321
SWIDTH 580 0
DWIDTH 29 0
BBX 27 35 2 0
BITMAP
04000000
04000000
04000000
04000000
04000000
04000000
04000000
04000000
04000000
04000000
04000000
04000000
04300000
04600000
04800000
07000000
06000000
0C000000
34000000
44000000
84000000
04000000
04000000
04000000
04000000
04000000
04000000
04000000
04000000
04000000
04000000
04000000
04000000
04000000
07FFFFE0
ENDCHAR
STARTCHAR 0142
ENCODING 322
SWIDTH 240 0
DWIDTH 12 0
BBX 10 37 1 0
BITMAP
0400
0400
0400
0400
0400
0400
0400
0400
0400
0400
0400
0400
0400
0400
0400
0400
0440
0580
0600
0C00
1C00
2400
C400
0400
0400
0400
0400
0400
0400
0400
0400
0400
0400
0400
0400
0400
0400
ENDCHAR
STARTCHAR 0143
ENCODING 323
SWIDTH 800 0
DWIDTH 40 0
BBX 27 43 7 0
BITMAP
00006000
0000C000
00010000
00060000
000C0000
00000000
00000000
00000000
80000020
C0000020
C0000020
A0000020
90000020
98000020
8C000020
84000020
82000020
81000020
81800020
80800020
80400020
80200020
80300020
80180020
80080020
80040020
80020020
80030020
80010020
80008020
80004020
80006020
80002020
80001020
80000820
80000C20
80000620
80000220
80000120
800000A0
800000E0
80000060
80000020
ENDCHAR
STARTCHAR 0144
ENCODING 324
SWIDTH 660 0
DWIDTH 33 0
BBX 22 36 6 0
BITMAP
000180
000300
000400
001800
003000
004000
000000
000000
000000
000000
80FE00
8701C0
8C0060
900010
A00010
C00008
C00008
800004
800004
800004
800004
800004
800004
800004
800004
800004
800004
800004
800004
800004
800004
800004
800004
800004
800004
800004
ENDCHAR
STARTCHAR 0145
ENCODING 325
SWIDTH 800 0
DWIDTH 40 0
BBX 27 48 7 -13
BITMAP
80000020
C0000020
C0000020
A0000020
90000020
98000020
8C000020
84000020
82000020
81000020
81800020
80800020
80400020
80200020
80300020
80180020
80080020
80040020
80020020
80030020
80010020
80008020
80004020
80006020
80002020
80001020
80000820
80000C20
80000620
80000220
80000120
800000A0
800000E0
80000060
80000020
00000000
00000000
00000000
00000000
00000000
00000000
00040000
000E0000
00060000
00040000
00040000
00040000
00080000
ENDCHAR
STARTCHAR 0146
ENCODING 326
SWIDTH 660 0
DWIDTH 33 0
BBX 22 39 6 -13
BITMAP
80FE00
8701C0
8C0060
900010
A00010
C00008
C00008
800004
800004
800004
800004
800004
800004
800004
800004
800004
800004
800004
800004
800004
800004
800004
800004
800004
800004
800004
000000
000000
000000
000000
000000
000000
002000
007000
003000
003000
002000
002000
002000
ENDCHAR
STARTCHAR 0147
ENCODING 327
SWIDTH 800 0
DWIDTH 40 0
BBX 27 43 7 0
BITMAP
01803000
00404000
00208000
00130000
000E0000
00000000
00000000
00000000
80000020
C0000020
C0000020
A0000020
90000020
98000020
8C000020
84000020
82000020
81000020
81800020
80800020
80400020
80200020
80300020
80180020
80080020
80040020
80020020
80030020
80010020
80008020
80004020
80006020
80002020
80001020
80000820
80000C20
80000620
80000220
80000120
800000A0
800000E0
80000060
80000020
ENDCHAR
STARTCHAR 0148
ENCODING 328
SWIDTH 660 0
DWIDTH 33 0
BBX 22 36 6 0
BITMAP
0C0080
060100
030600
008C00
005800
003000
000000
000000
000000
000000
80FE00
8701C0
8C0060
900010
A00010
C00008
C00008
800004
800004
800004
800004
800004
800004
800004
800004
800004
800004
800004
800004
800004
800004
800004
800004
800004
800004
800004
ENDCHAR
STARTCHAR 0149
ENCODING 329
SWIDTH 700 0
DWIDTH 35 0
BBX 27 37 3 0
BITMAP
E0000000
E0000000
20000000
40000000
40000000
40000000
40000000
80000000
80000000
00000000
00000000
0407F000
04380E00
04400300
04800180
05000080
06000040
06000040
04000020
04000020
04000020
04000020
04000020
04000020
04000020
04000020
04000020
04000020
04000020
04000020
04000020
04000020
04000020
04000020
04000020
04000020
04000020
ENDCHAR
STARTCHAR 014A
ENCODING 330
SWIDTH 800 0
DWIDTH 40 0
BBX 27 45 7 -10
BITMAP
80000020
C0000020
C0000020
A0000020
90000020
98000020
8C000020
84000020
82000020
81000020
81800020
80800020
80400020
80200020
80300020
80180020
80080020
80040020
80020020
80030020
80010020
80008020
80004020
80006020
80002020
80001020
80000820
80000C20
80000620
80000220
80000120
800000A0
800000E0
80000060
80000020
00000020
00000020
00000020
00000020
00200060
00200040
001000C0
000C0180
00070700
0000FC00
ENDCHAR
STARTCHAR 014B
ENCODING 331
SWIDTH 660 0
DWIDTH 33 0
BBX 22 36 6 -10
BITMAP
80FE00
8701C0
8C0060
900010
A00010
C00008
C00008
800004
800004
800004
800004
800004
800004
800004
800004
800004
800004
800004
800004
800004
800004
800004
800004
800004
800004
800004
000004
000004
000004
000004
000004
000004
000008
001008
001830
0003C0
ENDCHAR
STARTCHAR 014C
ENCODING 332
SWIDTH 820 0
DWIDTH 41 0
BBX 36 41 3 0
BITMAP
001FFF8000
0000000000
0000000000
0000000000
0000000000
0000000000
0007FE0000
003801C000
00C0003000
0100001800
0600000400
0C00000200
0800000100
1000000080
2000000080
2000000040
4000000060
4000000020
4000000020
8000000020
8000000010
8000000010
8000000010
8000000010
8000000010
8000000010
8000000010
8000000020
4000000020
4000000020
4000000060
2000000040
2000000080
1000000080
0800000100
0C00000200
0600000400
0100001800
00C0003000
003801C000
0007FE0000
ENDCHAR
STARTCHAR 014D
ENCODING 333
SWIDTH 600 0
DWIDTH 30 0
BBX 25 34 3 0
BITMAP
07FFE000
00000000
00000000
00000000
00000000
00000000
00000000
00000000
007F0000
0380C000
04003000
18000800
10000400
20000600
40000200
40000100
80000100
80000100
80000080
80000080
80000080
80000080
80000080
80000080
80000100
80000100
40000100
40000200
20000200
30000400
18000800
0C003000
0300E000
00FF8000
ENDCHAR
STARTCHAR 014E
ENCODING 334
SWIDTH 820 0
DWIDTH 41 0
BBX 36 43 3 0
BITMAP
0010010000
0008010000
0008030000
0006060000
0003F80000
0000000000
0000000000
0000000000
0007FE0000
003801C000
00C0003000
0100001800
0600000400
0C00000200
0800000100
1000000080
2000000080
2000000040
4000000060
4000000020
4000000020
8000000020
8000000010
8000000010
8000000010
8000000010
8000000010
8000000010
8000000010
8000000020
4000000020
4000000020
4000000060
2000000040
2000000080
1000000080
0800000100
0C00000200
0600000400
0100001800
00C0003000
003801C000
0007FE0000
ENDCHAR
STARTCHAR 014F
ENCODING 335
SWIDTH 600 0
DWIDTH 30 0
BBX 25 36 3 0
BITMAP
02002000
02002000
02004000
0100C000
00C38000
003E0000
00000000
00000000
00000000
00000000
007F0000
0380C000
04003000
18000800
10000400
20000600
40000200
40000100
80000100
80000100
80000080
80000080
80000080
80000080
80000080
80000080
80000100
80000100
40000100
40000200
20000200
30000400
18000800
0C003000
0300E000
00FF8000
ENDCHAR
STARTCHAR 0150
ENCODING 336
SWIDTH 820 0
DWIDTH 41 0
BBX 36 43 3 0
BITMAP
0000306000
000060C000
0000C18000
0001830000
0003060000
0000000000
0000000000
0000000000
0007FE0000
003801C000
00C0003000
0100001800
0600000400
0C00000200
0800000100
1000000080
2000000080
2000000040
4000000060
4000000020
4000000020
8000000020
8000000010
8000000010
8000000010
8000000010
8000000010
8000000010
8000000010
8000000020
4000000020
4000000020
4000000060
2000000040
2000000080
1000000080
0800000100
0C00000200
0600000400
0100001800
00C0003000
003801C000
0007FE0000
ENDCHAR
STARTCHAR 0151
ENCODING 337
SWIDTH 600 0
DWIDTH 30 0
BBX 25 36 3 0
BITMAP
00060C00
000C1800
00183000
00306000
0060C000
00C18000
00000000
00000000
00000000
00000000
007F0000
0380C000
04003000
18000800
10000400
20000600
40000200
40000100
80000100
80000100
80000080
80000080
80000080
80000080
80000080
80000080
80000100
80000100
40000100
40000200
20000200
30000400
18000800
0C003000
0300E000
00FF8000
ENDCHAR
STARTCHAR 0152
ENCODING 338
SWIDTH 1100 0
DWIDTH 55 0
BBX 49 35 3 0
BITMAP
0003FFFFFFFF00
003C0020000000
00E00020000000
01800020000000
02000020000000
04000020000000
08000020000000
10000020000000
20000020000000
20000020000000
40000020000000
40000020000000
40000020000000
80000020000000
80000020000000
80000020000000
80000020000000
8000003FFFFC00
80000020000000
80000020000000
80000020000000
80000020000000
40000020000000
40000020000000
40000020000000
20000020000000
20000020000000
10000020000000
08000020000000
0C000020000000
06000020000000
01000020000000
00C00020000000
00380020000000
0007FFFFFFFF80
ENDCHAR
STARTCHAR 0153
ENCODING 339
SWIDTH 1060 0
DWIDTH 53 0
BBX 48 26 3 0
BITMAP
007F0000FE00
0380C00301C0
040030040060
180008180010
100004100008
200006200004
400002400004
400001400002
800001C00002
800001800002
800000800001
800000800001
800000FFFFFF
800000800000
800000800000
800000800000
800001800000
800001800000
400001400000
400002400000
200002200000
300004100004
18000808000C
0C0030040018
0300E0038060
00FF8000FF80
ENDCHAR
STARTCHAR 0154
ENCODING 340
SWIDTH 700 0
DWIDTH 35 0
BBX 25 43 7 0
BITMAP
00018000
00030000
000C0000
00180000
00200000
00000000
00000000
00000000
FFFF0000
8000E000
80001800
80000400
80000200
80000100
80000100
80000080
80000080
80000080
80000080
80000080
80000080
80000080
80000080
80000080
80000100
80000100
80000200
80000400
80001800
8000E000
FFFF8000
80008000
80004000
80002000
80003000
80001000
80000800
80000400
80000600
80000200
80000100
80000180
80000080
ENDCHAR
STARTCHAR 0155
ENCODING 341
SWIDTH 380 0
DWIDTH 19 0
BBX 12 36 6 0
BITMAP
0030
00C0
0180
0300
0400
1800
0000
0000
0000
0000
81E0
8600
8800
9000
A000
C000
C000
8000
8000
8000
8000
8000
8000
8000
8000
8000
8000
8000
8000
8000
8000
8000
8000
8000
8000
8000
ENDCHAR
STARTCHAR 0156
ENCODING 342
SWIDTH 700 0
DWIDTH 35 0
BBX 25 48 7 -13
BITMAP
FFFF0000
8000E000
80001800
80000400
80000200
80000100
80000100
80000080
80000080
80000080
80000080
80000080
80000080
80000080
80000080
80000080
80000100
80000100
80000200
80000400
80001800
8000E000
FFFF8000
80008000
80004000
80002000
80003000
80001000
80000800
80000400
80000600
80000200
80000100
80000180
80000080
00000000
00000000
00000000
00000000
00000000
00000000
00300000
00380000
00100000
00100000
00100000
00100000
00200000
ENDCHAR
STARTCHAR 0157
ENCODING 343
SWIDTH 380 0
DWIDTH 19 0
BBX 12 39 5 -13
BITMAP
40F0
4300
4400
4800
5000
6000
6000
4000
4000
4000
4000
4000
4000
4000
4000
4000
4000
4000
4000
4000
4000
4000
4000
4000
4000
4000
0000
0000
0000
0000
0000
0000
4000
E000
4000
4000
4000
C000
8000
ENDCHAR
STARTCHAR 0158
ENCODING 344
SWIDTH 700 0
DWIDTH 35 0
BBX 25 43 7 0
BITMAP
0600C000
03010000
00860000
004C0000
00380000
00000000
00000000
00000000
FFFF0000
8000E000
80001800
80000400
80000200
80000100
80000100
80000080
80000080
80000080
80000080
80000080
80000080
80000080
80000080
80000080
80000100
80000100
80000200
80000400
80001800
8000E000
FFFF8000
80008000
80004000
80002000
80003000
80001000
80000800
80000400
80000600
80000200
80000100
80000180
80000080
ENDCHAR
STARTCHAR 0159
ENCODING 345
SWIDTH 380 0
DWIDTH 19 0
BBX 13 36 5 0
BITMAP
8018
4030
3060
18C0
0D00
0600
0000
0000
0000
0000
40F0
4300
4400
4800
5000
6000
6000
4000
4000
4000
4000
4000
4000
4000
4000
4000
4000
4000
4000
4000
4000
4000
4000
4000
4000
4000
ENDCHAR
STARTCHAR 015A
ENCODING 346
SWIDTH 600 0
DWIDTH 30 0
BBX 24 43 3 0
BITMAP
000060
000180
000300
000400
001800
000000
000000
000000
01FF80
070070
08000C
100000
200000
200000
400000
400000
400000
400000
400000
400000
200000
300000
180000
060000
01C000
003C00
0003C0
000030
000008
000006
000002
000001
000001
000001
000001
000001
000001
000003
C00002
600004
180008
0E0070
01FFC0
ENDCHAR
STARTCHAR 015B
ENCODING 347
SWIDTH 460 0
DWIDTH 23 0
BBX 19 36 2 0
BITMAP
000300
000600
001800
003000
004000
008000
000000
000000
000000
000000
03FC00
0C0300
3000C0
600000
400000
400000
400000
400000
400000
400000
300000
180000
078000
007C00
000300
0000C0
000060
000020
000020
000020
000020
000020
800060
6000C0
380180
07FC00
ENDCHAR
STARTCHAR 015C
ENCODING 348
SWIDTH 600 0
DWIDTH 30 0
BBX 24 43 3 0
BITMAP
001E00
003300
006180
0080C0
010020
000000
000000
000000
01FF80
070070
08000C
100000
200000
200000
400000
400000
400000
400000
400000
400000
200000
300000
180000
060000
01C000
003C00
0003C0
000030
000008
000006
000002
000001
000001
000001
000001
000001
000001
000003
C00002
600004
180008
0E0070
01FFC0
ENDCHAR
STARTCHAR 015D
ENCODING 349
SWIDTH 460 0
DWIDTH 23 0
BBX 19 36 2 0
BITMAP
00E000
01B000
031800
060400
080200
100100
000000
000000
000000
000000
03FC00
0C0300
3000C0
600000
400000
400000
400000
400000
400000
400000
300000
180000
078000
007C00
000300
0000C0
000060
000020
000020
000020
000020
000020
800060
6000C0
380180
07FC00
ENDCHAR
STARTCHAR 015E
ENCODING 350
SWIDTH 600 0
DWIDTH 30 0
BBX 24 46 3 -11
BITMAP
01FF80
070070
08000C
100000
200000
200000
400000
400000
400000
400000
400000
400000
200000
300000
180000
060000
01C000
003C00
0003C0
000030
000008
000006
000002
000001
000001
000001
000001
000001
000001
000003
C00002
600004
180008
0E0070
01FFC0
000800
000800
000800
001E00
000100
000100
000080
000080
000100
006600
001800
ENDCHAR
STARTCHAR 015F
ENCODING 351
SWIDTH 460 0
DWIDTH 23 0
BBX 19 37 2 -11
BITMAP
03FC00
0C0300
3000C0
600000
400000
400000
400000
400000
400000
400000
300000
180000
078000
007C00
000300
0000C0
000060
000020
000020
000020
000020
000020
800060
6000C0
380180
07FC00
004000
004000
008000
00F000
001800
000800
000800
000800
000800
073000
00C000
ENDCHAR
STARTCHAR 0160
ENCODING 352
SWIDTH 600 0
DWIDTH 30 0
BBX 24 43 3 0
BITMAP
010060
00C0C0
006180
003300
001C00
000000
000000
000000
01FF80
070070
08000C
100000
200000
200000
400000
400000
400000
400000
400000
400000
200000
300000
180000
060000
01C000
003C00
0003C0
000030
000008
000006
000002
000001
000001
000001
000001
000001
000001
000003
C00002
600004
180008
0E0070
01FFC0
ENDCHAR
STARTCHAR 0161
ENCODING 353
SWIDTH 460 0
DWIDTH 23 0
BBX 19 36 2 0
BITMAP
100100
0C0200
060C00
031800
01B000
006000
000000
000000
000000
000000
03FC00
0C0300
3000C0
600000
400000
400000
400000
400000
400000
400000
300000
180000
078000
007C00
000300
0000C0
000060
000020
000020
000020
000020
000020
800060
6000C0
380180
07FC00
ENDCHAR
STARTCHAR 0162
ENCODING 354
SWIDTH 540 0
DWIDTH 27 0
BBX 27 46 0 -11
BITMAP
FFFFFFE0
00040000
00040000
00040000
00040000
00040000
00040000
00040000
00040000
00040000
00040000
00040000
00040000
00040000
00040000
00040000
00040000
00040000
00040000
00040000
00040000
00040000
00040000
00040000
00040000
00040000
00040000
00040000
00040000
00040000
00040000
00040000
00040000
00040000
00040000
00040000
00040000
00080000
000F0000
00018000
00008000
00008000
00008000
00008000
00730000
001C0000
ENDCHAR
STARTCHAR 0163
ENCODING 355
SWIDTH 380 0
DWIDTH 19 0
BBX 16 43 1 -11
BITMAP
0400
0400
0400
0400
0400
0400
FFFE
0400
0400
0400
0400
0400
0400
0400
0400
0400
0400
0400
0400
0400
0400
0400
0400
0400
0400
0400
0400
0400
0200
0200
0183
00FE
0020
0020
0020
0038
0004
0002
0002
0002
0004
018C
0060
ENDCHAR
STARTCHAR 0164
ENCODING 356
SWIDTH 540 0
DWIDTH 27 0
BBX 27 43 0 0
BITMAP
01803000
00406000
00308000
00190000
000E0000
00000000
00000000
00000000
FFFFFFE0
00040000
00040000
00040000
00040000
00040000
00040000
00040000
00040000
00040000
00040000
00040000
00040000
00040000
00040000
00040000
00040000
00040000
00040000
00040000
00040000
00040000
00040000
00040000
00040000
00040000
00040000
00040000
00040000
00040000
00040000
00040000
00040000
00040000
00040000
ENDCHAR
STARTCHAR 0165
ENCODING 357
SWIDTH 380 0
DWIDTH 19 0
BBX 16 38 1 0
BITMAP
0010
0010
0010
0010
0010
0010
0410
0410
0400
0400
0400
0400
FFFE
0400
0400
0400
0400
0400
0400
0400
0400
0400
0400
0400
0400
0400
0400
0400
0400
0400
0400
0400
0400
0400
0200
0200
0183
00FE
ENDCHAR
STARTCHAR 0166
ENCODING 358
SWIDTH 540 0
DWIDTH 27 0
BBX 27 35 0 0
BITMAP
FFFFFFE0
00040000
00040000
00040000
00040000
00040000
00040000
00040000
00040000
00040000
00040000
00040000
00040000
00040000
00040000
00040000
00040000
07FFFE00
00040000
00040000
00040000
00040000
00040000
00040000
00040000
00040000
00040000
00040000
00040000
00040000
00040000
00040000
00040000
00040000
00040000
ENDCHAR
STARTCHAR 0167
ENCODING 359
SWIDTH 380 0
DWIDTH 19 0
BBX 16 32 1 0
BITMAP
0400
0400
0400
0400
0400
0400
FFFE
0400
0400
0400
0400
0400
0400
0400
0400
0400
7FFE
0400
0400
0400
0400
0400
0400
0400
0400
0400
0400
0200
0200
0300
0181
00FE
ENDCHAR
STARTCHAR 0168
ENCODING 360
SWIDTH 780 0
DWIDTH 39 0
BBX 27 43 6 0
BITMAP
00700800
008C1000
01861000
01036000
00000000
00000000
00000000
00000000
80000020
80000020
80000020
80000020
80000020
80000020
80000020
80000020
80000020
80000020
80000020
80000020
80000020
80000020
80000020
80000020
80000020
80000020
80000020
80000020
80000020
80000020
80000020
40000020
40000020
40000020
40000060
60000040
20000040
30000080
10000180
08000300
06000600
01801800
007FE000
ENDCHAR
STARTCHAR 0169
ENCODING 361
SWIDTH 660 0
DWIDTH 33 0
BBX 22 35 5 0
BITMAP
03E040
043040
041880
040700
000000
000000
000000
000000
000000
800004
800004
800004
800004
800004
800004
800004
800004
800004
800004
800004
800004
800004
800004
800004
800004
800004
400004
400004
40000C
40000C
200014
300034
180064
060184
01FE04
ENDCHAR
STARTCHAR 016A
ENCODING 362
SWIDTH 780 0
DWIDTH 39 0
BBX 27 41 6 0
BITMAP
01FFF800
00000000
00000000
00000000
00000000
00000000
80000020
80000020
80000020
80000020
80000020
80000020
80000020
80000020
80000020
80000020
80000020
80000020
80000020
80000020
80000020
80000020
80000020
80000020
80000020
80000020
80000020
80000020
80000020
40000020
40000020
40000020
40000060
60000040
20000040
30000080
10000180
08000300
06000600
01801800
007FE000
ENDCHAR
STARTCHAR 016B
ENCODING 363
SWIDTH 660 0
DWIDTH 33 0
BBX 22 34 5 0
BITMAP
07FFC0
000000
000000
000000
000000
000000
000000
000000
800004
800004
800004
800004
800004
800004
800004
800004
800004
800004
800004
800004
800004
800004
800004
800004
800004
400004
400004
40000C
40000C
200014
300034
180064
060184
01FE04
ENDCHAR
STARTCHAR 016C
ENCODING 364
SWIDTH 780 0
DWIDTH 39 0
BBX 27 43 6 0
BITMAP
01001000
00801000
00803000
00606000
003F8000
00000000
00000000
00000000
80000020
80000020
80000020
80000020
80000020
80000020
80000020
80000020
80000020
80000020
80000020
80000020
80000020
80000020
80000020
80000020
80000020
80000020
80000020
80000020
80000020
80000020
80000020
40000020
40000020
40000020
40000060
60000040
20000040
30000080
10000180
08000300
06000600
01801800
007FE000
ENDCHAR
STARTCHAR 016D
ENCODING 365
SWIDTH 660 0
DWIDTH 33 0
BBX 22 36 5 0
BITMAP
040040
040040
0600C0
020180
018300
007800
000000
000000
000000
000000
800004
800004
800004
800004
800004
800004
800004
800004
800004
800004
800004
800004
800004
800004
800004
800004
800004
400004
400004
40000C
40000C
200014
300034
180064
060184
01FE04
ENDCHAR
STARTCHAR 016E
ENCODING 366
SWIDTH 780 0
DWIDTH 39 0
BBX 27 48 6 0
BITMAP
001F0000
00308000
00204000
00404000
00404000
00404000
00204000
00308000
000F0000
00000000
00000000
00000000
00000000
80000020
80000020
80000020
80000020
80000020
80000020
80000020
80000020
80000020
80000020
80000020
80000020
80000020
80000020
80000020
80000020
80000020
80000020
80000020
80000020
80000020
80000020
80000020
40000020
40000020
40000020
40000060
60000040
20000040
30000080
10000180
08000300
06000600
01801800
007FE000
ENDCHAR
STARTCHAR 016F
ENCODING 367
SWIDTH 660 0
DWIDTH 33 0
BBX 22 39 5 0
BITMAP
007C00
00C600
010300
010100
010100
010100
010100
008200
007C00
000000
000000
000000
000000
800004
800004
800004
800004
800004
800004
800004
800004
800004
800004
800004
800004
800004
800004
800004
800004
800004
400004
400004
40000C
40000C
200014
300034
180064
060184
01FE04
ENDCHAR
STARTCHAR 0170
ENCODING 368
SWIDTH 780 0
DWIDTH 39 0
BBX 27 43 6 0
BITMAP
00030600
00060C00
000C1800
00183000
00306000
00000000
00000000
00000000
80000020
80000020
80000020
80000020
80000020
80000020
80000020
80000020
80000020
80000020
80000020
80000020
80000020
80000020
80000020
80000020
80000020
80000020
80000020
80000020
80000020
80000020
80000020
40000020
40000020
40000020
40000060
60000040
20000040
30000080
10000180
08000300
06000600
01801800
007FE000
ENDCHAR
STARTCHAR 0171
ENCODING 369
SWIDTH 660 0
DWIDTH 33 0
BBX 22 36 5 0
BITMAP
000C18
001830
003060
0060C0
00C180
018300
000000
000000
000000
000000
800004
800004
800004
800004
800004
800004
800004
800004
800004
800004
800004
800004
800004
800004
800004
800004
800004
400004
400004
40000C
40000C
200014
300034
180064
060184
01FE04
ENDCHAR
STARTCHAR 0172
ENCODING 370
SWIDTH 780 0
DWIDTH 39 0
BBX 27 46 6 -11
BITMAP
80000020
80000020
80000020
80000020
80000020
80000020
80000020
80000020
80000020
80000020
80000020
80000020
80000020
80000020
80000020
80000020
80000020
80000020
80000020
80000020
80000020
80000020
80000020
40000020
40000020
40000020
40000040
60000040
20000040
30000080
10000180
08000300
06000600
01801800
007FE000
00030000
000C0000
00180000
00100000
00200000
00200000
00200000
00200000
00200000
0019C000
00060000
ENDCHAR
STARTCHAR 0173
ENCODING 371
SWIDTH 660 0
DWIDTH 33 0
BBX 23 37 5 -11
BITMAP
800004
800004
800004
800004
800004
800004
800004
800004
800004
800004
800004
800004
800004
800004
800004
800004
800004
400004
400004
40000C
40000C
200014
300034
180064
060184
01FE04
000018
000020
000040
000080
000180
000100
000100
000100
000080
0000C6
000018
ENDCHAR
STARTCHAR 0174
ENCODING 372
SWIDTH 1080 0
DWIDTH 54 0
BBX 50 43 2 0
BITMAP
000001E0000000
00000330000000
00000618000000
00000804000000
00001002000000
00000000000000
00000000000000
00000000000000
C00000C0000040
400000C0000080
400000C0000080
60000120000180
20000120000100
20000120000100
30000210000300
10000210000200
10000210000200
08000408000600
08000408000400
08000804000400
04000804000800
04000804000800
04001002000800
02001002001000
02001002001000
02002001001000
01002001002000
01002001002000
01004000802000
00804000804000
00804000804000
00808000404000
00408000408000
00408000408000
00410000208000
00210000210000
00230000310000
00220000110000
00120000120000
001400000A0000
001400000A0000
000C00000C0000
00080000040000
ENDCHAR
STARTCHAR 0175
ENCODING 373
SWIDTH 820 0
DWIDTH 41 0
BBX 40 36 1 0
BITMAP
0000180000
0000240000
0000420000
0001810000
000300C000
0006006000
0000000000
0000000000
0000000000
0000000000
8000180001
8000180001
8000180002
4000240002
4000240002
2000440004
2000420004
2000420008
1000810008
1000810008
0801010010
0801008010
0801008010
0402004020
0402004020
0402004040
0204002040
0204002040
0108002080
0108001080
0108001100
0090000900
0090000900
00A0000A00
0060000600
0060000600
ENDCHAR
STARTCHAR 0176
ENCODING 374
SWIDTH 600 0
DWIDTH 30 0
BBX 29 43 1 0
BITMAP
00070000
00198000
00304000
00602000
00801000
00000800
00000000
00000000
80000008
C0000010
40000020
20000020
20000040
100000C0
08000080
08000100
04000100
06000200
02000600
01000400
01000800
00801800
00C01000
00402000
00202000
00204000
0010C000
00088000
00090000
00050000
00060000
00020000
00020000
00020000
00020000
00020000
00020000
00020000
00020000
00020000
00020000
00020000
00020000
ENDCHAR
STARTCHAR 0177
ENCODING 375
SWIDTH 500 0
DWIDTH 25 0
BBX 27 46 -2 -10
BITMAP
00060000
00090000
00108000
00604000
00C03000
01801800
00000000
00000000
00000000
00000000
30000020
10000040
18000040
080000C0
08000080
04000180
04000100
02000100
02000200
01000200
01000400
00800400
00800800
00C00800
00401800
00401000
00203000
00202000
00102000
00104000
00084000
00088000
00048000
00050000
00030000
00020000
00020000
00060000
00040000
000C0000
00080000
00180000
00100000
C0200000
70C00000
0F000000
ENDCHAR
STARTCHAR 0178
ENCODING 376
SWIDTH 600 0
DWIDTH 30 0
BBX 29 42 1 0
BITMAP
00606000
00607000
00000000
00000000
00000000
00000000
00000000
80000008
C0000010
40000020
20000020
20000040
100000C0
08000080
08000100
04000100
06000200
02000600
01000400
01000800
00801800
00C01000
00402000
00202000
00204000
0010C000
00088000
00090000
00050000
00060000
00020000
00020000
00020000
00020000
00020000
00020000
00020000
00020000
00020000
00020000
00020000
00020000
ENDCHAR
STARTCHAR 0179
ENCODING 377
SWIDTH 620 0
DWIDTH 31 0
BBX 28 43 2 0
BITMAP
00003000
00004000
00018000
00030000
00040000
00000000
00000000
00000000
7FFFFFF0
00000020
00000040
00000080
00000180
00000100
00000200
00000400
00000C00
00001800
00001000
00002000
00004000
0000C000
00008000
00010000
00020000
00060000
00040000
00080000
00100000
00300000
00200000
00400000
00800000
01800000
03000000
02000000
04000000
08000000
18000000
10000000
20000000
40000000
FFFFFFF0
ENDCHAR
STARTCHAR 017A
ENCODING 378
SWIDTH 480 0
DWIDTH 24 0
BBX 20 36 2 0
BITMAP
000180
000600
000C00
001000
006000
00C000
000000
000000
000000
000000
7FFFF0
000020
000060
000040
000080
000100
000300
000200
000400
000800
001800
001000
002000
004000
00C000
008000
010000
020000
060000
040000
080000
100000
300000
200000
400000
FFFFF0
ENDCHAR
STARTCHAR 017B
ENCODING 379
SWIDTH 620 0
DWIDTH 31 0
BBX 28 42 2 0
BITMAP
00060000
00060000
00000000
00000000
00000000
00000000
00000000
7FFFFFF0
00000020
00000040
00000080
00000180
00000100
00000200
00000400
00000C00
00001800
00001000
00002000
00004000
0000C000
00008000
00010000
00020000
00060000
00040000
00080000
00100000
00300000
00200000
00400000
00800000
01800000
03000000
02000000
04000000
08000000
18000000
10000000
20000000
40000000
FFFFFFF0
ENDCHAR
STARTCHAR 017C
ENCODING 380
SWIDTH 480 0
DWIDTH 24 0
BBX 20 35 2 0
BITMAP
002000
007000
006000
000000
000000
000000
000000
000000
000000
7FFFF0
000020
000060
000040
000080
000100
000300
000200
000400
000800
001800
001000
002000
004000
00C000
008000
010000
020000
060000
040000
080000
100000
300000
200000
400000
FFFFF0
ENDCHAR
STARTCHAR 017D
ENCODING 381
SWIDTH 620 0
DWIDTH 31 0
BBX 28 43 2 0
BITMAP
00C01800
00602000
0030C000
00098000
00070000
00000000
00000000
00000000
7FFFFFF0
00000020
00000040
00000080
00000180
00000100
00000200
00000400
00000C00
00001800
00001000
00002000
00004000
0000C000
00008000
00010000
00020000
00060000
00040000
00080000
00100000
00300000
00200000
00400000
00800000
01800000
03000000
02000000
04000000
08000000
18000000
10000000
20000000
40000000
FFFFFFF0
ENDCHAR
STARTCHAR 017E
ENCODING 382
SWIDTH 480 0
DWIDTH 24 0
BBX 20 36 2 0
BITMAP
080180
040300
030600
018800
00D000
006000
000000
000000
000000
000000
7FFFF0
000020
000060
000040
000080
000100
000300
000200
000400
000800
001800
001000
002000
004000
00C000
008000
010000
020000
060000
040000
080000
100000
300000
200000
400000
FFFFF0
ENDCHAR
STARTCHAR 017F
ENCODING 383
SWIDTH 260 0
DWIDTH 13 0
BBX 16 37 2 0
BITMAP
00FC
0303
0200
0400
0400
0400
0400
0400
0400
0400
0400
FC00
0400
0400
0400
0400
0400
0400
0400
0400
0400
0400
0400
0400
0400
0400
0400
0400
0400
0400
0400
0400
0400
0400
0400
0400
0400
ENDCHAR
STARTCHAR 018F
ENCODING 399
SWIDTH 800 0
DWIDTH 40 0
BBX 35 35 3 0
BITMAP
000FFC0000
0070038000
018000E000
0600003000
0400000800
0000000400
0000000200
0000000100
0000000180
0000000080
00000000C0
0000000040
0000000040
0000000040
0000000020
0000000020
0000000020
FFFFFFFFE0
8000000020
8000000020
8000000020
8000000040
4000000040
4000000040
4000000080
2000000080
2000000100
1000000100
1800000200
0C00000400
0600000800
0300003000
00C0006000
0030038000
000FFC0000
ENDCHAR
STARTCHAR 0192
ENCODING 402
SWIDTH 400 0
DWIDTH 20 0
BBX 27 47 -4 -10
BITMAP
00003F80
00006060
00008000
00018000
00010000
00010000
00010000
00010000
00020000
00020000
00020000
007FFF00
00020000
00020000
00020000
00020000
00040000
00040000
00040000
00040000
00040000
00040000
00040000
00040000
00080000
00080000
00080000
00080000
00080000
00080000
00080000
00080000
00180000
00100000
00100000
00100000
00100000
00100000
00100000
00100000
00300000
00200000
00200000
00600000
80400000
C1800000
3E000000
ENDCHAR
STARTCHAR 01A0
ENCODING 416
SWIDTH 820 0
DWIDTH 41 0
BBX 36 42 3 0
BITMAP
0000000040
0000000060
0000000020
0000000020
0000000020
0000000060
0000000040
0007FFE780
003801D800
00C0003000
0100001800
0600000400
0C00000200
0800000100
1000000080
2000000080
2000000040
4000000040
4000000020
4000000020
8000000020
8000000010
8000000010
8000000010
8000000010
8000000010
8000000010
8000000010
8000000020
4000000020
4000000020
4000000060
2000000040
2000000080
1000000080
0800000100
0C00000200
0600000400
0100001800
00C0003000
003801C000
0007FE0000
ENDCHAR
STARTCHAR 01A1
ENCODING 417
SWIDTH 600 0
DWIDTH 30 0
BBX 25 33 3 0
BITMAP
00000300
00000100
00000100
00000100
00000100
00000100
00000200
007FFC00
0380C000
04003000
18000800
10000400
20000600
40000200
40000100
80000100
80000100
80000080
80000080
80000080
80000080
80000080
80000080
80000100
80000100
40000100
40000200
20000200
30000400
18000800
0C003000
0300E000
00FF8000
ENDCHAR
STARTCHAR 01AF
ENCODING 431
SWIDTH 780 0
DWIDTH 39 0
BBX 32 42 6 0
BITMAP
00000002
00000001
00000001
00000001
00000001
00000001
00000002
8000003C
80000020
80000020
80000020
80000020
80000020
80000020
80000020
80000020
80000020
80000020
80000020
80000020
80000020
80000020
80000020
80000020
80000020
80000020
80000020
80000020
80000020
80000020
40000020
40000020
40000020
40000060
60000040
20000040
30000080
10000180
08000300
06000600
01801800
007FE000
ENDCHAR
STARTCHAR 01B0
ENCODING 432
SWIDTH 660 0
DWIDTH 33 0
BBX 26 33 5 0
BITMAP
00000040
00000040
00000040
00000040
00000040
00000040
000000C0
80000780
80000400
80000400
80000400
80000400
80000400
80000400
80000400
80000400
80000400
80000400
80000400
80000400
80000400
80000400
80000400
80000400
40000400
40000400
40000C00
40000C00
20001400
30003400
18006400
06018400
01FE0400
ENDCHAR
STARTCHAR 01B7
ENCODING 439
SWIDTH 580 0
DWIDTH 29 0
BBX 25 35 2 0
BITMAP
7FFFFE00
00000600
00000400
00000800
00001000
00002000
00006000
00004000
00008000
00010000
00020000
00060000
00040000
00080000
00100000
00200000
003FC000
00003000
00000C00
00000600
00000200
00000100
00000100
00000100
00000080
00000080
00000080
00000100
00000100
00000100
80000200
60000600
30000800
0E003000
01FFC000
ENDCHAR
STARTCHAR 01C4
ENCODING 452
SWIDTH 1460 0
DWIDTH 73 0
BBX 64 43 7 0
BITMAP
0000000000180300
0000000000040600
0000000000030C00
0000000000019000
000000000000E000
0000000000000000
0000000000000000
0000000000000000
FFFFC0000FFFFFFE
8000380000000004
800006000000000C
8000018000000008
800000C000000010
8000006000000020
8000003000000060
8000001000000040
8000000800000080
8000000C00000100
8000000400000300
8000000400000200
8000000200000400
8000000200000800
8000000200001800
8000000200003000
8000000200002000
8000000200004000
8000000200008000
8000000200018000
8000000200010000
8000000200020000
8000000200040000
80000004000C0000
8000000400080000
8000000C00100000
8000000800200000
8000001000600000
8000003000C00000
8000006000800000
800000C001000000
8000018002000000
8000060006000000
8000380004000000
FFFFC0000FFFFFFF
ENDCHAR
STARTCHAR 01C5
ENCODING 453
SWIDTH 1300 0
DWIDTH 65 0
BBX 56 36 7 0
BITMAP
00000000008008
FFFFC000006030
80003800003060
800006000018C0
80000180000D80
800000C0000300
80000060000000
80000030000000
80000010000000
80000008000000
8000000C07FFFF
80000004000003
80000004000002
80000002000004
8000000200000C
80000002000018
80000002000010
80000002000020
80000002000040
800000020000C0
80000002000080
80000002000100
80000002000200
80000002000600
80000004000400
80000004000800
8000000C001000
80000008003000
80000010002000
80000030004000
80000060008000
800000C0018000
80000180010000
80000600020000
80003800040000
FFFFC00007FFFF
ENDCHAR
STARTCHAR 01C6
ENCODING 454
SWIDTH 1180 0
DWIDTH 59 0
BBX 53 37 3 0
BITMAP
00000080000000
000000800C0080
00000080060100
00000080010200
00000080008C00
00000080007800
00000080003000
00000080000000
00000080000000
00000080000000
00000080000000
007F00807FFFF8
0380C080000010
04003080000020
18000880000060
10000480000040
20000680000080
40000280000100
40000180000300
80000180000200
80000180000400
80000080000800
80000080001800
80000080001000
80000080002000
80000080004000
8000008000C000
80000180008000
80000180010000
40000180020000
40000280060000
20000280040000
30000480080000
18000880100000
0C003080300000
0300E080200000
00FF00807FFFF8
ENDCHAR
STARTCHAR 01C7
ENCODING 455
SWIDTH 1040 0
DWIDTH 52 0
BBX 40 35 7 0
BITMAP
8000007FFF
8000000003
8000000003
8000000003
8000000003
8000000003
8000000003
8000000003
8000000003
8000000003
8000000003
8000000003
8000000003
8000000003
8000000003
8000000003
8000000003
8000000003
8000000003
8000000003
8000000003
8000000003
8000000003
8000000003
8000000003
8000000003
8000000002
8000000002
8000000002
8000000002
8000030006
8000010004
800000C00C
8000006010
FFFFFC1FE0
ENDCHAR
STARTCHAR 01C8
ENCODING 456
SWIDTH 820 0
DWIDTH 41 0
BBX 30 46 7 -10
BITMAP
00000008
8000001C
8000000C
80000000
80000000
80000000
80000000
80000000
80000000
80000000
80000008
80000008
80000008
80000008
80000008
80000008
80000008
80000008
80000008
80000008
80000008
80000008
80000008
80000008
80000008
80000008
80000008
80000008
80000008
80000008
80000008
80000008
80000008
80000008
80000008
FFFFFC08
00000008
00000008
00000008
00000008
00000008
00000008
00000010
00002010
00003060
00000780
ENDCHAR
STARTCHAR 01C9
ENCODING 457
SWIDTH 500 0
DWIDTH 25 0
BBX 14 47 6 -10
BITMAP
8000
8004
800C
800C
8000
8000
8000
8000
8000
8000
8000
800C
800C
800C
800C
800C
800C
800C
800C
800C
800C
800C
800C
800C
800C
800C
800C
800C
800C
800C
800C
800C
800C
800C
800C
800C
800C
000C
000C
000C
000C
0008
0008
0008
0010
1820
0780
ENDCHAR
STARTCHAR 01CA
ENCODING 458
SWIDTH 1280 0
DWIDTH 64 0
BBX 51 35 7 0
BITMAP
8000002007FFE0
C0000020000020
C0000020000020
A0000020000020
90000020000020
98000020000020
8C000020000020
84000020000020
82000020000020
81000020000020
81800020000020
80800020000020
80400020000020
80200020000020
80300020000020
80180020000020
80080020000020
80040020000020
80020020000020
80030020000020
80010020000020
80008020000020
80004020000020
80006020000020
80002020000020
80001020000020
80000820000020
80000C20000020
80000620000020
80000220000020
80000120200040
800000A0100040
800000E0080080
80000060060300
8000002001FE00
ENDCHAR
STARTCHAR 01CB
ENCODING 459
SWIDTH 1060 0
DWIDTH 53 0
BBX 42 46 7 -10
BITMAP
000000000080
8000002001C0
C00000200180
C00000200000
A00000200000
900000200000
980000200000
8C0000200000
840000200000
820000200000
810000200080
818000200080
808000200080
804000200080
802000200080
803000200080
801800200080
800800200080
800400200080
800200200080
800300200080
800100200080
800080200080
800040200080
800060200080
800020200080
800010200080
800008200080
80000C200080
800006200080
800002200080
800001200080
800000A00080
800000E00080
800000600080
800000200080
000000000080
000000000080
000000000080
000000000080
000000000080
000000000180
000000000100
000000000300
000000030600
00000000F800
ENDCHAR
STARTCHAR 01CC
ENCODING 460
SWIDTH 920 0
DWIDTH 46 0
BBX 35 46 6 -10
BITMAP
0000000040
0000000060
0000000060
0000000000
0000000000
0000000000
0000000000
0000000000
0000000000
0000000000
80FE000040
8701C00040
8C00600040
9000100040
A000100040
C000080040
C000080040
8000040040
8000040040
8000040040
8000040040
8000040040
8000040040
8000040040
8000040040
8000040040
8000040040
8000040040
8000040040
8000040040
8000040040
8000040040
8000040040
8000040040
8000040040
8000040040
0000000040
0000000040
0000000040
0000000040
0000000040
0000000040
0000000040
0000000080
000000C100
0000003C00
ENDCHAR
STARTCHAR 01CD
ENCODING 461
SWIDTH 680 0
DWIDTH 34 0
BBX 33 43 1 0
BITMAP
0030060000
0018080000
000C300000
0002600000
0001C00000
0000000000
0000000000
0000000000
0001800000
0001800000
0001400000
0002400000
0002200000
0004200000
0004100000
0008100000
0008080000
0010080000
00100C0000
0030040000
0020060000
0060020000
0040020000
00C0010000
0080010000
0080008000
0100008000
0100004000
0200004000
0200002000
0400002000
07FFFFF000
0800001000
0800001800
1800000800
1000000800
3000000400
2000000400
2000000200
4000000200
4000000100
8000000100
8000000080
ENDCHAR
STARTCHAR 01CE
ENCODING 462
SWIDTH 560 0
DWIDTH 28 0
BBX 20 36 3 0
BITMAP
0C0080
060100
030600
018C00
005800
003000
000000
000000
000000
000000
01FE00
0E0180
180040
600020
000020
000010
000010
000010
000010
000010
000010
000010
07FFF0
180010
200010
400010
400010
800010
800010
800010
800030
400030
400050
200090
180310
07FC10
ENDCHAR
STARTCHAR 01D3
ENCODING 467
SWIDTH 780 0
DWIDTH 39 0
BBX 27 43 6 0
BITMAP
01803000
00606000
0030C000
00190000
000E0000
00000000
00000000
00000000
80000020
80000020
80000020
80000020
80000020
80000020
80000020
80000020
80000020
80000020
80000020
80000020
80000020
80000020
80000020
80000020
80000020
80000020
80000020
80000020
80000020
80000020
80000020
40000020
40000020
40000020
40000060
60000040
20000040
30000080
10000180
08000300
06000600
01801800
007FE000
ENDCHAR
STARTCHAR 01D4
ENCODING 468
SWIDTH 660 0
DWIDTH 33 0
BBX 22 36 5 0
BITMAP
040040
030180
018300
00C600
006C00
003000
000000
000000
000000
000000
800004
800004
800004
800004
800004
800004
800004
800004
800004
800004
800004
800004
800004
800004
800004
800004
800004
400004
400004
40000C
40000C
200014
300034
180064
060184
01FE04
ENDCHAR
STARTCHAR 01E4
ENCODING 484
SWIDTH 800 0
DWIDTH 40 0
BBX 36 35 3 0
BITMAP
0007FE0000
003801C000
00C0003000
0180000800
0200000400
0400000000
0800000000
1000000000
2000000000
2000000000
4000000000
4000000000
4000000000
8000000000
8000000000
8000000000
8000000000
8000000000
8000000400
8000000400
8000000400
8000000400
4000000400
40003FFFF0
4000000400
2000000400
2000000400
1000000400
0800000400
0C00000400
0600000400
0180000800
00C0003000
003801C000
0007FE0000
ENDCHAR
STARTCHAR 01E5
ENCODING 485
SWIDTH 660 0
DWIDTH 33 0
BBX 28 36 3 -10
BITMAP
007F0080
0380E080
04003080
18000880
30000480
20000280
40000180
40000180
80000180
80000080
80000080
80000080
80000080
80000080
80000080
80000080
80000180
40000180
40000180
20000280
30000480
18000880
0C001080
03006080
00FF8080
00000080
00000080
00000080
000FFFF0
00000100
00000100
20000200
10000400
0C000800
03807000
007F8000
ENDCHAR
STARTCHAR 01E6
ENCODING 486
SWIDTH 760 0
DWIDTH 38 0
BBX 30 43 3 0
BITMAP
00180200
000C0C00
00061800
00033000
0000E000
00000000
00000000
00000000
0007FE00
003801C0
00C00030
01800008
02000004
04000000
08000000
10000000
20000000
20000000
40000000
40000000
40000000
80000000
80000000
80000000
80000000
80000000
80000004
80000004
80000004
80000004
40000004
40000004
40000004
20000004
20000004
10000004
08000004
0C000004
06000004
01800008
00C00030
003801C0
0007FE00
ENDCHAR
STARTCHAR 01E7
ENCODING 487
SWIDTH 660 0
DWIDTH 33 0
BBX 25 46 3 -10
BITMAP
03002000
01804000
00C18000
00230000
00160000
000C0000
00000000
00000000
00000000
00000000
007F0080
0380E080
04003080
18000880
30000480
20000280
40000180
40000180
80000180
80000080
80000080
80000080
80000080
80000080
80000080
80000080
80000180
40000180
40000180
20000280
30000480
18000880
0C001080
03006080
00FF8080
00000080
00000080
00000080
00000180
00000100
00000100
20000200
10000400
0C000800
03807000
007F8000
ENDCHAR
STARTCHAR 01E8
ENCODING 488
SWIDTH 680 0
DWIDTH 34 0
BBX 26 43 7 0
BITMAP
0600C000
01010000
00820000
006C0000
00380000
00000000
00000000
00000000
80000080
80000100
80000200
80000400
80000800
80001000
80002000
80004000
80008000
80010000
80030000
80060000
800C0000
80180000
80300000
80600000
80C00000
81A00000
83100000
86080000
8C040000
98020000
B0030000
E0018000
C000C000
80004000
80002000
80001000
80000800
80000400
80000200
80000300
80000180
800000C0
80000040
ENDCHAR
STARTCHAR 01E9
ENCODING 489
SWIDTH 560 0
DWIDTH 28 0
BBX 27 47 0 0
BITMAP
80180000
60200000
30400000
18800000
0F000000
00000000
00000000
00000000
00000000
00000000
02000000
02000000
02000000
02000000
02000000
02000000
02000000
02000000
02000000
02000000
02000000
02000040
02000080
02000300
02000600
02000C00
02001800
02003000
02004000
02008000
02010000
02020000
02050000
02188000
0230C000
02604000
02C02000
03001000
02000800
02000C00
02000400
02000200
02000100
02000180
020000C0
02000040
02000020
ENDCHAR
STARTCHAR 01EA
ENCODING 490
SWIDTH 820 0
DWIDTH 41 0
BBX 36 46 3 -11
BITMAP
0007FE0000
003801C000
00C0003000
0100001800
0600000400
0C00000200
0800000100
1000000080
2000000080
2000000040
4000000060
4000000020
4000000020
8000000020
8000000010
8000000010
8000000010
8000000010
8000000010
8000000010
8000000010
8000000020
4000000020
4000000020
4000000060
2000000040
20000000C0
1000000080
0800000100
0C00000200
0600000400
0100001800
00C0003000
003801C000
0007FE0000
0000600000
0000800000
0001000000
0002000000
0002000000
0004000000
0004000000
0004000000
0002000000
0003180000
0000600000
ENDCHAR
STARTCHAR 01EB
ENCODING 491
SWIDTH 600 0
DWIDTH 30 0
BBX 25 37 3 -11
BITMAP
007F0000
0380C000
04003000
18000800
10000400
20000600
40000200
40000100
80000100
80000100
80000080
80000080
80000080
80000080
80000080
80000080
80000100
80000100
40000100
40000200
20000200
30000400
18000800
0C003000
0300E000
00FF8000
00060000
00080000
00100000
00200000
00200000
00400000
00400000
00400000
00200000
00318000
00060000
ENDCHAR
STARTCHAR 01EE
ENCODING 494
SWIDTH 580 0
DWIDTH 29 0
BBX 25 43 2 0
BITMAP
03006000
01808000
00410000
00260000
001C0000
00000000
00000000
00000000
7FFFFE00
00000600
00000400
00000800
00001000
00002000
00006000
00004000
00008000
00010000
00020000
00060000
00040000
00080000
00100000
00200000
003FC000
00003000
00000C00
00000600
00000200
00000100
00000100
00000100
00000080
00000080
00000080
00000100
00000100
00000100
80000200
60000600
30000800
0E003000
01FFC000
ENDCHAR
STARTCHAR 01EF
ENCODING 495
SWIDTH 480 0
DWIDTH 24 0
BBX 23 46 -1 -10
BITMAP
060040
030080
018300
00C600
002C00
001800
000000
000000
000000
000000
7FFFFC
00000C
000008
000010
000020
000060
000040
000080
000100
000300
000200
000400
000800
001800
001000
002000
007E00
0001C0
000030
000008
00000C
000004
000002
000002
000002
000002
000002
000002
000002
000002
800004
C00004
600008
180030
0700C0
00FF00
ENDCHAR
STARTCHAR 01FA
ENCODING 506
SWIDTH 680 0
DWIDTH 34 0
BBX 33 51 1 0
BITMAP
0000030000
0000060000
00000C0000
0003F80000
0004300000
0008100000
0008080000
0008080000
0008080000
0008100000
0004300000
0003C00000
0000000000
0000000000
0000000000
0000000000
0001800000
0001800000
0001400000
0002400000
0002200000
0004200000
0004100000
0008100000
0008080000
0010080000
00100C0000
0030040000
0020060000
0060020000
0040020000
00C0010000
0080010000
0080008000
0100008000
0100004000
0200004000
0200002000
0400002000
07FFFFF000
0800001000
0800001800
1800000800
1000000800
3000000400
2000000400
2000000200
4000000200
4000000100
8000000100
8000000080
ENDCHAR
STARTCHAR 01FB
ENCODING 507
SWIDTH 560 0
DWIDTH 28 0
BBX 20 42 3 0
BITMAP
000040
000080
000100
007A00
018C00
010200
020200
020200
020200
020200
010400
00F800
000000
000000
000000
000000
01FE00
0E0180
180040
600020
000020
000010
000010
000010
000010
000010
000010
000010
07FFF0
180010
200010
400010
400010
800010
800010
800010
800030
400030
400050
200090
180310
07FC10
ENDCHAR
STARTCHAR 01FC
ENCODING 508
SWIDTH 1000 0
DWIDTH 50 0
BBX 46 43 1 0
BITMAP
000000180000
000000600000
000000C00000
000001800000
000002000000
000004000000
000000000000
000000000000
000007FFFFF8
000007000000
00000B000000
00001B000000
000013000000
000023000000
000023000000
000043000000
000083000000
000083000000
000103000000
000303000000
000203000000
000403000000
000C03000000
000803000000
001003000000
001003FFFFE0
002003000000
004003000000
004003000000
008003000000
018003000000
01FFFF000000
020003000000
060003000000
040003000000
080003000000
080003000000
100003000000
200003000000
200003000000
400003000000
C00003000000
800003FFFFFC
ENDCHAR
STARTCHAR 01FD
ENCODING 509
SWIDTH 960 0
DWIDTH 48 0
BBX 43 36 3 0
BITMAP
000000C00000
000001800000
000002000000
00000C000000
000018000000
000020000000
000000000000
000000000000
000000000000
000000000000
01FE000FE000
0E0180701800
180040C00600
600021000300
000022000180
000014000080
000014000040
000018000040
000018000020
000018000020
000010000020
000010000020
07FFFFFFFFE0
180010000000
200010000000
400010000000
400018000000
800018000000
800018000000
800014000000
800026000000
400022000000
400041000080
200080C00300
180300300E00
07FC000FF000
ENDCHAR
STARTCHAR 01FE
ENCODING 510
SWIDTH 820 0
DWIDTH 41 0
BBX 36 47 3 -4
BITMAP
0000030000
00000C0000
0000180000
0000200000
0000C00040
0000000080
0000000100
0000000300
0007FE0200
003801C400
00C0003800
0100001800
0600001400
0C00002200
0800006100
1000004080
2000008080
2000010040
4000030060
4000020020
4000040020
8000080020
8000080010
8000100010
8000200010
8000400010
8000400010
8000800010
8001000010
8003000020
4002000020
4004000020
4008000060
2018000040
2010000080
1020000080
0840000100
0C40000200
0680000400
0100001800
03C0003000
023801C000
0407FE0000
0800000000
1800000000
1000000000
2000000000
ENDCHAR
STARTCHAR 01FF
ENCODING 511
SWIDTH 600 0
DWIDTH 30 0
BBX 25 40 3 -4
BITMAP
00006000
00018000
00030000
00040000
00180000
00300000
00000000
00000200
00000200
00000400
007F0800
0380D800
04003000
18002800
10006400
20004600
40008200
40018100
80010100
80020100
80060080
80040080
80080080
80180080
80100080
80200080
80400100
80400100
40800100
41000200
21000200
32000400
1C000800
0C003000
0B00E000
10FF8000
10000000
20000000
40000000
C0000000
ENDCHAR
STARTCHAR 0200
ENCODING 512
SWIDTH 680 0
DWIDTH 34 0
BBX 33 43 1 0
BITMAP
0183000000
00C1800000
0060C00000
0030600000
0018300000
0000000000
0000000000
0000000000
0001800000
0001800000
0001400000
0002400000
0002200000
0004200000
0004100000
0008100000
0008080000
0010080000
00100C0000
0030040000
0020060000
0060020000
0040020000
00C0010000
0080010000
0080008000
0100008000
0100004000
0200004000
0200002000
0400002000
07FFFFF000
0800001000
0800001800
1800000800
1000000800
3000000400
2000000400
2000000200
4000000200
4000000100
8000000100
8000000080
ENDCHAR
STARTCHAR 0201
ENCODING 513
SWIDTH 560 0
DWIDTH 28 0
BBX 20 36 3 0
BITMAP
60C000
306000
183000
0C1800
060C00
030600
000000
000000
000000
000000
01FE00
0E0180
180040
600020
000020
000010
000010
000010
000010
000010
000010
000010
07FFF0
180010
200010
400010
400010
800010
800010
800010
800030
400030
400050
200090
180310
07FC10
ENDCHAR
STARTCHAR 0202
ENCODING 514
SWIDTH 680 0
DWIDTH 34 0
BBX 33 44 1 0
BITMAP
0000800000
000F700000
0018080000
0020040000
0020020000
0020020000
0000000000
0000000000
0000000000
0001800000
0001800000
0001400000
0002400000
0002200000
0004200000
0004100000
0008100000
0008080000
0010080000
00100C0000
0030040000
0020060000
0060020000
0040020000
00C0010000
0080010000
0080008000
0100008000
0100004000
0200004000
0200002000
0400002000
07FFFFF000
0800001000
0800001800
1800000800
1000000800
3000000400
2000000400
2000000200
4000000200
4000000100
8000000100
8000000080
ENDCHAR
STARTCHAR 0203
ENCODING 515
SWIDTH 560 0
DWIDTH 28 0
BBX 20 36 3 0
BITMAP
00FC00
030600
040100
0C0080
080080
080080
000000
000000
000000
000000
01FE00
0E0180
180040
600020
000020
000010
000010
000010
000010
000010
000010
000010
07FFF0
180010
200010
400010
400010
800010
800010
800010
800030
400030
400050
200090
180310
07FC10
ENDCHAR
STARTCHAR 0204
ENCODING 516
SWIDTH 660 0
DWIDTH 33 0
BBX 23 43 7 0
BITMAP
60C000
102000
081000
040800
030400
000200
000000
000000
FFFFFC
800000
800000
800000
800000
800000
800000
800000
800000
800000
800000
800000
800000
800000
800000
800000
800000
FFFFF0
800000
800000
800000
800000
800000
800000
800000
800000
800000
800000
800000
800000
800000
800000
800000
800000
FFFFFE
ENDCHAR
STARTCHAR 0205
ENCODING 517
SWIDTH 580 0
DWIDTH 29 0
BBX 24 36 3 0
BITMAP
306000
183000
0C1800
060C00
030600
018300
000000
000000
000000
000000
00FE00
0301C0
0C0060
180010
300008
20000C
400004
400002
800002
800002
800002
800001
FFFFFF
800000
800000
800000
800000
800000
400000
400000
200000
300004
18000C
0C0010
030060
00FF80
ENDCHAR
STARTCHAR 0206
ENCODING 518
SWIDTH 660 0
DWIDTH 33 0
BBX 23 43 7 1
BITMAP
01FE00
020100
040080
040080
080040
000000
000000
000000
FFFFFC
800000
800000
800000
800000
800000
800000
800000
800000
800000
800000
800000
800000
800000
800000
800000
800000
FFFFF0
800000
800000
800000
800000
800000
800000
800000
800000
800000
800000
800000
800000
800000
800000
800000
800000
FFFFFE
ENDCHAR
STARTCHAR 0207
ENCODING 519
SWIDTH 580 0
DWIDTH 29 0
BBX 24 36 3 0
BITMAP
007C00
018300
020080
020040
040040
040040
000000
000000
000000
000000
00FE00
0301C0
0C0060
180010
300008
20000C
400004
400002
800002
800002
800002
800001
FFFFFF
800000
800000
800000
800000
800000
400000
400000
200000
300004
18000C
0C0010
030060
00FF80
ENDCHAR
STARTCHAR 0208
ENCODING 520
SWIDTH 280 0
DWIDTH 14 0
BBX 13 43 -2 0
BITMAP
C180
60C0
3060
1830
0C18
0000
0000
0000
0040
0040
0040
0040
0040
0040
0040
0040
0040
0040
0040
0040
0040
0040
0040
0040
0040
0040
0040
0040
0040
0040
0040
0040
0040
0040
0040
0040
0040
0040
0040
0040
0040
0040
0040
ENDCHAR
STARTCHAR 0209
ENCODING 521
SWIDTH 240 0
DWIDTH 12 0
BBX 13 36 -3 0
BITMAP
8100
4080
2040
1020
0810
0408
0000
0000
0000
0000
0040
0040
0040
0040
0040
0040
0040
0040
0040
0040
0040
0040
0040
0040
0040
0040
0040
0040
0040
0040
0040
0040
0040
0040
0040
0040
ENDCHAR
STARTCHAR 020A
ENCODING 522
SWIDTH 280 0
DWIDTH 14 0
BBX 13 43 1 1
BITMAP
3FC0
6020
8010
8010
8008
0000
0000
0000
0200
0200
0200
0200
0200
0200
0200
0200
0200
0200
0200
0200
0200
0200
0200
0200
0200
0200
0200
0200
0200
0200
0200
0200
0200
0200
0200
0200
0200
0200
0200
0200
0200
0200
0200
ENDCHAR
STARTCHAR 020B
ENCODING 523
SWIDTH 240 0
DWIDTH 12 0
BBX 11 36 1 0
BITMAP
1F00
6180
4040
8040
8020
8020
0000
0000
0000
0000
0400
0400
0400
0400
0400
0400
0400
0400
0400
0400
0400
0400
0400
0400
0400
0400
0400
0400
0400
0400
0400
0400
0400
0400
0400
0400
ENDCHAR
STARTCHAR 020C
ENCODING 524
SWIDTH 820 0
DWIDTH 41 0
BBX 36 43 3 0
BITMAP
00C1800000
0020400000
0010200000
0008100000
0004080000
0002040000
0000000000
0000000000
0007FE0000
003801C000
00C0003000
0100001800
0600000400
0C00000200
0800000100
1000000080
2000000080
2000000040
4000000060
4000000020
4000000020
8000000020
8000000010
8000000010
8000000010
8000000010
8000000010
8000000010
8000000010
8000000020
4000000020
4000000020
4000000060
2000000040
2000000080
1000000080
0800000100
0C00000200
0600000400
0100001800
00C0003000
003801C000
0007FE0000
ENDCHAR
STARTCHAR 020D
ENCODING 525
SWIDTH 600 0
DWIDTH 30 0
BBX 25 36 3 0
BITMAP
10200000
08100000
04080000
02040000
01020000
00810000
00000000
00000000
00000000
00000000
007F0000
0380C000
04003000
18000800
10000400
20000600
40000200
40000100
80000100
80000100
80000080
80000080
80000080
80000080
80000080
80000080
80000100
80000100
40000100
40000200
20000200
30000400
18000800
0C003000
0300E000
00FF8000
ENDCHAR
STARTCHAR 020E
ENCODING 526
SWIDTH 820 0
DWIDTH 41 0
BBX 36 43 3 1
BITMAP
0003FC0000
0004020000
0008010000
0008010000
0010010000
0000000000
0000000000
0000000000
0007FE0000
003801C000
00C0003000
0100001800
0600000400
0C00000200
0800000100
1000000080
2000000080
2000000040
4000000060
4000000020
4000000020
8000000020
8000000010
8000000010
8000000010
8000000010
8000000010
8000000010
8000000010
8000000020
4000000020
4000000020
4000000060
2000000040
2000000080
1000000080
0800000100
0C00000200
0600000400
0100001800
00C0003000
003801C000
0007FE0000
ENDCHAR
STARTCHAR 020F
ENCODING 527
SWIDTH 600 0
DWIDTH 30 0
BBX 25 36 3 0
BITMAP
007E0000
00C18000
01004000
02004000
02002000
02002000
00000000
00000000
00000000
00000000
007F0000
0380C000
04003000
18000800
10000400
20000600
40000200
40000100
80000100
80000100
80000080
80000080
80000080
80000080
80000080
80000080
80000100
80000100
40000100
40000200
20000200
30000400
18000800
0C003000
0300E000
00FF8000
ENDCHAR
STARTCHAR 0210
ENCODING 528
SWIDTH 700 0
DWIDTH 35 0
BBX 25 43 7 0
BITMAP
30600000
18300000
0C180000
060C0000
03060000
00000000
00000000
00000000
FFFF0000
8000E000
80001800
80000400
80000200
80000100
80000100
80000080
80000080
80000080
80000080
80000080
80000080
80000080
80000080
80000080
80000100
80000100
80000200
80000400
80001800
8000E000
FFFF8000
80008000
80004000
80002000
80003000
80001000
80000800
80000400
80000600
80000200
80000100
80000180
80000080
ENDCHAR
STARTCHAR 0211
ENCODING 529
SWIDTH 380 0
DWIDTH 19 0
BBX 15 36 2 0
BITMAP
8100
4080
2040
1020
0810
0408
0000
0000
0000
0000
081E
0860
0880
0900
0A00
0C00
0C00
0800
0800
0800
0800
0800
0800
0800
0800
0800
0800
0800
0800
0800
0800
0800
0800
0800
0800
0800
ENDCHAR
STARTCHAR 0212
ENCODING 530
SWIDTH 700 0
DWIDTH 35 0
BBX 25 44 7 0
BITMAP
00100000
01EE0000
03010000
06008000
04004000
04004000
00000000
00000000
00000000
FFFF0000
8000E000
80001800
80000400
80000200
80000100
80000100
80000080
80000080
80000080
80000080
80000080
80000080
80000080
80000080
80000080
80000100
80000100
80000200
80000400
80001800
8000E000
FFFF8000
80008000
80004000
80002000
80003000
80001000
80000800
80000400
80000600
80000200
80000100
80000180
80000080
ENDCHAR
STARTCHAR 0213
ENCODING 531
SWIDTH 380 0
DWIDTH 19 0
BBX 13 36 5 0
BITMAP
1F80
3060
4010
8018
8008
8008
0000
0000
0000
0000
40F0
4300
4400
4800
5000
6000
6000
4000
4000
4000
4000
4000
4000
4000
4000
4000
4000
4000
4000
4000
4000
4000
4000
4000
4000
4000
ENDCHAR
STARTCHAR 0214
ENCODING 532
SWIDTH 780 0
DWIDTH 39 0
BBX 27 43 6 0
BITMAP
0C180000
02040000
01020000
00810000
00408000
00204000
00000000
00000000
80000020
80000020
80000020
80000020
80000020
80000020
80000020
80000020
80000020
80000020
80000020
80000020
80000020
80000020
80000020
80000020
80000020
80000020
80000020
80000020
80000020
80000020
80000020
40000020
40000020
40000020
40000060
60000040
20000040
30000080
10000180
08000300
06000600
01801800
007FE000
ENDCHAR
STARTCHAR 0215
ENCODING 533
SWIDTH 660 0
DWIDTH 33 0
BBX 22 36 5 0
BITMAP
204000
102000
081000
040800
030400
018200
000000
000000
000000
000000
800004
800004
800004
800004
800004
800004
800004
800004
800004
800004
800004
800004
800004
800004
800004
800004
800004
400004
400004
40000C
40000C
200014
300034
180064
060184
01FE04
ENDCHAR
STARTCHAR 0216
ENCODING 534
SWIDTH 780 0
DWIDTH 39 0
BBX 27 43 6 1
BITMAP
003FC000
00406000
00801000
01801000
01001000
00000000
00000000
00000000
80000020
80000020
80000020
80000020
80000020
80000020
80000020
80000020
80000020
80000020
80000020
80000020
80000020
80000020
80000020
80000020
80000020
80000020
80000020
80000020
80000020
80000020
80000020
40000020
40000020
40000020
40000060
60000040
20000040
30000080
10000180
08000300
06000600
01801800
007FE000
ENDCHAR
STARTCHAR 0217
ENCODING 535
SWIDTH 660 0
DWIDTH 33 0
BBX 22 36 5 0
BITMAP
007C00
018300
020080
040040
040040
040040
000000
000000
000000
000000
800004
800004
800004
800004
800004
800004
800004
800004
800004
800004
800004
800004
800004
800004
800004
800004
800004
400004
400004
40000C
40000C
200014
300034
180064
060184
01FE04
ENDCHAR
STARTCHAR 0218
ENCODING 536
SWIDTH 600 0
DWIDTH 30 0
BBX 24 48 3 -13
BITMAP
01FF80
070070
08000C
100000
200000
200000
400000
400000
400000
400000
400000
400000
200000
300000
180000
060000
01C000
003C00
0003C0
000030
000008
000006
000002
000001
000001
000001
000001
000001
000001
000003
C00002
600004
180008
0E0070
01FFC0
000000
000000
000000
000000
000000
000000
000C00
000C00
000C00
000400
000800
000800
000800
ENDCHAR
STARTCHAR 0219
ENCODING 537
SWIDTH 460 0
DWIDTH 23 0
BBX 19 39 2 -13
BITMAP
03FC00
0C0300
3000C0
600000
400000
400000
400000
400000
400000
400000
300000
180000
078000
007C00
000300
0000C0
000060
000020
000020
000020
000020
000020
800060
6000C0
380180
07FC00
000000
000000
000000
000000
000000
000000
004000
00E000
006000
004000
004000
004000
004000
ENDCHAR
STARTCHAR 021A
ENCODING 538
SWIDTH 540 0
DWIDTH 27 0
BBX 27 48 0 -13
BITMAP
FFFFFFE0
00040000
00040000
00040000
00040000
00040000
00040000
00040000
00040000
00040000
00040000
00040000
00040000
00040000
00040000
00040000
00040000
00040000
00040000
00040000
00040000
00040000
00040000
00040000
00040000
00040000
00040000
00040000
00040000
00040000
00040000
00040000
00040000
00040000
00040000
00000000
00000000
00000000
00000000
00000000
00000000
00040000
000E0000
00060000
00060000
00040000
00040000
00040000
ENDCHAR
STARTCHAR 021B
ENCODING 539
SWIDTH 380 0
DWIDTH 19 0
BBX 16 45 1 -13
BITMAP
0400
0400
0400
0400
0400
0400
FFFE
0400
0400
0400
0400
0400
0400
0400
0400
0400
0400
0400
0400
0400
0400
0400
0400
0400
0400
0400
0400
0400
0200
0200
0183
00FE
0000
0000
0000
0000
0000
0000
0030
0030
0030
0010
0010
0020
0020
ENDCHAR
STARTCHAR 021E
ENCODING 542
SWIDTH 800 0
DWIDTH 40 0
BBX 27 43 7 0
BITMAP
01803000
00404000
00208000
00130000
000E0000
00000000
00000000
00000000
80000020
80000020
80000020
80000020
80000020
80000020
80000020
80000020
80000020
80000020
80000020
80000020
80000020
80000020
80000020
80000020
80000020
FFFFFFE0
80000020
80000020
80000020
80000020
80000020
80000020
80000020
80000020
80000020
80000020
80000020
80000020
80000020
80000020
80000020
80000020
80000020
ENDCHAR
STARTCHAR 021F
ENCODING 543
SWIDTH 660 0
DWIDTH 33 0
BBX 28 47 0 0
BITMAP
80180000
60200000
30400000
18800000
0F000000
00000000
00000000
00000000
00000000
00000000
02000000
02000000
02000000
02000000
02000000
02000000
02000000
02000000
02000000
02000000
02000000
0203F800
021C0700
02300180
02400040
02800040
03000020
03000020
02000010
02000010
02000010
02000010
02000010
02000010
02000010
02000010
02000010
02000010
02000010
02000010
02000010
02000010
02000010
02000010
02000010
02000010
02000010
ENDCHAR
STARTCHAR 022A
ENCODING 554
SWIDTH 820 0
DWIDTH 41 0
BBX 36 46 3 0
BITMAP
001FFF8000
0000000000
0000000000
0000000000
0006060000
0006060000
0000000000
0000000000
0000000000
0000000000
0000000000
0007FE0000
003801C000
00C0003000
0100001800
0600000400
0C00000200
0800000100
1000000080
2000000080
2000000040
4000000060
4000000020
4000000020
8000000020
8000000010
8000000010
8000000010
8000000010
8000000010
8000000010
8000000010
8000000020
4000000020
4000000020
4000000060
2000000040
2000000080
1000000080
0800000100
0C00000200
0600000400
0100001800
00C0003000
003801C000
0007FE0000
ENDCHAR
STARTCHAR 022B
ENCODING 555
SWIDTH 600 0
DWIDTH 30 0
BBX 25 39 3 0
BITMAP
07FFE000
07FFE000
00000000
00000000
00808000
0181C000
01818000
00000000
00000000
00000000
00000000
00000000
00000000
007F0000
0380C000
04003000
18000800
10000400
20000600
40000200
40000100
80000100
80000100
80000080
80000080
80000080
80000080
80000080
80000080
80000100
80000100
40000100
40000200
20000200
30000400
18000800
0C003000
0300E000
00FF8000
ENDCHAR
STARTCHAR 022C
ENCODING 556
SWIDTH 820 0
DWIDTH 41 0
BBX 36 46 3 0
BITMAP
001FFF8000
0000000000
0000000000
0000000000
0007808000
0008610000
00103F0000
0000000000
0000000000
0000000000
0000000000
0007FE0000
003801C000
00C0003000
0100001800
0600000400
0C00000200
0800000100
1000000080
2000000080
2000000040
4000000060
4000000020
4000000020
8000000020
8000000010
8000000010
8000000010
8000000010
8000000010
8000000010
8000000010
8000000020
4000000020
4000000020
4000000060
2000000040
2000000080
1000000080
0800000100
0C00000200
0600000400
0100001800
00C0003000
003801C000
0007FE0000
ENDCHAR
STARTCHAR 022D
ENCODING 557
SWIDTH 600 0
DWIDTH 30 0
BBX 25 39 3 0
BITMAP
07FFE000
07FFE000
00000000
00000000
00E02000
03302000
020C4000
02078000
00000000
00000000
00000000
00000000
00000000
007F0000
0380C000
04003000
18000800
10000400
20000600
40000200
40000100
80000100
80000100
80000080
80000080
80000080
80000080
80000080
80000080
80000100
80000100
40000100
40000200
20000200
30000400
18000800
0C003000
0300E000
00FF8000
ENDCHAR
STARTCHAR 0230
ENCODING 560
SWIDTH 820 0
DWIDTH 41 0
BBX 36 46 3 0
BITMAP
001FFF8000
0000000000
0000000000
0000000000
0000600000
0000600000
0000000000
0000000000
0000000000
0000000000
0000000000
0007FE0000
003801C000
00C0003000
0100001800
0600000400
0C00000200
0800000100
1000000080
2000000080
2000000040
4000000060
4000000020
4000000020
8000000020
8000000010
8000000010
8000000010
8000000010
8000000010
8000000010
8000000010
8000000020
4000000020
4000000020
4000000060
2000000040
2000000080
1000000080
0800000100
0C00000200
0600000400
0100001800
00C0003000
003801C000
0007FE0000
ENDCHAR
STARTCHAR 0231
ENCODING 561
SWIDTH 600 0
DWIDTH 30 0
BBX 25 39 3 0
BITMAP
07FFE000
07FFE000
00000000
00000000
00080000
001C0000
00180000
00000000
00000000
00000000
00000000
00000000
00000000
007F0000
0380C000
04003000
18000800
10000400
20000600
40000200
40000100
80000100
80000100
80000080
80000080
80000080
80000080
80000080
80000080
80000100
80000100
40000100
40000200
20000200
30000400
18000800
0C003000
0300E000
00FF8000
ENDCHAR
STARTCHAR 0232
ENCODING 562
SWIDTH 600 0
DWIDTH 30 0
BBX 29 41 1 0
BITMAP
01FFF800
00000000
00000000
00000000
00000000
00000000
80000008
C0000010
40000020
20000020
20000040
100000C0
08000080
08000100
04000100
06000200
02000600
01000400
01000800
00801800
00C01000
00402000
00202000
00204000
0010C000
00088000
00090000
00050000
00060000
00020000
00020000
00020000
00020000
00020000
00020000
00020000
00020000
00020000
00020000
00020000
00020000
ENDCHAR
STARTCHAR 0233
ENCODING 563
SWIDTH 500 0
DWIDTH 25 0
BBX 27 44 -2 -10
BITMAP
01FFF800
00000000
00000000
00000000
00000000
00000000
00000000
00000000
30000020
10000040
18000040
080000C0
08000080
04000180
04000100
02000100
02000200
01000200
01000400
00800400
00800800
00C00800
00401800
00401000
00203000
00202000
00102000
00104000
00084000
00088000
00048000
00050000
00030000
00020000
00020000
00060000
00040000
000C0000
00080000
00180000
00100000
C0200000
70C00000
0F000000
ENDCHAR
STARTCHAR 0237
ENCODING 567
SWIDTH 240 0
DWIDTH 12 0
BBX 11 36 -4 -10
BITMAP
0020
0020
0020
0020
0020
0020
0020
0020
0020
0020
0020
0020
0020
0020
0020
0020
0020
0020
0020
0020
0020
0020
0020
0020
0020
0020
0020
0020
0020
0020
0020
0020
0040
8040
C180
1E00
ENDCHAR
STARTCHAR 0259
ENCODING 601
SWIDTH 580 0
DWIDTH 29 0
BBX 24 26 3 0
BITMAP
01FE00
060380
180060
200030
400018
000008
000004
000002
000002
000002
000002
000001
000001
FFFFFF
800001
800002
800002
800002
400002
400004
200004
300008
180010
0C0020
0300C0
00FF00
ENDCHAR
STARTCHAR 0292
ENCODING 658
SWIDTH 480 0
DWIDTH 24 0
BBX 23 36 -1 -10
BITMAP
7FFFFC
00000C
000008
000010
000020
000060
000040
000080
000100
000300
000200
000400
000800
001800
001000
002000
007E00
0001C0
000030
000008
00000C
000004
000002
000002
000002
000002
000002
000002
000002
000002
800004
C00004
600008
180030
0700C0
00FF00
ENDCHAR
STARTCHAR 02B9
ENCODING 697
SWIDTH 180 0
DWIDTH 9 0
BBX 1 13 4 22
BITMAP
80
80
80
80
80
80
80
80
80
80
80
80
80
ENDCHAR
STARTCHAR 02BA
ENCODING 698
SWIDTH 320 0
DWIDTH 16 0
BBX 9 13 4 22
BITMAP
8080
8080
8080
8080
8080
8080
8080
8080
8080
8080
8080
8080
8080
ENDCHAR
STARTCHAR 02BB
ENCODING 699
SWIDTH 240 0
DWIDTH 12 0
BBX 2 8 5 31
BITMAP
40
40
40
40
80
80
C0
C0
ENDCHAR
STARTCHAR 02BC
ENCODING 700
SWIDTH 180 0
DWIDTH 9 0
BBX 3 9 3 28
BITMAP
60
60
20
20
40
40
40
40
80
ENDCHAR
STARTCHAR 02BE
ENCODING 702
SWIDTH 600 0
DWIDTH 30 0
BBX 5 9 15 30
BITMAP
C0
20
10
10
08
10
10
30
C0
ENDCHAR
STARTCHAR 02BF
ENCODING 703
SWIDTH 600 0
DWIDTH 30 0
BBX 5 9 10 30
BITMAP
18
20
40
C0
80
80
40
60
38
ENDCHAR
STARTCHAR 02C6
ENCODING 710
SWIDTH 600 0
DWIDTH 30 0
BBX 14 6 8 30
BITMAP
0300
0480
0840
3030
6018
C00C
ENDCHAR
STARTCHAR 02C7
ENCODING 711
SWIDTH 600 0
DWIDTH 30 0
BBX 14 6 8 30
BITMAP
C00C
2010
1020
0840
0780
0300
ENDCHAR
STARTCHAR 02C8
ENCODING 712
SWIDTH 140 0
DWIDTH 7 0
BBX 1 9 3 26
BITMAP
80
80
80
80
80
80
80
80
80
ENDCHAR
STARTCHAR 02C9
ENCODING 713
SWIDTH 600 0
DWIDTH 30 0
BBX 14 1 8 33
BITMAP
FFFC
ENDCHAR
STARTCHAR 02CA
ENCODING 714
SWIDTH 600 0
DWIDTH 30 0
BBX 8 6 13 30
BITMAP
03
06
0C
30
60
80
ENDCHAR
STARTCHAR 02CB
ENCODING 715
SWIDTH 600 0
DWIDTH 30 0
BBX 8 6 9 30
BITMAP
C0
60
30
0C
06
01
ENDCHAR
STARTCHAR 02CC
ENCODING 716
SWIDTH 140 0
DWIDTH 7 0
BBX 1 10 3 -11
BITMAP
80
80
80
80
80
80
80
80
80
80
ENDCHAR
STARTCHAR 02D8
ENCODING 728
SWIDTH 600 0
DWIDTH 30 0
BBX 14 6 8 30
BITMAP
8004
4008
4008
2010
1860
0780
ENDCHAR
STARTCHAR 02D9
ENCODING 729
SWIDTH 600 0
DWIDTH 30 0
BBX 2 2 14 33
BITMAP
C0
C0
ENDCHAR
STARTCHAR 02DA
ENCODING 730
SWIDTH 600 0
DWIDTH 30 0
BBX 10 9 10 30
BITMAP
1E00
2100
4080
C080
8040
80C0
4080
6180
3E00
ENDCHAR
STARTCHAR 02DB
ENCODING 731
SWIDTH 600 0
DWIDTH 30 0
BBX 8 12 8 -11
BITMAP
02
0C
10
60
40
80
80
80
80
80
67
18
ENDCHAR
STARTCHAR 02DC
ENCODING 732
SWIDTH 600 0
DWIDTH 30 0
BBX 14 4 8 31
BITMAP
3C04
4208
8188
80F0
ENDCHAR
STARTCHAR 02DD
ENCODING 733
SWIDTH 600 0
DWIDTH 30 0
BBX 14 6 11 30
BITMAP
060C
0C18
1830
3040
4080
8100
ENDCHAR
STARTCHAR 0300
ENCODING 768
SWIDTH 0 0
DWIDTH 0 0
BBX 8 6 9 30
BITMAP
C0
60
30
0C
06
01
ENDCHAR
STARTCHAR 0301
ENCODING 769
SWIDTH 0 0
DWIDTH 0 0
BBX 8 6 13 30
BITMAP
03
06
0C
30
60
80
ENDCHAR
STARTCHAR 0302
ENCODING 770
SWIDTH 0 0
DWIDTH 0 0
BBX 14 6 8 30
BITMAP
0300
0480
0840
3030
6018
C00C
ENDCHAR
STARTCHAR 0303
ENCODING 771
SWIDTH 0 0
DWIDTH 0 0
BBX 14 4 8 31
BITMAP
3C04
4208
8188
80F0
ENDCHAR
STARTCHAR 0304
ENCODING 772
SWIDTH 0 0
DWIDTH 0 0
BBX 14 1 8 33
BITMAP
FFFC
ENDCHAR
STARTCHAR 0306
ENCODING 774
SWIDTH 0 0
DWIDTH 0 0
BBX 14 6 8 30
BITMAP
8004
4008
4008
2010
1860
0780
ENDCHAR
STARTCHAR 0307
ENCODING 775
SWIDTH 0 0
DWIDTH 0 0
BBX 2 2 14 33
BITMAP
C0
C0
ENDCHAR
STARTCHAR 0308
ENCODING 776
SWIDTH 0 0
DWIDTH 0 0
BBX 10 3 10 32
BITMAP
4000
C0C0
C0C0
ENDCHAR
STARTCHAR 0309
ENCODING 777
SWIDTH 0 0
DWIDTH 0 0
BBX 8 8 11 30
BITMAP
FE
02
01
01
03
02
04
08
ENDCHAR
STARTCHAR 030A
ENCODING 778
SWIDTH 0 0
DWIDTH 0 0
BBX 10 9 10 30
BITMAP
1E00
2100
4080
C080
8040
80C0
4080
6180
3E00
ENDCHAR
STARTCHAR 030B
ENCODING 779
SWIDTH 0 0
DWIDTH 0 0
BBX 14 6 11 30
BITMAP
060C
0C18
1830
3040
4080
8100
ENDCHAR
STARTCHAR 030C
ENCODING 780
SWIDTH 0 0
DWIDTH 0 0
BBX 14 6 8 30
BITMAP
C00C
2010
1020
0840
0780
0300
ENDCHAR
STARTCHAR 030F
ENCODING 783
SWIDTH 0 0
DWIDTH 0 0
BBX 14 6 5 30
BITMAP
C180
60C0
3060
0830
0408
0204
ENDCHAR
STARTCHAR 0311
ENCODING 785
SWIDTH 0 0
DWIDTH 0 0
BBX 14 6 8 30
BITMAP
0FC0
3030
6018
4008
4008
8004
ENDCHAR
STARTCHAR 0312
ENCODING 786
SWIDTH 0 0
DWIDTH 0 0
BBX 2 8 14 30
BITMAP
40
40
40
C0
80
C0
C0
C0
ENDCHAR
STARTCHAR 031B
ENCODING 795
SWIDTH 0 0
DWIDTH 0 0
BBX 5 8 14 25
BITMAP
08
08
08
08
08
08
18
F0
ENDCHAR
STARTCHAR 0323
ENCODING 803
SWIDTH 0 0
DWIDTH 0 0
BBX 2 3 14 -9
BITMAP
C0
C0
C0
ENDCHAR
STARTCHAR 0324
ENCODING 804
SWIDTH 0 0
DWIDTH 0 0
BBX 10 3 10 -9
BITMAP
4080
E1C0
4080
ENDCHAR
STARTCHAR 0326
ENCODING 806
SWIDTH 0 0
DWIDTH 0 0
BBX 2 7 14 -13
BITMAP
C0
C0
C0
40
C0
80
80
ENDCHAR
STARTCHAR 0327
ENCODING 807
SWIDTH 0 0
DWIDTH 0 0
BBX 8 11 11 -11
BITMAP
10
10
10
3C
02
03
01
01
02
C6
30
ENDCHAR
STARTCHAR 0328
ENCODING 808
SWIDTH 0 0
DWIDTH 0 0
BBX 8 12 8 -11
BITMAP
02
0C
10
60
40
80
80
80
80
80
67
18
ENDCHAR
STARTCHAR 032E
ENCODING 814
SWIDTH 0 0
DWIDTH 0 0
BBX 14 6 8 -10
BITMAP
8004
8008
4008
6018
3830
0FC0
ENDCHAR
STARTCHAR 0331
ENCODING 817
SWIDTH 0 0
DWIDTH 0 0
BBX 14 1 8 -8
BITMAP
FFFC
ENDCHAR
STARTCHAR 0335
ENCODING 821
SWIDTH 0 0
DWIDTH 0 0
BBX 18 1 6 22
BITMAP
FFFFC0
ENDCHAR
STARTCHAR 0336
ENCODING 822
SWIDTH 0 0
DWIDTH 0 0
BBX 38 1 1 22
BITMAP
FFFFFFFFFC
ENDCHAR
STARTCHAR 0337
ENCODING 823
SWIDTH 0 0
DWIDTH 0 0
BBX 9 7 3 16
BITMAP
0180
0300
0400
1800
3000
4000
8000
ENDCHAR
STARTCHAR 0338
ENCODING 824
SWIDTH 0 0
DWIDTH 0 0
BBX 23 33 3 -4
BITMAP
000002
000006
000004
000008
000018
000010
000020
000060
000040
000080
000100
000100
000200
000400
000400
000800
001000
001000
002000
004000
004000
008000
010000
010000
020000
040000
0C0000
080000
100000
300000
200000
400000
C00000
ENDCHAR
STARTCHAR 0394
ENCODING 916
SWIDTH 680 0
DWIDTH 34 0
BBX 33 35 1 0
BITMAP
0001800000
0001800000
0001400000
0002400000
0002200000
0004200000
0004100000
0008100000
0008080000
0010080000
00100C0000
0020040000
0020060000
0060020000
0040020000
00C0010000
0080010000
0080008000
0100008000
0100004000
0200004000
0200002000
0400002000
0400003000
0800001000
0800001800
1800000800
1000000800
3000000400
2000000400
2000000200
4000000200
4000000100
8000000100
FFFFFFFF80
ENDCHAR
STARTCHAR 03A9
ENCODING 937
SWIDTH 900 0
DWIDTH 45 0
BBX 45 35 0 0
BITMAP
00003FF00000
0001C00E0000
000600038000
00080000C000
003000002000
006000001000
00C000000800
008000000C00
010000000400
010000000200
020000000200
020000000100
060000000100
040000000100
040000000100
040000000080
040000000080
040000000080
040000000080
040000000080
040000000100
040000000100
060000000100
020000000100
020000000200
010000000200
010000000400
008000000400
00C000000800
004000001000
002000003000
001800006000
000C00008000
000300030000
FFFF8007FFF8
ENDCHAR
STARTCHAR 03BC
ENCODING 956
SWIDTH 660 0
DWIDTH 33 0
BBX 22 36 6 -10
BITMAP
800004
800004
800004
800004
800004
800004
800004
800004
800004
800004
800004
800004
800004
800004
800004
800004
800004
80000C
80000C
80000C
C00014
C00014
A00024
9000C4
8C0384
83FC04
800000
800000
800000
800000
800000
800000
800000
800000
800000
800000
ENDCHAR
STARTCHAR 03C0
ENCODING 960
SWIDTH 700 0
DWIDTH 35 0
BBX 36 26 0 0
BITMAP
07FFFFFFF0
1C08004000
2008004000
4008004000
C008004000
8008004000
8008004000
8008004000
8010004000
8010004000
4010004000
4010004000
0010004000
0010004000
0010004000
0010004000
0010004000
0020004000
0020004000
0020004000
0020004000
0020004000
0020004000
0020004000
0020004000
0020004000
ENDCHAR
STARTCHAR 0400
ENCODING 1024
SWIDTH 640 0
DWIDTH 32 0
BBX 23 43 7 0
BITMAP
060000
018000
00C000
002000
001800
000000
000000
000000
FFFFFC
800000
800000
800000
800000
800000
800000
800000
800000
800000
800000
800000
800000
800000
800000
800000
800000
FFFFF0
800000
800000
800000
800000
800000
800000
800000
800000
800000
800000
800000
800000
800000
800000
800000
800000
FFFFFE
ENDCHAR
STARTCHAR 0401
ENCODING 1025
SWIDTH 640 0
DWIDTH 32 0
BBX 23 42 7 0
BITMAP
030300
030380
000000
000000
000000
000000
000000
FFFFFC
800000
800000
800000
800000
800000
800000
800000
800000
800000
800000
800000
800000
800000
800000
800000
800000
FFFFF0
800000
800000
800000
800000
800000
800000
800000
800000
800000
800000
800000
800000
800000
800000
800000
800000
FFFFFE
ENDCHAR
STARTCHAR 0402
ENCODING 1026
SWIDTH 800 0
DWIDTH 40 0
BBX 38 35 0 0
BITMAP
FFFFFFF000
0004000000
0004000000
0004000000
0004000000
0004000000
0004000000
0004000000
0004000000
0004000000
0004000000
0004000000
0004000000
0004000000
000401F000
00041F0780
0004E000C0
0007000020
0004000010
0004000008
0004000008
0004000004
0004000004
0004000004
0004000004
0004000004
0004000004
0004000004
0004000008
0004000008
0004000010
0004000030
0004000060
0004000180
000401FE00
ENDCHAR
STARTCHAR 0403
ENCODING 1027
SWIDTH 560 0
DWIDTH 28 0
BBX 21 43 7 0
BITMAP
000300
000C00
001800
002000
00C000
000000
000000
000000
FFFFF8
800000
800000
800000
800000
800000
800000
800000
800000
800000
800000
800000
800000
800000
800000
800000
800000
800000
800000
800000
800000
800000
800000
800000
800000
800000
800000
800000
800000
800000
800000
800000
800000
800000
800000
ENDCHAR
STARTCHAR 0404
ENCODING 1028
SWIDTH 700 0
DWIDTH 35 0
BBX 29 35 4 0
BITMAP
000FFC00
00700380
01800060
03000030
04000008
08000000
10000000
30000000
20000000
40000000
40000000
C0000000
80000000
80000000
80000000
80000000
80000000
FFFFF800
80000000
80000000
80000000
80000000
80000000
C0000000
40000000
40000000
20000000
30000000
10000000
08000000
04000008
03000030
01800060
00700380
000FFC00
ENDCHAR
STARTCHAR 0405
ENCODING 1029
SWIDTH 600 0
DWIDTH 30 0
BBX 24 35 3 0
BITMAP
00FFC0
070030
0C000C
100002
200000
200000
400000
400000
400000
400000
400000
600000
200000
100000
080000
060000
01C000
003C00
0003C0
000030
00000C
000006
000002
000001
000001
000001
000001
000001
000001
000001
C00002
600006
18000C
060030
01FFC0
ENDCHAR
STARTCHAR 0406
ENCODING 1030
SWIDTH 280 0
DWIDTH 14 0
BBX 1 35 7 0
BITMAP
80
80
80
80
80
80
80
80
80
80
80
80
80
80
80
80
80
80
80
80
80
80
80
80
80
80
80
80
80
80
80
80
80
80
80
ENDCHAR
STARTCHAR 0407
ENCODING 1031
SWIDTH 280 0
DWIDTH 14 0
BBX 10 42 2 0
BITMAP
C0C0
C0C0
0000
0000
0000
0000
0000
0400
0400
0400
0400
0400
0400
0400
0400
0400
0400
0400
0400
0400
0400
0400
0400
0400
0400
0400
0400
0400
0400
0400
0400
0400
0400
0400
0400
0400
0400
0400
0400
0400
0400
0400
ENDCHAR
STARTCHAR 0408
ENCODING 1032
SWIDTH 500 0
DWIDTH 25 0
BBX 17 35 2 0
BITMAP
1FFF80
000080
000080
000080
000080
000080
000080
000080
000080
000080
000080
000080
000080
000080
000080
000080
000080
000080
000080
000080
000080
000080
000080
000080
000080
000080
000080
000180
000100
000100
800100
C00200
600600
180C00
0FF000
ENDCHAR
STARTCHAR 0409
ENCODING 1033
SWIDTH 1180 0
DWIDTH 59 0
BBX 57 35 0 0
BITMAP
003FFFFF00000000
0020000100000000
0020000100000000
0020000100000000
0020000100000000
0020000100000000
0020000100000000
0020000100000000
0020000100000000
0020000100000000
0020000100000000
0020000100000000
0020000100000000
00200001FFFF0000
002000010000E000
0020000100001800
0040000100000400
0040000100000200
0040000100000200
0040000100000100
0040000100000100
0040000100000100
0040000100000080
0040000100000080
0040000100000080
0040000100000080
0080000100000100
0080000100000100
0080000100000100
0080000100000200
0100000100000200
0100000100000400
0200000100001800
0400000100006000
F8000001FFFF8000
ENDCHAR
STARTCHAR 040A
ENCODING 1034
SWIDTH 1180 0
DWIDTH 59 0
BBX 50 35 7 0
BITMAP
80000040000000
80000040000000
80000040000000
80000040000000
80000040000000
80000040000000
80000040000000
80000040000000
80000040000000
80000040000000
80000040000000
80000040000000
80000040000000
80000040000000
80000040000000
FFFFFFFFFFC000
80000040003800
80000040000600
80000040000300
80000040000180
80000040000080
80000040000040
80000040000040
80000040000040
80000040000040
80000040000040
80000040000040
80000040000040
80000040000040
80000040000080
80000040000180
80000040000300
80000040000600
80000040001800
8000007FFFC000
ENDCHAR
STARTCHAR 040B
ENCODING 1035
SWIDTH 820 0
DWIDTH 41 0
BBX 38 35 0 0
BITMAP
FFFFFFF000
0004000000
0004000000
0004000000
0004000000
0004000000
0004000000
0004000000
0004000000
0004000000
0004000000
0004000000
0004000000
0004000000
000401FC00
00041E0780
0004E000C0
0007000020
0004000010
0004000008
0004000008
0004000004
0004000004
0004000004
0004000004
0004000004
0004000004
0004000004
0004000004
0004000004
0004000004
0004000004
0004000004
0004000004
0004000004
ENDCHAR
STARTCHAR 040C
ENCODING 1036
SWIDTH 680 0
DWIDTH 34 0
BBX 25 43 7 0
BITMAP
00030000
000C0000
00180000
00200000
00C00000
00000000
00000000
00000000
80000100
80000300
80000600
80000400
80000800
80001000
80003000
80006000
80004000
80008000
80010000
80020000
80060000
80040000
80080000
80100000
80200000
FFE00000
80100000
80080000
800C0000
80040000
80020000
80010000
80008000
80004000
80006000
80003000
80001000
80000800
80000400
80000200
80000300
80000180
80000080
ENDCHAR
STARTCHAR 040D
ENCODING 1037
SWIDTH 820 0
DWIDTH 41 0
BBX 27 43 7 0
BITMAP
01C00000
00600000
00100000
000C0000
00060000
00000000
00000000
00000000
80000020
80000020
80000060
800000A0
80000120
80000320
80000220
80000420
80000820
80001820
80003020
80002020
80004020
80008020
80018020
80010020
80020020
80040020
80080020
80180020
80100020
80200020
80400020
80C00020
80800020
81000020
82000020
84000020
8C000020
88000020
90000020
A0000020
E0000020
C0000020
80000020
ENDCHAR
STARTCHAR 040E
ENCODING 1038
SWIDTH 640 0
DWIDTH 32 0
BBX 30 43 2 0
BITMAP
01000800
01000800
00801000
00402000
003FC000
00000000
00000000
00000000
80000004
80000008
40000018
40000010
20000030
20000020
10000040
18000040
08000080
0C000080
04000100
06000100
02000200
01000200
01000400
00800400
00800800
00401000
00401000
00202000
00202000
00104000
00104000
00088000
00088000
00050000
00050000
00020000
00040000
00040000
00080000
00180000
00300000
00600000
1F800000
ENDCHAR
STARTCHAR 040F
ENCODING 1039
SWIDTH 800 0
DWIDTH 40 0
BBX 26 44 7 -9
BITMAP
80000040
80000040
80000040
80000040
80000040
80000040
80000040
80000040
80000040
80000040
80000040
80000040
80000040
80000040
80000040
80000040
80000040
80000040
80000040
80000040
80000040
80000040
80000040
80000040
80000040
80000040
80000040
80000040
80000040
80000040
80000040
80000040
80000040
80000040
FFFFFFC0
00040000
00040000
00040000
00040000
00040000
00040000
00040000
00040000
00040000
ENDCHAR
STARTCHAR 0410
ENCODING 1040
SWIDTH 700 0
DWIDTH 35 0
BBX 33 35 1 0
BITMAP
0000C00000
0000C00000
0001600000
0001200000
0002300000
0002100000
0006100000
0004080000
000C080000
0008040000
0008040000
0010020000
0010020000
0020010000
0020010000
0040018000
0040008000
008000C000
0080004000
0100004000
0100002000
0300002000
0200001000
07FFFFF000
0400000800
0400000800
0800000400
0800000400
1000000600
1000000200
2000000300
2000000100
4000000180
4000000080
C000000080
ENDCHAR
STARTCHAR 0411
ENCODING 1041
SWIDTH 700 0
DWIDTH 35 0
BBX 26 35 7 0
BITMAP
FFFFFF00
80000000
80000000
80000000
80000000
80000000
80000000
80000000
80000000
80000000
80000000
80000000
80000000
80000000
80000000
FFFF8000
80007800
80000C00
80000200
80000100
80000080
80000080
800000C0
80000040
80000040
80000040
80000040
80000080
80000080
80000080
80000100
80000200
80000400
80003800
FFFFC000
ENDCHAR
STARTCHAR 0412
ENCODING 1042
SWIDTH 740 0
DWIDTH 37 0
BBX 26 35 7 0
BITMAP
FFFFC000
80003000
80000C00
80000200
80000300
80000100
80000100
80000080
80000080
80000080
80000180
80000100
80000100
80000200
80000600
80000C00
8000F000
FFFFF000
80000E00
80000300
80000080
800000C0
80000040
80000040
80000040
80000040
80000040
80000040
80000040
80000040
80000080
80000180
80000300
80001C00
FFFFE000
ENDCHAR
STARTCHAR 0413
ENCODING 1043
SWIDTH 560 0
DWIDTH 28 0
BBX 21 35 7 0
BITMAP
FFFFF8
800000
800000
800000
800000
800000
800000
800000
800000
800000
800000
800000
800000
800000
800000
800000
800000
800000
800000
800000
800000
800000
800000
800000
800000
800000
800000
800000
800000
800000
800000
800000
800000
800000
800000
ENDCHAR
STARTCHAR 0414
ENCODING 1044
SWIDTH 760 0
DWIDTH 38 0
BBX 37 43 0 -8
BITMAP
007FFFFE00
0040000200
0040000200
0040000200
0040000200
0040000200
0040000200
0040000200
0040000200
0040000200
0040000200
0040000200
0040000200
0040000200
0040000200
0040000200
0040000200
0040000200
0040000200
0040000200
0040000200
0080000200
0080000200
0080000200
0080000200
0080000200
0080000200
0100000200
0100000200
0100000200
0300000200
0200000200
0400000200
0C00000200
FFFFFFFFF8
8000000008
8000000008
8000000008
8000000008
8000000008
8000000008
8000000008
8000000008
ENDCHAR
STARTCHAR 0415
ENCODING 1045
SWIDTH 640 0
DWIDTH 32 0
BBX 23 35 7 0
BITMAP
FFFFFC
800000
800000
800000
800000
800000
800000
800000
800000
800000
800000
800000
800000
800000
800000
800000
800000
FFFFF0
800000
800000
800000
800000
800000
800000
800000
800000
800000
800000
800000
800000
800000
800000
800000
800000
FFFFFE
ENDCHAR
STARTCHAR 0416
ENCODING 1046
SWIDTH 960 0
DWIDTH 48 0
BBX 45 35 2 0
BITMAP
400002000030
200002000020
300002000040
1000020000C0
080002000080
040002000100
040002000200
020002000200
010002000400
018002000800
008002001800
004002001000
006002002000
002002006000
001002004000
000802008000
000802010000
000FFFFF0000
000802008000
00100200C000
002002004000
002002002000
004002001000
008002001800
018002000800
010002000400
020002000200
040002000300
0C0002000100
080002000080
100002000040
200002000060
600002000020
400002000010
800002000018
ENDCHAR
STARTCHAR 0417
ENCODING 1047
SWIDTH 620 0
DWIDTH 31 0
BBX 25 35 2 0
BITMAP
01FF8000
0E006000
30001800
40000C00
00000400
00000200
00000200
00000200
00000100
00000300
00000200
00000200
00000200
00000400
00000800
00003000
03FFC000
0000F000
00000C00
00000600
00000300
00000100
00000080
00000080
00000080
00000080
00000080
00000080
00000100
00000100
C0000200
20000400
18001800
06007000
01FF8000
ENDCHAR
STARTCHAR 0418
ENCODING 1048
SWIDTH 820 0
DWIDTH 41 0
BBX 27 35 7 0
BITMAP
80000020
80000020
80000060
800000A0
80000120
80000320
80000220
80000420
80000820
80001820
80003020
80002020
80004020
80008020
80018020
80010020
80020020
80040020
80080020
80180020
80100020
80200020
80400020
80C00020
80800020
81000020
82000020
84000020
8C000020
88000020
90000020
A0000020
E0000020
C0000020
80000020
ENDCHAR
STARTCHAR 0419
ENCODING 1049
SWIDTH 820 0
DWIDTH 41 0
BBX 27 43 7 0
BITMAP
02000800
01001000
01803000
00C06000
003F8000
00000000
00000000
00000000
80000020
80000020
80000060
800000A0
80000120
80000320
80000220
80000420
80000820
80001820
80003020
80002020
80004020
80008020
80018020
80010020
80020020
80040020
80080020
80180020
80100020
80200020
80400020
80C00020
80800020
81000020
82000020
84000020
8C000020
88000020
90000020
A0000020
E0000020
C0000020
80000020
ENDCHAR
STARTCHAR 041A
ENCODING 1050
SWIDTH 680 0
DWIDTH 34 0
BBX 25 35 7 0
BITMAP
80000100
80000300
80000600
80000400
80000800
80001000
80003000
80006000
80004000
80008000
80010000
80020000
80060000
80040000
80080000
80100000
80200000
FFE00000
80100000
80080000
800C0000
80040000
80020000
80010000
80008000
80004000
80006000
80003000
80001000
80000800
80000400
80000200
80000300
80000180
80000080
ENDCHAR
STARTCHAR 041B
ENCODING 1051
SWIDTH 760 0
DWIDTH 38 0
BBX 32 35 0 0
BITMAP
003FFFFF
00200001
00200001
00200001
00200001
00200001
00200001
00200001
00200001
00200001
00200001
00200001
00200001
00200001
00200001
00200001
00400001
00400001
00400001
00400001
00400001
00400001
00400001
00400001
00400001
00400001
00800001
00800001
00800001
00800001
01000001
01000001
02000001
04000001
F8000001
ENDCHAR
STARTCHAR 041C
ENCODING 1052
SWIDTH 960 0
DWIDTH 48 0
BBX 34 35 7 0
BITMAP
8000000040
C000000040
C0000000C0
A0000001C0
A000000140
9000000240
9000000240
8800000440
8C00000440
8400000840
8200000840
8200001040
8100002040
8100002040
8080004040
80C0004040
8040008040
8020008040
8020010040
8010020040
8010020040
8008040040
800C040040
8004080040
8002080040
8002100040
8001200040
8001200040
8000C00040
8000C00040
8000000040
8000000040
8000000040
8000000040
8000000040
ENDCHAR
STARTCHAR 041D
ENCODING 1053
SWIDTH 820 0
DWIDTH 41 0
BBX 27 35 7 0
BITMAP
80000020
80000020
80000020
80000020
80000020
80000020
80000020
80000020
80000020
80000020
80000020
80000020
80000020
80000020
80000020
80000020
80000020
FFFFFFE0
80000020
80000020
80000020
80000020
80000020
80000020
80000020
80000020
80000020
80000020
80000020
80000020
80000020
80000020
80000020
80000020
80000020
ENDCHAR
STARTCHAR 041E
ENCODING 1054
SWIDTH 840 0
DWIDTH 42 0
BBX 36 35 3 0
BITMAP
0007FE0000
001801C000
0060003000
0180000C00
0200000600
0400000300
0800000180
1800000080
1000000040
2000000060
2000000020
4000000020
4000000010
4000000010
4000000010
4000000010
8000000010
8000000010
8000000010
4000000010
4000000010
4000000010
4000000010
4000000020
2000000020
2000000060
1000000040
1800000080
0800000180
0400000300
0200000600
0180000C00
0060003000
003800C000
0007FE0000
ENDCHAR
STARTCHAR 041F
ENCODING 1055
SWIDTH 820 0
DWIDTH 41 0
BBX 28 35 7 0
BITMAP
FFFFFFF0
80000010
80000010
80000010
80000010
80000010
80000010
80000010
80000010
80000010
80000010
80000010
80000010
80000010
80000010
80000010
80000010
80000010
80000010
80000010
80000010
80000010
80000010
80000010
80000010
80000010
80000010
80000010
80000010
80000010
80000010
80000010
80000010
80000010
80000010
ENDCHAR
STARTCHAR 0420
ENCODING 1056
SWIDTH 700 0
DWIDTH 35 0
BBX 25 35 7 0
BITMAP
FFFF0000
8000E000
80001800
80000400
80000200
80000100
80000100
80000080
80000080
80000080
80000080
80000080
80000080
80000080
80000080
80000080
80000100
80000100
80000200
80000400
80001800
80006000
FFFF8000
80000000
80000000
80000000
80000000
80000000
80000000
80000000
80000000
80000000
80000000
80000000
80000000
ENDCHAR
STARTCHAR 0421
ENCODING 1057
SWIDTH 700 0
DWIDTH 35 0
BBX 30 35 3 0
BITMAP
0007FF00
001800C0
00600030
01800008
03000004
04000000
08000000
18000000
10000000
20000000
20000000
40000000
40000000
40000000
40000000
40000000
80000000
80000000
80000000
40000000
40000000
40000000
40000000
40000000
20000000
20000000
10000000
18000000
08000000
04000000
03000004
01800008
00600030
003800C0
0007FF00
ENDCHAR
STARTCHAR 0422
ENCODING 1058
SWIDTH 540 0
DWIDTH 27 0
BBX 27 35 0 0
BITMAP
FFFFFFE0
00040000
00040000
00040000
00040000
00040000
00040000
00040000
00040000
00040000
00040000
00040000
00040000
00040000
00040000
00040000
00040000
00040000
00040000
00040000
00040000
00040000
00040000
00040000
00040000
00040000
00040000
00040000
00040000
00040000
00040000
00040000
00040000
00040000
00040000
ENDCHAR
STARTCHAR 0423
ENCODING 1059
SWIDTH 640 0
DWIDTH 32 0
BBX 30 35 2 0
BITMAP
80000004
80000008
40000018
40000010
20000030
20000020
10000040
18000040
08000080
0C000080
04000100
06000100
02000200
01000200
01000400
00800400
00800800
00401000
00401000
00202000
00202000
00104000
00104000
00088000
00088000
00050000
00050000
00020000
00040000
00040000
00080000
00180000
00300000
00600000
1F800000
ENDCHAR
STARTCHAR 0424
ENCODING 1060
SWIDTH 880 0
DWIDTH 44 0
BBX 39 37 3 -1
BITMAP
0000100000
0000100000
0000100000
0000100000
001FFFF000
0060101C00
0180100300
06001000C0
0800100060
1000100030
3000100018
2000100008
4000100004
4000100004
C000100004
8000100002
8000100002
8000100002
8000100002
8000100002
8000100002
8000100002
C000100004
4000100004
4000100004
2000100008
3000100018
1000100030
0C00100060
06001000C0
0180100300
00E0101C00
001FFFF000
0000380000
0000100000
0000100000
0000100000
ENDCHAR
STARTCHAR 0425
ENCODING 1061
SWIDTH 600 0
DWIDTH 30 0
BBX 27 35 2 0
BITMAP
400000C0
20000080
30000100
10000300
08000200
04000400
04000800
02001800
01001000
01802000
00804000
00404000
00208000
00310000
00130000
000A0000
000C0000
000C0000
001A0000
00110000
00218000
00608000
00404000
00806000
01002000
03001000
02000800
04000C00
0C000400
08000200
10000100
20000100
60000080
40000040
80000060
ENDCHAR
STARTCHAR 0426
ENCODING 1062
SWIDTH 820 0
DWIDTH 41 0
BBX 32 44 7 -9
BITMAP
80000040
80000040
80000040
80000040
80000040
80000040
80000040
80000040
80000040
80000040
80000040
80000040
80000040
80000040
80000040
80000040
80000040
80000040
80000040
80000040
80000040
80000040
80000040
80000040
80000040
80000040
80000040
80000040
80000040
80000040
80000040
80000040
80000040
80000040
FFFFFFFF
00000001
00000001
00000001
00000001
00000001
00000001
00000001
00000001
00000001
ENDCHAR
STARTCHAR 0427
ENCODING 1063
SWIDTH 720 0
DWIDTH 36 0
BBX 26 35 3 0
BITMAP
C0000040
C0000040
C0000040
C0000040
C0000040
C0000040
C0000040
C0000040
C0000040
C0000040
C0000040
C0000040
C0000040
40000040
40000040
40000040
60000040
20000040
10000040
080003C0
06001C40
01FFE040
00000040
00000040
00000040
00000040
00000040
00000040
00000040
00000040
00000040
00000040
00000040
00000040
00000040
ENDCHAR
STARTCHAR 0428
ENCODING 1064
SWIDTH 1080 0
DWIDTH 54 0
BBX 41 35 7 0
BITMAP
800008000080
800008000080
800008000080
800008000080
800008000080
800008000080
800008000080
800008000080
800008000080
800008000080
800008000080
800008000080
800008000080
800008000080
800008000080
800008000080
800008000080
800008000080
800008000080
800008000080
800008000080
800008000080
800008000080
800008000080
800008000080
800008000080
800008000080
800008000080
800008000080
800008000080
800008000080
800008000080
800008000080
800008000080
FFFFFFFFFF80
ENDCHAR
STARTCHAR 0429
ENCODING 1065
SWIDTH 1100 0
DWIDTH 55 0
BBX 47 43 7 -8
BITMAP
800008000080
800008000080
800008000080
800008000080
800008000080
800008000080
800008000080
800008000080
800008000080
800008000080
800008000080
800008000080
800008000080
800008000080
800008000080
800008000080
800008000080
800008000080
800008000080
800008000080
800008000080
800008000080
800008000080
800008000080
800008000080
800008000080
800008000080
800008000080
800008000080
800008000080
800008000080
800008000080
800008000080
800008000080
FFFFFFFFFFFE
000000000002
000000000002
000000000002
000000000002
000000000002
000000000002
000000000002
000000000002
ENDCHAR
STARTCHAR 042A
ENCODING 1066
SWIDTH 800 0
DWIDTH 40 0
BBX 38 35 0 0
BITMAP
FFF8000000
0008000000
0008000000
0008000000
0008000000
0008000000
0008000000
0008000000
0008000000
0008000000
0008000000
0008000000
0008000000
000FFFF800
0008000700
00080000C0
0008000020
0008000010
0008000010
0008000008
0008000008
0008000008
0008000004
0008000004
0008000004
0008000004
0008000008
0008000008
0008000008
0008000010
0008000010
0008000020
00080000C0
0008000300
000FFFFC00
ENDCHAR
STARTCHAR 042B
ENCODING 1067
SWIDTH 940 0
DWIDTH 47 0
BBX 34 35 7 0
BITMAP
8000000040
8000000040
8000000040
8000000040
8000000040
8000000040
8000000040
8000000040
8000000040
8000000040
8000000040
8000000040
8000000040
FFFF800040
8000F00040
80000C0040
8000060040
8000030040
8000010040
8000008040
8000008040
8000008040
8000008040
8000004040
8000004040
8000008040
8000008040
8000008040
8000008040
8000010040
8000010040
8000020040
80000C0040
8000700040
FFFFC00040
ENDCHAR
STARTCHAR 042C
ENCODING 1068
SWIDTH 700 0
DWIDTH 35 0
BBX 26 35 7 0
BITMAP
80000000
80000000
80000000
80000000
80000000
80000000
80000000
80000000
80000000
80000000
80000000
80000000
80000000
FFFF8000
8000F000
80000C00
80000600
80000300
80000100
80000080
80000080
80000080
80000080
80000040
80000040
80000080
80000080
80000080
80000080
80000100
80000100
80000200
80000C00
80007000
FFFFC000
ENDCHAR
STARTCHAR 042D
ENCODING 1069
SWIDTH 700 0
DWIDTH 35 0
BBX 30 35 2 0
BITMAP
01FF8000
0E007000
18000C00
60000200
80000100
00000080
00000040
00000020
00000020
00000010
00000010
00000008
00000008
00000008
00000008
00000004
00000004
00FFFFFC
00000004
00000004
00000008
00000008
00000008
00000008
00000010
00000010
00000020
00000020
00000040
00000080
80000100
60000200
30000C00
0E003000
01FF8000
ENDCHAR
STARTCHAR 042E
ENCODING 1070
SWIDTH 1080 0
DWIDTH 54 0
BBX 43 35 7 0
BITMAP
800003FE0000
80001C01C000
800060003000
8000C0001800
800100000400
800200000200
800400000100
800C00000180
800800000080
801000000040
801000000040
801000000040
802000000020
802000000020
802000000020
802000000020
802000000020
FFE000000020
802000000020
802000000020
802000000020
802000000020
802000000020
801000000040
801000000040
801000000040
800800000080
800C00000180
800400000100
800200000200
800100000400
8000C0001800
800060003000
80001C01C000
800003FE0000
ENDCHAR
STARTCHAR 042F
ENCODING 1071
SWIDTH 720 0
DWIDTH 36 0
BBX 26 35 4 0
BITMAP
007FFFC0
03800040
0C000040
18000040
30000040
20000040
40000040
40000040
40000040
80000040
80000040
80000040
80000040
80000040
80000040
40000040
40000040
40000040
20000040
10000040
18000040
06000040
01F00040
008FFFC0
01800040
01000040
02000040
06000040
04000040
08000040
10000040
10000040
20000040
40000040
C0000040
ENDCHAR
STARTCHAR 0430
ENCODING 1072
SWIDTH 560 0
DWIDTH 28 0
BBX 20 26 3 0
BITMAP
01FE00
0E0180
180040
600020
000020
000010
000010
000010
000010
000010
000010
000010
07FFF0
180010
200010
400010
400010
800010
800010
800010
800030
400030
400050
200090
180310
07FC10
ENDCHAR
STARTCHAR 0431
ENCODING 1073
SWIDTH 640 0
DWIDTH 32 0
BBX 25 38 4 0
BITMAP
00000300
00003C00
0003C000
003C0000
00C00000
03000000
06000000
08000000
18000000
10000000
20000000
20000000
40000000
40FFC000
43003000
C6000800
88000400
90000200
B0000100
A0000100
A0000080
C0000080
C0000080
C0000080
C0000080
C0000080
C0000080
40000080
40000080
40000080
20000100
20000100
10000200
18000600
0C000C00
06001800
03806000
00FF8000
ENDCHAR
STARTCHAR 0432
ENCODING 1074
SWIDTH 580 0
DWIDTH 29 0
BBX 20 26 6 0
BITMAP
FFF800
800700
800080
800040
800060
800020
800020
800020
800020
800040
8000C0
800180
FFFE00
800F00
8000C0
800020
800020
800010
800010
800010
800010
800020
800020
800040
800180
FFFE00
ENDCHAR
STARTCHAR 0433
ENCODING 1075
SWIDTH 440 0
DWIDTH 22 0
BBX 17 26 6 0
BITMAP
FFFF80
800000
800000
800000
800000
800000
800000
800000
800000
800000
800000
800000
800000
800000
800000
800000
800000
800000
800000
800000
800000
800000
800000
800000
800000
800000
ENDCHAR
STARTCHAR 0434
ENCODING 1076
SWIDTH 620 0
DWIDTH 31 0
BBX 28 33 1 -7
BITMAP
01FFFF00
01000100
01000100
01000100
03000100
02000100
02000100
02000100
02000100
02000100
02000100
02000100
02000100
02000100
02000100
02000100
02000100
04000100
04000100
04000100
04000100
04000100
08000100
08000100
10000100
FFFFFFF0
80000010
80000010
80000010
80000010
80000010
80000010
80000010
ENDCHAR
STARTCHAR 0435
ENCODING 1077
SWIDTH 580 0
DWIDTH 29 0
BBX 24 26 3 0
BITMAP
007F00
0380C0
040020
080018
100008
200004
200002
400002
400002
800001
800001
800001
FFFFFF
800000
800000
800000
400000
400000
400000
200000
200000
100000
080004
060018
038070
007F80
ENDCHAR
STARTCHAR 0436
ENCODING 1078
SWIDTH 760 0
DWIDTH 38 0
BBX 35 26 2 0
BITMAP
C000400060
4000400040
2000400080
1000400100
1800400300
0800400200
0400400400
0200400800
0200401800
0100401000
0080402000
0040404000
007FFFC000
0040404000
0080402000
0180403000
0100401000
0200400800
0400400400
0C00400600
0800400200
1000400100
2000400080
60004000C0
C000400040
8000400020
ENDCHAR
STARTCHAR 0437
ENCODING 1079
SWIDTH 500 0
DWIDTH 25 0
BBX 20 26 2 0
BITMAP
03FC00
1C0700
600080
000040
000020
000020
000020
000020
000020
000040
000080
000300
03FC00
000380
000040
000020
000030
000010
000010
000010
000010
000020
800060
4000C0
380300
07FC00
ENDCHAR
STARTCHAR 0438
ENCODING 1080
SWIDTH 660 0
DWIDTH 33 0
BBX 22 26 6 0
BITMAP
800004
80000C
800014
800024
800064
800044
800084
800104
800204
800404
800C04
800804
801004
802004
804004
808004
818004
810004
820004
840004
880004
900004
B00004
A00004
C00004
800004
ENDCHAR
STARTCHAR 0439
ENCODING 1081
SWIDTH 660 0
DWIDTH 33 0
BBX 22 36 6 0
BITMAP
080080
080080
040080
060100
018600
007800
000000
000000
000000
000000
800004
80000C
800014
800024
800064
800044
800084
800104
800204
800404
800C04
800804
801004
802004
804004
808004
818004
810004
820004
840004
880004
900004
B00004
A00004
C00004
800004
ENDCHAR
STARTCHAR 043A
ENCODING 1082
SWIDTH 540 0
DWIDTH 27 0
BBX 20 26 6 0
BITMAP
800020
800040
8000C0
800180
800100
800200
800400
800800
801000
802000
806000
80C000
FF8000
808000
804000
802000
801000
800800
800C00
800600
800200
800100
800080
800040
800020
800010
ENDCHAR
STARTCHAR 043B
ENCODING 1083
SWIDTH 600 0
DWIDTH 30 0
BBX 25 26 0 0
BITMAP
00FFFF80
00800080
00800080
00800080
00800080
01800080
01000080
01000080
01000080
01000080
01000080
01000080
01000080
01000080
01000080
01000080
01000080
01000080
02000080
02000080
02000080
02000080
04000080
04000080
08000080
F0000080
ENDCHAR
STARTCHAR 043C
ENCODING 1084
SWIDTH 760 0
DWIDTH 38 0
BBX 27 26 6 0
BITMAP
80000020
C0000060
C0000060
A00000A0
A00001A0
90000120
98000220
88000220
84000420
84000820
82000820
83001020
81001020
80802020
80804020
80404020
80208020
80208020
80110020
80120020
800A0020
80040020
80000020
80000020
80000020
80000020
ENDCHAR
STARTCHAR 043D
ENCODING 1085
SWIDTH 660 0
DWIDTH 33 0
BBX 21 26 6 0
BITMAP
800008
800008
800008
800008
800008
800008
800008
800008
800008
800008
800008
800008
FFFFF8
800008
800008
800008
800008
800008
800008
800008
800008
800008
800008
800008
800008
800008
ENDCHAR
STARTCHAR 043E
ENCODING 1086
SWIDTH 620 0
DWIDTH 31 0
BBX 25 26 3 0
BITMAP
007F0000
0180E000
06001000
08000800
10000400
20000200
20000100
40000100
40000180
C0000080
80000080
80000080
80000080
80000080
80000080
80000080
C0000080
40000180
40000100
20000100
20000200
10000400
08000C00
06001800
03806000
00FF8000
ENDCHAR
STARTCHAR 043F
ENCODING 1087
SWIDTH 660 0
DWIDTH 33 0
BBX 22 26 6 0
BITMAP
FFFFFC
800004
800004
800004
800004
800004
800004
800004
800004
800004
800004
800004
800004
800004
800004
800004
800004
800004
800004
800004
800004
800004
800004
800004
800004
800004
ENDCHAR
STARTCHAR 0440
ENCODING 1088
SWIDTH 680 0
DWIDTH 34 0
BBX 25 36 6 -10
BITMAP
807F0000
8380E000
86003000
88000800
90000400
A0000200
A0000200
C0000100
C0000100
80000080
80000080
80000080
80000080
80000080
80000080
80000080
80000080
C0000100
C0000100
C0000300
A0000200
90000400
88000800
84001000
83006000
80FF8000
80000000
80000000
80000000
80000000
80000000
80000000
80000000
80000000
80000000
80000000
ENDCHAR
STARTCHAR 0441
ENCODING 1089
SWIDTH 540 0
DWIDTH 27 0
BBX 22 26 3 0
BITMAP
007F00
0180E0
060010
080008
100004
200000
200000
400000
400000
C00000
800000
800000
800000
800000
800000
800000
C00000
400000
400000
200000
200000
100004
08000C
060018
038060
00FF80
ENDCHAR
STARTCHAR 0442
ENCODING 1090
SWIDTH 420 0
DWIDTH 21 0
BBX 22 26 0 0
BITMAP
FFFFFC
002000
002000
002000
002000
002000
002000
002000
002000
002000
002000
002000
002000
002000
002000
002000
002000
002000
002000
002000
002000
002000
002000
002000
002000
002000
ENDCHAR
STARTCHAR 0443
ENCODING 1091
SWIDTH 520 0
DWIDTH 26 0
BBX 26 36 -1 -10
BITMAP
20000040
30000040
100000C0
10000080
08000180
08000100
04000100
04000200
02000200
02000400
01000400
01000800
01800800
00801000
00801000
00403000
00402000
00202000
00204000
00104000
00108000
00088000
00090000
00050000
00060000
00060000
00060000
00040000
000C0000
00080000
00080000
00100000
00300000
C0600000
60C00000
1F000000
ENDCHAR
STARTCHAR 0444
ENCODING 1092
SWIDTH 740 0
DWIDTH 37 0
BBX 31 47 3 -10
BITMAP
00010000
00010000
00010000
00010000
00010000
00010000
00010000
00010000
00010000
00010000
00010000
003FF800
01C10700
060100C0
0C010060
10010010
20010008
2001000C
40010004
40010004
80010002
80010002
80010002
80010002
80010002
80010002
80010002
80010002
40010006
40010004
6001000C
20010008
10010010
0C010020
060100C0
01C10700
003FF800
00010000
00010000
00010000
00010000
00010000
00010000
00010000
00010000
00010000
00010000
ENDCHAR
STARTCHAR 0445
ENCODING 1093
SWIDTH 480 0
DWIDTH 24 0
BBX 21 26 2 0
BITMAP
800010
400030
200020
100040
180080
080180
040100
020200
010400
010800
009800
005000
002000
007000
00D000
018800
010400
020200
040300
0C0100
080080
100040
200060
600030
400010
800008
ENDCHAR
STARTCHAR 0446
ENCODING 1094
SWIDTH 660 0
DWIDTH 33 0
BBX 25 33 6 -7
BITMAP
80000800
80000800
80000800
80000800
80000800
80000800
80000800
80000800
80000800
80000800
80000800
80000800
80000800
80000800
80000800
80000800
80000800
80000800
80000800
80000800
80000800
80000800
80000800
80000800
80000800
FFFFFF80
00000080
00000080
00000080
00000080
00000080
00000080
00000080
ENDCHAR
STARTCHAR 0447
ENCODING 1095
SWIDTH 560 0
DWIDTH 28 0
BBX 20 26 3 0
BITMAP
800010
800010
800010
800010
800010
800010
800010
800010
800010
800010
800010
800010
C00010
600010
3000F0
0E0F10
00F010
000010
000010
000010
000010
000010
000010
000010
000010
000010
ENDCHAR
STARTCHAR 0448
ENCODING 1096
SWIDTH 900 0
DWIDTH 45 0
BBX 33 26 6 0
BITMAP
8000800080
8000800080
8000800080
8000800080
8000800080
8000800080
8000800080
8000800080
8000800080
8000800080
8000800080
8000800080
8000800080
8000800080
8000800080
8000800080
8000800080
8000800080
8000800080
8000800080
8000800080
8000800080
8000800080
8000800080
8000800080
FFFFFFFF80
ENDCHAR
STARTCHAR 0449
ENCODING 1097
SWIDTH 900 0
DWIDTH 45 0
BBX 37 32 6 -6
BITMAP
8000800080
8000800080
8000800080
8000800080
8000800080
8000800080
8000800080
8000800080
8000800080
8000800080
8000800080
8000800080
8000800080
8000800080
8000800080
8000800080
8000800080
8000800080
8000800080
8000800080
8000800080
8000800080
8000800080
8000800080
8000800080
FFFFFFFFF8
0000000008
0000000008
0000000008
0000000008
0000000008
0000000008
ENDCHAR
STARTCHAR 044A
ENCODING 1098
SWIDTH 580 0
DWIDTH 29 0
BBX 27 26 0 0
BITMAP
FF800000
00800000
00800000
00800000
00800000
00800000
00800000
00800000
00800000
00800000
00FFFC00
00800300
00800080
00800040
00800040
00800020
00800020
00800020
00800020
00800020
00800020
00800040
00800040
00800080
00800300
00FFFC00
ENDCHAR
STARTCHAR 044B
ENCODING 1099
SWIDTH 740 0
DWIDTH 37 0
BBX 25 26 6 0
BITMAP
80000080
80000080
80000080
80000080
80000080
80000080
80000080
80000080
80000080
80000080
FFF80080
80070080
80018080
8000C080
80004080
80006080
80002080
80002080
80002080
80002080
80006080
80004080
8000C080
80018080
80030080
FFF80080
ENDCHAR
STARTCHAR 044C
ENCODING 1100
SWIDTH 520 0
DWIDTH 26 0
BBX 19 26 6 0
BITMAP
800000
800000
800000
800000
800000
800000
800000
800000
800000
800000
FFF800
800700
800180
8000C0
800040
800060
800020
800020
800020
800020
800060
800040
8000C0
800180
800300
FFF800
ENDCHAR
STARTCHAR 044D
ENCODING 1101
SWIDTH 560 0
DWIDTH 28 0
BBX 23 26 2 0
BITMAP
03FC00
1C0300
6000C0
C00020
000010
000008
00000C
000004
000004
000002
000002
000002
01FFFE
000002
000002
000002
000002
000006
000004
00000C
000008
000010
800020
6000C0
180380
07FC00
ENDCHAR
STARTCHAR 044E
ENCODING 1102
SWIDTH 840 0
DWIDTH 42 0
BBX 33 26 6 0
BITMAP
80007F0000
800180E000
8006001000
8008000800
8010000400
8030000200
8020000300
8040000100
8040000100
8040000080
8040000080
8080000080
FF80000080
8080000080
8080000080
8040000080
8040000080
8040000100
8040000100
8020000300
8030000200
8010000400
8008000800
8006001000
8003806000
8000FF8000
ENDCHAR
STARTCHAR 044F
ENCODING 1103
SWIDTH 580 0
DWIDTH 29 0
BBX 20 26 4 0
BITMAP
03FFF0
0C0010
300010
400010
400010
800010
800010
800010
800010
800010
800010
800010
400010
600010
300010
0F0010
01FFF0
020010
040010
0C0010
080010
100010
200010
600010
400010
800010
ENDCHAR
STARTCHAR 0450
ENCODING 1104
SWIDTH 600 0
DWIDTH 30 0
BBX 24 36 3 0
BITMAP
030000
018000
00C000
003000
001800
000400
000000
000000
000000
000000
007F00
0380C0
040020
080018
100008
200004
200002
400002
400002
800001
800001
800001
FFFFFF
800000
800000
800000
400000
400000
400000
200000
200000
100000
080004
060018
038070
007F80
ENDCHAR
STARTCHAR 0451
ENCODING 1105
SWIDTH 580 0
DWIDTH 29 0
BBX 24 35 3 0
BITMAP
010080
0181C0
018180
000000
000000
000000
000000
000000
000000
007F00
0380C0
040020
080018
100008
200004
200002
400002
400002
800001
800001
800001
FFFFFF
800000
800000
800000
400000
400000
400000
200000
200000
100000
080004
060018
038070
007F80
ENDCHAR
STARTCHAR 0452
ENCODING 1106
SWIDTH 660 0
DWIDTH 33 0
BBX 28 47 0 -10
BITMAP
02000000
02000000
02000000
02000000
02000000
FFFFF000
02000000
02000000
02000000
02000000
02000000
0203F800
021C0700
02300180
02400040
02800060
02800020
03000020
03000010
02000010
02000010
02000010
02000010
02000010
02000010
02000010
02000010
02000010
02000010
02000010
02000010
02000010
02000010
02000010
02000010
02000010
02000010
00000010
00000010
00000010
00000010
00000010
00000010
00000030
00004020
000060C0
00000F00
ENDCHAR
STARTCHAR 0453
ENCODING 1107
SWIDTH 440 0
DWIDTH 22 0
BBX 17 36 6 0
BITMAP
000600
001800
003000
006000
008000
030000
000000
000000
000000
000000
FFFF80
800000
800000
800000
800000
800000
800000
800000
800000
800000
800000
800000
800000
800000
800000
800000
800000
800000
800000
800000
800000
800000
800000
800000
800000
800000
ENDCHAR
STARTCHAR 0454
ENCODING 1108
SWIDTH 560 0
DWIDTH 28 0
BBX 23 26 3 0
BITMAP
007F80
018070
06000C
0C0002
100000
300000
200000
400000
400000
800000
800000
800000
800000
FFFF80
800000
800000
800000
400000
400000
200000
200000
100000
080002
06000C
018030
007FC0
ENDCHAR
STARTCHAR 0455
ENCODING 1109
SWIDTH 500 0
DWIDTH 25 0
BBX 20 26 3 0
BITMAP
03FC00
0C0380
100040
200000
400000
400000
400000
400000
400000
600000
300000
1C0000
07C000
007C00
000380
0000C0
000020
000020
000020
000010
000020
000020
800020
600040
380180
07FE00
ENDCHAR
STARTCHAR 0456
ENCODING 1110
SWIDTH 240 0
DWIDTH 12 0
BBX 3 36 5 0
BITMAP
40
E0
C0
00
00
00
00
00
00
00
40
40
40
40
40
40
40
40
40
40
40
40
40
40
40
40
40
40
40
40
40
40
40
40
40
40
ENDCHAR
STARTCHAR 0457
ENCODING 1111
SWIDTH 240 0
DWIDTH 12 0
BBX 8 35 2 0
BITMAP
42
E3
43
00
00
00
00
00
00
08
08
08
08
08
08
08
08
08
08
08
08
08
08
08
08
08
08
08
08
08
08
08
08
08
08
ENDCHAR
STARTCHAR 0458
ENCODING 1112
SWIDTH 240 0
DWIDTH 12 0
BBX 12 46 -4 -10
BITMAP
0020
0070
0060
0000
0000
0000
0000
0000
0000
0000
0020
0020
0020
0020
0020
0020
0020
0020
0020
0020
0020
0020
0020
0020
0020
0020
0020
0020
0020
0020
0020
0020
0020
0020
0020
0020
0020
0020
0020
0020
0020
0020
0040
8040
C180
1E00
ENDCHAR
STARTCHAR 0459
ENCODING 1113
SWIDTH 880 0
DWIDTH 44 0
BBX 43 26 0 0
BITMAP
00FFFF800000
008000800000
008000800000
008000800000
008000800000
018000800000
010000800000
010000800000
010000800000
010000800000
010000FFF800
010000800700
010000800180
0100008000C0
010000800040
010000800060
010000800020
010000800020
020000800020
020000800020
020000800040
020000800040
0400008000C0
040000800180
080000800300
F00000FFFC00
ENDCHAR
STARTCHAR 045A
ENCODING 1114
SWIDTH 920 0
DWIDTH 46 0
BBX 39 26 6 0
BITMAP
8000080000
8000080000
8000080000
8000080000
8000080000
8000080000
8000080000
8000080000
8000080000
8000080000
8000080000
FFFFFFFE00
80000800E0
8000080018
8000080008
8000080004
8000080004
8000080002
8000080002
8000080006
8000080004
8000080004
800008000C
8000080018
8000080060
80000FFF80
ENDCHAR
STARTCHAR 045B
ENCODING 1115
SWIDTH 660 0
DWIDTH 33 0
BBX 29 37 -1 0
BITMAP
01000000
01000000
01000000
01000000
01000000
FFFFFC00
01000000
01000000
01000000
01000000
01000000
0101FC00
010E0380
011800C0
01200020
01400030
01400010
01800010
01800008
01000008
01000008
01000008
01000008
01000008
01000008
01000008
01000008
01000008
01000008
01000008
01000008
01000008
01000008
01000008
01000008
01000008
01000008
ENDCHAR
STARTCHAR 045C
ENCODING 1116
SWIDTH 540 0
DWIDTH 27 0
BBX 20 36 6 0
BITMAP
000C00
001800
003000
004000
018000
030000
000000
000000
000000
000000
800020
800040
8000C0
800180
800100
800200
800400
800800
801000
802000
806000
80C000
FF8000
808000
804000
802000
801000
800800
800C00
800600
800200
800100
800080
800040
800020
800010
ENDCHAR
STARTCHAR 045D
ENCODING 1117
SWIDTH 660 0
DWIDTH 33 0
BBX 22 36 6 0
BITMAP
060000
030000
018000
004000
003000
001800
000000
000000
000000
000000
800004
80000C
800014
800024
800064
800044
800084
800104
800204
800404
800C04
800804
801004
802004
804004
808004
818004
810004
820004
840004
880004
900004
B00004
A00004
C00004
800004
ENDCHAR
STARTCHAR 045E
ENCODING 1118
SWIDTH 520 0
DWIDTH 26 0
BBX 26 46 -1 -10
BITMAP
01001000
01001000
01803000
00806000
0060C000
001E0000
00000000
00000000
00000000
00000000
20000040
30000040
100000C0
10000080
08000180
08000100
04000100
04000200
02000200
02000400
01000400
01000800
01800800
00801000
00801000
00403000
00402000
00202000
00204000
00104000
00108000
00088000
00090000
00050000
00060000
00060000
00060000
00040000
000C0000
00080000
00080000
00100000
00300000
C0600000
60C00000
1F000000
ENDCHAR
STARTCHAR 045F
ENCODING 1119
SWIDTH 620 0
DWIDTH 31 0
BBX 20 33 6 -7
BITMAP
800030
800030
800030
800030
800030
800030
800030
800030
800030
800030
800030
800030
800030
800030
800030
800030
800030
800030
800030
800030
800030
800030
800030
800030
800030
FFFFF0
004000
004000
004000
004000
004000
004000
004000
ENDCHAR
STARTCHAR 0462
ENCODING 1122
SWIDTH 780 0
DWIDTH 39 0
BBX 35 37 1 0
BITMAP
0020000000
0020000000
0020000000
0020000000
0020000000
0020000000
0020000000
FFFFFC0000
0020000000
0020000000
0020000000
0020000000
0020000000
0020000000
0020000000
003FFFE000
0020003C00
0020000300
0020000180
00200000C0
0020000040
0020000020
0020000020
0020000020
0020000020
0020000020
0020000020
0020000020
0020000020
0020000020
0020000020
0020000040
0020000040
0020000080
0020000300
0020001C00
003FFFE000
ENDCHAR
STARTCHAR 0463
ENCODING 1123
SWIDTH 560 0
DWIDTH 28 0
BBX 26 37 0 0
BITMAP
01000000
01000000
01000000
01000000
01000000
01000000
01000000
01000000
01000000
01000000
01000000
FFFFC000
01000000
01000000
01000000
01000000
01000000
01000000
01000000
01000000
01000000
01FFF800
01000600
01000100
01000080
01000080
01000040
01000040
01000040
01000040
01000040
01000040
01000080
01000080
01000100
01000600
01FFF800
ENDCHAR
STARTCHAR 046A
ENCODING 1130
SWIDTH 840 0
DWIDTH 42 0
BBX 39 35 2 0
BITMAP
1FFFFFFFF0
1800000020
0C00000040
0600000080
0300000100
0180000200
00C0000400
0040000800
0020001000
0010002000
0008006000
000400C000
0002018000
0001010000
0000820000
0000440000
0000280000
0007FFC000
0018107000
0060100C00
0080100600
0100100300
0200100180
0400100080
0400100040
0800100040
0800100020
1000100020
1000100010
2000100010
2000100008
4000100008
4000100004
8000100004
8000100002
ENDCHAR
STARTCHAR 046B
ENCODING 1131
SWIDTH 620 0
DWIDTH 31 0
BBX 28 26 2 0
BITMAP
3FFFFFC0
30000080
18000100
08000200
04000400
02000C00
01001800
00801000
00402000
00204000
00108000
00090000
00060000
00FFF000
03040800
06040400
0C040200
08040100
10040180
30040080
20040040
20040040
40040060
40040020
80040020
80040010
ENDCHAR
STARTCHAR 0472
ENCODING 1138
SWIDTH 840 0
DWIDTH 42 0
BBX 36 35 3 0
BITMAP
0007FE0000
001801C000
0060003000
0180000C00
0300000600
0400000300
0800000180
1800000080
1000000040
2000000060
2000000020
4000000020
4000000010
4000000010
4000000010
4000000010
8000000010
FFFFFFFFF0
8000000010
4000000010
4000000010
4000000010
4000000010
4000000020
2000000020
2000000060
1000000040
1800000080
0800000180
0400000300
0300000600
0180000C00
0060003000
003800C000
0007FE0000
ENDCHAR
STARTCHAR 0473
ENCODING 1139
SWIDTH 620 0
DWIDTH 31 0
BBX 26 26 3 0
BITMAP
007F8000
01806000
06001800
08000C00
10000200
20000300
20000100
40000080
40000080
C0000080
800000C0
80000040
80000040
FFFFFFC0
80000040
80000040
80000080
40000080
40000080
20000100
20000300
10000200
08000400
06001800
03807000
007F8000
ENDCHAR
STARTCHAR 0474
ENCODING 1140
SWIDTH 720 0
DWIDTH 36 0
BBX 34 35 2 1
BITMAP
80000007C0
8000001800
C000003000
4000002000
4000004000
2000004000
2000008000
3000008000
1000010000
1000010000
0800010000
0800020000
0400020000
0400020000
0400040000
0200040000
0200040000
0100080000
0100080000
0180100000
0080100000
0080100000
0040200000
0040200000
0020200000
0020400000
0020400000
0010400000
0010800000
0008800000
0008800000
000D000000
0005000000
0006000000
0002000000
ENDCHAR
STARTCHAR 0475
ENCODING 1141
SWIDTH 520 0
DWIDTH 26 0
BBX 26 26 1 0
BITMAP
800003C0
40000400
40000C00
60000800
20001800
20001000
10001000
10002000
08002000
08002000
0C004000
04004000
04008000
02008000
02008000
01010000
01010000
00830000
00820000
00C20000
00440000
00440000
00240000
00280000
00180000
00180000
ENDCHAR
STARTCHAR 048A
ENCODING 1162
SWIDTH 840 0
DWIDTH 42 0
BBX 32 51 7 -8
BITMAP
02000800
01001000
01803000
00C06000
003F8000
00000000
00000000
00000000
80000020
80000020
80000060
800000A0
80000120
80000320
80000220
80000420
80000820
80001820
80003020
80002020
80004020
80008020
80018020
80010020
80020020
80040020
80080020
80180020
80100020
80200020
80400020
80C00020
80800020
81000020
82000020
84000020
8C000020
88000020
90000020
A0000020
E0000020
C0000020
8000003F
00000001
00000001
00000002
00000002
00000002
00000004
00000004
00000004
ENDCHAR
STARTCHAR 048B
ENCODING 1163
SWIDTH 680 0
DWIDTH 34 0
BBX 26 42 6 -6
BITMAP
08008000
08008000
04008000
06010000
03860000
00780000
00000000
00000000
00000000
00000000
80000400
80000C00
80001400
80002400
80006400
80004400
80008400
80010400
80020400
80040400
800C0400
80080400
80100400
80200400
80400400
80800400
81800400
81000400
82000400
84000400
88000400
90000400
B0000400
A0000400
C0000400
800007C0
00000040
00000080
00000080
00000080
00000100
00000100
ENDCHAR
STARTCHAR 048C
ENCODING 1164
SWIDTH 720 0
DWIDTH 36 0
BBX 32 37 2 0
BITMAP
02000000
02000000
02000000
02000000
02000000
02000000
02000000
FFFFE000
02000000
02000000
02000000
02000000
02000000
02000000
02000000
03FFFE00
020001C0
02000030
02000008
02000004
02000006
02000002
02000002
02000001
02000001
02000001
02000001
02000001
02000001
02000002
02000002
02000006
02000004
02000008
02000030
020000E0
03FFFF00
ENDCHAR
STARTCHAR 048D
ENCODING 1165
SWIDTH 560 0
DWIDTH 28 0
BBX 25 26 1 0
BITMAP
02000000
02000000
02000000
02000000
FFFF8000
02000000
02000000
02000000
02000000
02000000
03FFF000
02000C00
02000200
02000100
02000080
02000080
02000080
02000080
02000080
02000080
02000080
02000080
02000100
02000200
02000C00
03FFF000
ENDCHAR
STARTCHAR 048E
ENCODING 1166
SWIDTH 720 0
DWIDTH 36 0
BBX 25 35 7 0
BITMAP
FFFF0000
8000E000
80001800
80000400
80000200
80000100
80000100
80000080
80000080
80000080
80000080
80000080
80180080
80080080
80040080
80020080
80030100
80010100
80008200
80004400
80007800
80006000
FFFF9000
80000800
80000400
80000600
80000200
80000100
80000080
80000000
80000000
80000000
80000000
80000000
80000000
ENDCHAR
STARTCHAR 048F
ENCODING 1167
SWIDTH 680 0
DWIDTH 34 0
BBX 25 36 6 -10
BITMAP
807F0000
8380E000
86003000
88000800
90000400
A0000200
A0000200
C0000100
C0000100
80000080
80000080
80000080
80000080
80000080
80000080
80000080
80000080
C0010100
C0010100
C0008300
A0004200
90006400
88002800
84001000
83006800
80FF8400
80000400
80000200
80000100
80000000
80000000
80000000
80000000
80000000
80000000
80000000
ENDCHAR
STARTCHAR 0490
ENCODING 1168
SWIDTH 560 0
DWIDTH 28 0
BBX 21 42 7 0
BITMAP
000008
000008
000008
000008
000008
000008
000008
FFFFF8
800000
800000
800000
800000
800000
800000
800000
800000
800000
800000
800000
800000
800000
800000
800000
800000
800000
800000
800000
800000
800000
800000
800000
800000
800000
800000
800000
800000
800000
800000
800000
800000
800000
800000
ENDCHAR
STARTCHAR 0491
ENCODING 1169
SWIDTH 400 0
DWIDTH 20 0
BBX 15 31 6 0
BITMAP
0002
0002
0002
0002
0002
FFFE
8000
8000
8000
8000
8000
8000
8000
8000
8000
8000
8000
8000
8000
8000
8000
8000
8000
8000
8000
8000
8000
8000
8000
8000
8000
ENDCHAR
STARTCHAR 0492
ENCODING 1170
SWIDTH 580 0
DWIDTH 29 0
BBX 27 35 2 0
BITMAP
03FFFFE0
02000000
02000000
02000000
02000000
02000000
02000000
02000000
02000000
02000000
02000000
02000000
02000000
02000000
02000000
02000000
02000000
02000000
FFFFFE00
02000000
02000000
02000000
02000000
02000000
02000000
02000000
02000000
02000000
02000000
02000000
02000000
02000000
02000000
02000000
02000000
ENDCHAR
STARTCHAR 0493
ENCODING 1171
SWIDTH 460 0
DWIDTH 23 0
BBX 20 26 3 0
BITMAP
1FFFF0
180000
180000
180000
180000
180000
180000
180000
180000
180000
180000
180000
180000
FFFF80
180000
180000
180000
180000
180000
180000
180000
180000
180000
180000
180000
180000
ENDCHAR
ENDFONT
